<svg width="580" height="500" viewBox="0 0 580 500" fill="none" xmlns="http://www.w3.org/2000/svg">
<rect opacity="0.01" width="580" height="500" fill="white"/>
<path d="M101.344 382.149C99.7179 381.656 97.953 382.038 96.6774 383.16C95.4365 384.277 94.3982 385.601 93.6084 387.072C91.4009 390.673 89.4258 393.998 86.9375 397.411C85.6367 399.196 85.6664 400.171 86.3609 400.797C87.8638 402.134 89.4423 403.384 91.0888 404.54C93.0764 405.849 95.5 401.791 97.9879 398.895C98.9642 397.759 101.045 398.538 101.686 399.61C101.975 400.091 102.142 400.635 102.174 401.195C102.163 402.593 101.628 403.937 100.675 404.962C99.3627 406.517 97.4095 407.974 98.3407 410.277C98.6672 411.028 99.2032 411.668 99.8845 412.122C102.824 414.182 105.934 415.987 109.181 417.518C110.201 418.153 111.428 418.364 112.601 418.107C113.437 417.716 114.126 417.068 114.568 416.259C115.681 414.853 116.224 413.081 116.091 411.294C115.611 408.498 112.609 407.051 110.394 405.278C109.33 404.558 108.589 403.451 108.331 402.192C108.287 401.497 108.395 400.8 108.65 400.151C109.386 397.999 110.719 396.074 111.309 393.877C111.9 391.681 111.476 388.924 109.489 387.816L101.344 382.149Z" fill="black"/>
<path d="M138.862 326.852C124.117 348.52 108.459 369.935 103.033 377.938C101.268 380.532 99.8938 383.51 102.621 385.844C105.358 388.166 107.772 388.997 110.777 386.556C120.501 376.897 130.202 366.366 141.352 353.863" fill="white"/>
<path d="M107.207 388.513C105.352 388.355 103.612 387.544 102.298 386.225C99.2115 383.585 100.849 380.259 102.62 377.656C104.72 374.559 108.313 369.509 112.861 363.115C119.844 353.301 129.406 339.858 138.448 326.57L139.275 327.133C130.228 340.43 120.661 353.877 113.676 363.695C109.131 370.083 105.542 375.13 103.447 378.218C101.133 381.618 100.984 383.785 102.947 385.464C105.934 387.999 107.972 388.19 110.462 386.169C119.142 377.542 128.279 367.771 140.979 353.529L141.725 354.195C129.011 368.452 119.861 378.236 111.13 386.911C110.052 387.89 108.663 388.457 107.207 388.513Z" fill="black"/>
<path d="M479.9 324.829C484.437 412.401 415.857 495.354 309.374 495.354C215.211 495.332 138.89 418.991 138.89 324.829C138.89 230.666 215.211 154.326 309.374 154.303C309.374 154.303 470.872 150.587 479.9 324.829Z" fill="white"/>
<path fill-rule="evenodd" clip-rule="evenodd" d="M138.349 324.826C138.349 419.129 215.07 495.851 309.375 495.851C359.244 495.851 404.308 477.315 436.267 443.659C466.581 411.721 482.524 368.782 480.399 324.8C478.335 284.963 468.06 251.181 449.86 224.392C435.293 202.95 415.65 185.92 391.476 173.775C350.684 153.281 310.444 153.787 309.393 153.8L309.375 153.8C215.07 153.8 138.349 230.522 138.349 324.826ZM309.386 154.8C309.413 154.799 309.619 154.796 309.992 154.796C315.195 154.796 352.882 155.494 391.062 174.686C415.074 186.757 434.583 203.676 449.046 224.974C467.134 251.607 477.346 285.21 479.401 324.851C481.512 368.559 465.667 411.232 435.542 442.97C403.774 476.426 358.967 494.851 309.375 494.851C215.622 494.851 139.349 418.578 139.349 324.826C139.349 231.073 215.622 154.8 309.386 154.8Z" fill="black"/>
<path d="M200.765 377.916C194.643 374.899 187.478 375.983 181.156 373.406C174.86 370.722 169.422 366.362 165.432 360.801C156.385 348.511 155.659 332.899 159.742 318.673C160.767 315.676 161.097 312.485 160.708 309.341C160.08 305.514 158.3 301.983 157.659 298.156C156.253 289.753 159.152 281.442 162.508 273.857C165.57 266.741 169.341 259.951 173.764 253.59C176.359 249.947 181.302 244.171 185.253 249.614C187.352 252.506 187.504 256.32 189.546 259.261C192.876 264.057 201.943 266.818 200.877 273.931C200.089 279.19 193.815 275.981 190.687 275.34C188.383 274.861 185.987 275.141 183.855 276.138C179.009 278.412 176.98 283.849 178.048 288.928C178.938 293.162 182.841 298.723 187.755 296.153C193.337 293.235 194.065 281.602 202.342 285.215C205.839 286.742 208.507 289.88 210.852 292.794C213.982 296.684 216.892 301.031 212.888 305.62C210.75 308.07 207.698 309.582 205.296 311.758C203.08 313.757 201.187 316.087 199.686 318.666C196.659 323.878 195.591 330 196.675 335.929C197.22 338.954 198.356 341.841 200.019 344.425C201.783 347.129 205.321 349.74 204.963 353.275C204.904 354.022 204.543 354.712 203.963 355.185C203.382 355.659 202.633 355.874 201.89 355.781C200.896 355.653 199.913 355.445 198.953 355.16C197.313 354.762 195.631 354.56 193.944 354.558C191.473 354.515 189.123 355.621 187.581 357.552C184.515 361.638 187.392 366.21 191.801 367.449C195.17 368.395 198.722 367.388 202.12 368.145C206.255 369.065 210.89 373.285 210.517 377.841C210.527 379.246 209.659 380.508 208.342 380.999C206.935 381.598 205.906 381.174 204.611 380.432C203.277 379.668 202.126 378.642 200.765 377.916C200.197 377.613 199.691 378.476 200.26 378.78C202.591 380.023 205.081 382.888 208.003 382.338C210.02 381.83 211.463 380.057 211.549 377.979C212.04 371.915 205.55 367.196 200.096 366.857C196.165 366.613 191.406 367.731 188.44 364.346C186.729 362.237 187.01 359.149 189.073 357.384C191.294 355.261 194.526 355.37 197.35 355.857C199.559 356.237 202.956 357.918 204.873 356.004C206.336 354.544 206.215 352.102 205.46 350.341C204.059 347.072 201.072 344.755 199.53 341.516C197.83 337.911 197.055 333.937 197.277 329.957C197.712 321.828 202.461 314.835 208.904 310.148C211.46 308.288 214.198 306.481 215.415 303.418C216.586 300.47 215.678 297.788 213.963 295.29C210.818 290.71 205.355 283.04 198.959 283.521C191.766 284.061 192.171 295.871 185.159 295.703C180.166 295.583 178.307 288.484 178.897 284.479C179.439 280.407 182.498 277.123 186.521 276.292C190.362 275.507 193.458 277.938 197.17 277.976C199.289 278.117 201.215 276.747 201.775 274.698C203.365 268.648 196.974 264.8 193.163 261.606C191.701 260.454 190.486 259.02 189.591 257.387C188.582 255.417 188.182 253.203 187.295 251.183C186.355 249.042 184.666 246.65 182.189 246.233C179.032 245.701 176.329 248.749 174.539 250.922C172.227 253.874 170.151 257.005 168.332 260.285C164.108 267.238 160.696 274.654 158.165 282.387C156.923 286.193 156.29 290.171 156.289 294.174C156.36 298.24 157.594 301.922 158.779 305.764C160.117 310.023 160.073 314.595 158.655 318.828C157.581 322.35 156.841 325.965 156.445 329.625C155.684 337.147 156.691 344.743 159.386 351.807C164.092 363.889 174.785 374.373 187.95 376.286C192.142 376.895 196.379 376.867 200.26 378.78C200.835 379.063 201.342 378.201 200.765 377.916V377.916Z" fill="black"/>
<path fill-rule="evenodd" clip-rule="evenodd" d="M304.332 474.332C307.376 475.806 312.791 476.528 319.653 476.528C344.462 476.528 388.177 467.098 407.085 449.73C408.588 448.459 409.829 446.907 410.737 445.161C411.736 443.352 411.432 441.103 409.989 439.624C406.115 435.413 405.906 432.775 406.902 428.452C407.274 427.06 407.79 425.71 408.441 424.425C408.902 423.472 409.313 422.495 409.674 421.499C411.241 416.934 410.212 411.604 406.92 407.241C403.956 403.044 399.106 400.586 393.969 400.678C390.689 400.85 386.889 402.599 386.294 406.034C385.811 408.816 387.6 411.048 389.332 413.207C390.68 414.888 392.073 416.627 392.371 418.596C392.557 420.064 392.136 421.545 391.205 422.696C390.138 424.107 388.554 425.036 386.802 425.278C383.42 425.469 380.227 423.711 378.579 420.752C378.119 419.925 377.713 419.07 377.361 418.192C376.264 415.173 374.259 412.568 371.621 410.735C370.555 409.866 369.55 408.924 368.614 407.915C367.085 406.023 365.797 403.947 364.78 401.736C363.786 399.606 362.563 397.591 361.132 395.726C359.038 393.244 355.957 391.81 352.71 391.805C350.854 391.814 349.118 392.723 348.055 394.244C345.936 397.313 347.38 400.857 348.775 404.283C349.657 406.171 350.266 408.176 350.585 410.236C350.806 412.617 350.034 415.073 349.287 417.447L349.286 417.45C348.326 420.504 347.334 423.661 348.414 426.743C349.182 428.935 350.842 430.566 352.448 432.144L352.448 432.144C353.382 433.017 354.25 433.958 355.044 434.96C356.306 436.701 356.691 438.929 356.088 440.993C355.785 441.941 355.005 442.66 354.036 442.886C352.55 443.22 351.158 442.371 349.685 441.473L349.684 441.472C348.735 440.832 347.704 440.322 346.619 439.955C344.984 439.609 343.293 439.624 341.664 439.999C340.426 440.256 339.157 440.337 337.896 440.24C335.981 439.965 334.279 438.873 333.231 437.246C331.42 434.441 330.818 431.023 331.561 427.768C332.485 424.534 333.86 421.447 335.647 418.598C336.736 416.743 337.723 414.83 338.605 412.868C342.439 403.886 341.379 393.564 335.8 385.549C330.1 377.703 319.691 373.585 310.494 375.535C309.361 375.775 308.234 376.1 307.144 376.415C305.186 377.076 303.153 377.485 301.093 377.634C299.293 377.621 297.5 377.413 295.745 377.012C293.572 376.483 291.33 376.297 289.1 376.463C283.875 377.121 277.639 382.083 275.806 394.04C275.214 397.904 274.183 401.928 271.024 402.478C269.376 402.76 267.714 401.914 266.057 401.064C259.62 397.765 252.797 395.283 245.746 393.674C241.517 392.71 233.947 391.871 230.761 397.087C227.952 401.689 230.869 407.434 234.22 410.955C235.172 411.955 236.209 412.917 237.212 413.848L237.212 413.848L237.215 413.85C239.768 416.22 242.408 418.669 243.708 421.853C244.373 423.702 244.805 425.627 244.995 427.582C245.168 429.024 245.43 430.453 245.779 431.862C248.548 442.108 259.264 447.417 270.432 451.629L270.483 451.649C277.55 454.313 285.574 457.338 293.702 457.118C297.035 456.945 300.351 456.529 303.623 455.872C310.241 454.713 316.492 453.619 322.167 456.365C324.745 457.613 326.392 459.562 326.572 461.578C326.699 462.925 326.204 464.257 325.229 465.195C323.385 467.089 319.67 468.267 316.194 468.044C315.245 467.985 314.142 467.853 312.974 467.713L312.955 467.711C309.096 467.251 304.73 466.73 302.697 468.414C302.017 468.98 301.61 469.809 301.578 470.693C301.469 472.169 302.395 473.394 304.332 474.332ZM303.336 469.184C304.547 468.451 305.962 468.127 307.372 468.259C309.207 468.304 311.037 468.453 312.854 468.707L312.855 468.707C314.038 468.848 315.155 468.982 316.132 469.042C319.304 469.247 323.561 468.342 325.945 465.892C327.12 464.742 327.716 463.125 327.568 461.488C327.356 459.12 325.5 456.868 322.602 455.464C316.637 452.578 309.932 453.751 303.45 454.887C300.226 455.534 296.96 455.946 293.676 456.118C285.716 456.323 277.806 453.341 270.822 450.708L270.785 450.694C259.866 446.576 249.396 441.413 246.745 431.6C246.406 430.231 246.153 428.843 245.985 427.443C245.783 425.406 245.329 423.401 244.633 421.476C243.251 418.087 240.528 415.561 237.895 413.118L237.893 413.116L237.879 413.103C236.891 412.186 235.871 411.239 234.945 410.266C231.591 406.743 229.261 401.462 231.615 397.609C234.581 392.751 242.328 393.921 245.523 394.649C252.512 396.245 259.275 398.708 265.653 401.981L265.667 401.988C267.334 402.843 269.223 403.811 271.196 403.462C274.979 402.804 276.148 398.407 276.794 394.193C277.888 387.055 281.8 378.39 289.225 377.456C291.351 377.301 293.489 377.483 295.559 377.995C297.385 378.406 299.25 378.621 301.122 378.634C303.266 378.481 305.383 378.058 307.422 377.376C308.495 377.066 309.604 376.746 310.701 376.513C319.527 374.646 329.517 378.601 334.991 386.137C340.367 393.866 341.385 403.818 337.686 412.475C336.818 414.403 335.847 416.283 334.776 418.107C332.939 421.037 331.529 424.214 330.587 427.541C329.785 431.072 330.443 434.778 332.411 437.817C333.617 439.679 335.573 440.925 337.769 441.232C339.124 441.34 340.486 441.258 341.817 440.988C343.303 440.637 344.847 440.613 346.344 440.916C347.341 441.261 348.289 441.735 349.163 442.326L349.163 442.326C350.741 443.289 352.372 444.284 354.255 443.863C355.561 443.573 356.616 442.613 357.026 441.339C357.752 438.957 357.314 436.372 355.845 434.361C355.021 433.317 354.12 432.338 353.148 431.431L353.146 431.429C351.552 429.862 350.048 428.383 349.357 426.412C348.388 423.643 349.288 420.779 350.241 417.747L350.241 417.746C351.018 415.278 351.82 412.725 351.581 410.144C351.257 407.985 350.624 405.884 349.701 403.906C348.346 400.579 347.066 397.437 348.877 394.812C349.772 393.559 351.214 392.813 352.753 392.804C355.687 392.82 358.467 394.12 360.36 396.363C361.744 398.172 362.928 400.126 363.891 402.191C364.942 404.478 366.277 406.624 367.864 408.578C368.831 409.621 369.869 410.596 370.972 411.495C373.491 413.227 375.404 415.706 376.441 418.582C376.808 419.501 377.234 420.395 377.716 421.258C379.549 424.574 383.137 426.529 386.917 426.272C388.938 425.996 390.767 424.928 392 423.303C393.097 421.938 393.588 420.183 393.359 418.447C393.022 416.212 391.543 414.367 390.113 412.582L390.112 412.581C388.446 410.504 386.874 408.542 387.278 406.204C387.758 403.439 391.033 401.833 394.021 401.676C398.826 401.605 403.356 403.913 406.122 407.842C409.213 411.941 410.188 416.924 408.729 421.175C408.378 422.138 407.979 423.082 407.534 424.005C406.855 425.353 406.316 426.768 405.928 428.227C404.895 432.714 405.125 435.814 409.253 440.302C410.416 441.487 410.651 443.3 409.828 444.743C408.974 446.367 407.813 447.811 406.409 448.994C382.498 470.957 318.644 480.157 304.768 473.432C303.237 472.691 302.499 471.794 302.576 470.763C302.59 470.152 302.867 469.577 303.336 469.184Z" fill="black"/>
<path fill-rule="evenodd" clip-rule="evenodd" d="M256.794 467.688C258.697 469.093 261.015 469.822 263.379 469.761H263.38C263.465 469.761 263.549 469.761 263.635 469.759C265.819 469.717 268.375 468.659 268.822 466.435C269.157 464.776 268.229 463.041 266.067 461.279C262.177 458.105 257.727 455.686 252.947 454.149C251.775 453.683 250.503 453.524 249.253 453.687C247.818 453.893 246.708 455.051 246.563 456.493C246.562 458.458 247.879 459.783 248.841 460.75L248.841 460.751C250.603 462.52 255.388 466.582 256.794 467.688ZM257.413 466.903C256.06 465.838 251.255 461.759 249.55 460.046C248.665 459.155 247.562 458.046 247.563 456.493C247.564 455.582 248.521 454.849 249.445 454.668C250.53 454.547 251.627 454.695 252.64 455.1C257.302 456.6 261.641 458.959 265.435 462.054C267.288 463.563 268.097 464.971 267.842 466.238C267.503 467.921 265.414 468.724 263.616 468.759C261.396 468.874 259.205 468.219 257.413 466.903Z" fill="black"/>
<path d="M420.154 328.423C423.57 325.063 429.884 326.027 434.238 326.249C439.111 326.38 443.927 327.336 448.48 329.077C453.149 330.994 458.49 334.254 460.662 339.009C461.988 341.909 461.65 344.794 459.153 346.907C457.51 348.298 455.778 349.322 454.717 351.27C452.626 355.11 453.067 361.368 448.095 362.937C443.407 364.417 438.302 361.277 433.445 362.103C428.257 362.984 424.124 366.439 419.275 368.207C416.201 369.329 412.81 369.439 410.457 366.825C408.423 364.4 407.763 361.108 408.704 358.087C409.756 354.983 411.611 352.214 414.082 350.062C415.706 348.497 417.521 347 418.647 345.008C421.702 339.601 416.154 333.346 420.154 328.423C420.556 327.927 419.853 327.216 419.447 327.716C417.963 329.407 417.315 331.675 417.68 333.896C418.121 337.457 419.704 341.091 417.783 344.503C416.327 347.089 413.718 348.821 411.762 350.993C409.73 353.111 408.28 355.718 407.553 358.561C406.638 362.732 408.331 367.833 412.55 369.504C418.005 371.665 423.87 366.9 428.557 364.758C431.778 363.173 435.414 362.637 438.955 363.224C441.779 363.699 444.783 364.672 447.666 364.073C452.625 363.041 453.308 358.111 454.654 354.045C455.105 352.457 455.936 351.002 457.075 349.807C458.082 348.808 459.371 348.14 460.39 347.152C461.972 345.676 462.727 343.515 462.408 341.374C461.718 336.237 456.998 332.558 452.83 330.12C447.583 327.239 441.744 325.605 435.764 325.342C430.8 324.982 423.381 323.846 419.447 327.716C418.987 328.168 419.695 328.875 420.154 328.423Z" fill="black"/>
<path fill-rule="evenodd" clip-rule="evenodd" d="M225.998 368.772C227.668 370.03 229.712 370.692 231.803 370.651C233.496 370.648 235.168 370.269 236.698 369.543C238.089 368.995 239.22 367.939 239.86 366.588C240.664 364.574 239.678 362.415 238.487 361.066C237.612 360.143 236.639 359.316 235.586 358.603L235.572 358.592C235.115 358.259 234.658 357.925 234.219 357.571C233.695 357.112 233.218 356.601 232.796 356.046C231.762 354.786 230.59 353.359 228.577 353.359C225.801 353.359 224.027 355.567 223.448 359.744C222.967 363.202 222.827 366.27 225.998 368.772ZM224.438 359.881C224.788 357.362 225.79 354.359 228.577 354.359V354.359C230.118 354.359 231.043 355.486 232.023 356.68C232.488 357.288 233.013 357.848 233.592 358.351C234.047 358.718 234.522 359.064 234.996 359.41C235.991 360.081 236.91 360.859 237.737 361.729C238.686 362.803 239.568 364.623 238.931 366.217C238.38 367.33 237.43 368.195 236.27 368.639C232.972 370.205 229.093 369.943 226.618 367.987C224.099 365.999 223.908 363.698 224.438 359.881Z" fill="black"/>
<path d="M131.11 411.648C129.56 410.953 127.761 411.109 126.353 412.061C124.981 413.011 123.783 414.193 122.813 415.552C120.167 418.844 117.787 421.892 114.886 424.963C113.37 426.568 113.276 427.54 113.886 428.248C115.207 429.765 116.614 431.205 118.101 432.56C119.907 434.11 122.825 430.392 125.66 427.834C126.772 426.831 128.737 427.868 129.238 429.012C129.463 429.526 129.56 430.086 129.521 430.646C129.332 432.032 128.632 433.297 127.557 434.193C126.058 435.569 123.936 436.767 124.568 439.169C124.797 439.955 125.247 440.659 125.865 441.196C128.521 443.611 131.377 445.795 134.403 447.726C135.334 448.484 136.525 448.849 137.722 448.743C138.6 448.461 139.366 447.906 139.907 447.159C141.188 445.906 141.952 444.217 142.046 442.427C141.924 439.592 139.13 437.777 137.157 435.738C136.193 434.889 135.599 433.696 135.502 432.415C135.546 431.72 135.742 431.042 136.076 430.431C137.079 428.39 138.646 426.649 139.51 424.545C140.374 422.441 140.302 419.652 138.472 418.302L131.11 411.648Z" fill="black"/>
<path d="M280.246 183.391V183.401C280.236 184.581 280.216 185.751 280.206 186.931C277.796 210.951 276.876 237.971 268.146 270.151C266.976 274.471 265.666 278.891 264.186 283.401C259.767 297.282 253.032 310.316 244.266 321.951C236.396 332.501 216.586 351.521 207.216 359.771C178.616 384.971 159.136 402.451 139.906 417.211C136.616 419.251 134.326 418.121 131.916 415.461C129.496 412.801 131.246 410.021 133.316 407.671C142.896 396.821 179.016 359.061 199.006 333.451C206.596 323.731 212.946 314.741 216.436 307.501C221.206 297.641 225.926 282.961 225.576 262.351C225.366 249.581 223.226 234.541 217.936 216.951C212.666 199.391 203.796 181.261 206.086 159.281C207.726 143.551 216.356 126.531 237.226 118.611C237.25 118.609 237.274 118.602 237.296 118.591C238.666 118.071 240.096 117.591 241.576 117.151C247.144 115.332 252.879 114.069 258.696 113.381C264.405 112.605 270.165 112.254 275.926 112.331C275.786 112.491 275.646 112.651 275.516 112.811C274.316 114.267 273.394 115.931 272.796 117.721C270.906 123.311 272.896 131.241 274.366 136.941C275.836 142.651 277.856 148.291 278.116 154.181C278.356 159.451 276.266 165.101 276.186 170.371C276.116 175.221 276.506 179.561 280.086 183.221C280.136 183.281 280.186 183.331 280.246 183.391Z" fill="white"/>
<path d="M280.086 183.221C279.456 188.961 278.946 194.881 278.415 201.021C276.665 221.411 274.705 244.131 267.606 270.201C266.456 274.461 265.165 278.811 263.706 283.251C259.293 297.073 252.586 310.055 243.866 321.651C235.915 332.311 215.856 351.491 206.886 359.401L197.425 367.741C173.736 388.641 156.616 403.751 139.646 416.781C136.915 418.471 134.915 418.031 132.286 415.131C130.546 413.221 130.966 411.091 133.695 408.001C136.156 405.211 140.346 400.671 145.656 394.921C161.146 378.141 184.546 352.781 199.406 333.761C208.185 322.511 213.736 314.241 216.886 307.721C223.296 294.471 226.386 279.401 226.126 262.631C225.925 248.521 223.355 233.245 218.415 216.801C217.286 213.041 216.016 209.331 214.675 205.401C209.816 191.191 204.796 176.501 206.586 159.331C207.596 149.611 213.046 126.101 241.746 117.621C250.136 114.671 263.596 112.801 274.196 112.801C274.636 112.801 275.076 112.801 275.516 112.811C275.646 112.651 275.786 112.491 275.926 112.331L275.946 112.311C275.656 112.281 269.456 111.691 258.696 113.381C252.878 114.07 247.144 115.332 241.576 117.151C240.096 117.591 238.666 118.071 237.296 118.591C237.274 118.602 237.25 118.609 237.226 118.611C233.577 119.782 230.074 121.365 226.786 123.331C226.741 123.351 226.701 123.378 226.666 123.411C210.156 134.281 206.426 151.281 205.596 159.231C203.776 176.611 208.836 191.411 213.736 205.731C215.066 209.641 216.336 213.341 217.466 217.091C222.306 233.211 224.856 248.211 225.116 262.091C225.446 278.921 222.406 294.031 215.986 307.281C212.866 313.741 207.346 321.951 198.616 333.141C183.786 352.131 160.396 377.471 144.926 394.241C139.606 399.991 135.416 404.541 132.946 407.341C130.856 409.701 128.816 412.801 131.546 415.801C132.936 417.331 134.586 418.741 136.736 418.741C137.98 418.698 139.187 418.303 140.216 417.601C157.256 404.521 174.386 389.411 198.086 368.491L207.546 360.151C216.546 352.221 236.676 332.961 244.666 322.251C253.452 310.568 260.21 297.488 264.656 283.561C266.156 278.961 267.499 274.461 268.686 270.061C275.716 244.081 277.666 221.441 279.416 201.111C279.646 198.411 279.879 195.758 280.116 193.151C280.156 191.081 280.176 189.001 280.206 186.931C280.216 185.751 280.236 184.581 280.246 183.401V183.391C280.186 183.331 280.136 183.281 280.086 183.221Z" fill="black"/>
<path d="M280.245 183.391V183.401C280.235 184.581 280.215 185.751 280.205 186.931C280.175 189.001 280.155 191.081 280.115 193.151C279.765 215.601 278.835 237.751 275.215 260.011C274.595 263.821 273.465 268.241 269.895 269.711C269.506 269.873 269.1 269.99 268.685 270.061C268.507 270.101 268.327 270.131 268.145 270.151C267.965 270.171 267.785 270.191 267.605 270.201C266.52 270.246 265.432 270.196 264.355 270.051C253.576 268.88 242.877 267.063 232.315 264.611C230.185 264.183 228.108 263.519 226.125 262.631C225.945 262.541 225.755 262.451 225.575 262.351C225.425 262.261 225.265 262.181 225.115 262.091C224.425 261.678 223.781 261.192 223.195 260.641C220.405 257.991 219.425 254.001 218.595 250.251C212.935 224.681 209.315 201.541 205.725 175.611C205.725 175.611 199.395 139.941 226.665 123.411C226.7 123.378 226.741 123.351 226.785 123.331C230.074 121.365 233.577 119.782 237.225 118.611C237.25 118.609 237.273 118.602 237.295 118.591C244.279 116.289 251.435 114.546 258.695 113.381C269.455 111.691 275.655 112.281 275.945 112.311L275.925 112.331C275.785 112.491 275.645 112.651 275.515 112.811C274.315 114.267 273.393 115.932 272.795 117.721C270.905 123.311 272.895 131.241 274.365 136.941C275.835 142.651 277.855 148.291 278.115 154.181C278.355 159.451 276.265 165.101 276.185 170.371C276.115 175.221 276.505 179.561 280.085 183.221C280.135 183.281 280.185 183.331 280.245 183.391Z" fill="black"/>
<path d="M447.046 230.094C445.186 233.604 441.336 240.714 428.636 238.384C424.025 237.651 419.696 235.689 416.106 232.704C415.168 233.183 414.183 233.565 413.166 233.844C412.052 234.162 410.854 233.812 410.086 232.944C409.026 231.644 409.966 229.814 410.936 228.444C410.276 227.894 409.806 227.474 409.696 227.364C405.676 223.544 402.146 219.514 404.326 213.784C406.166 208.974 414.606 202.654 415.006 198.414C415.316 195.224 411.206 190.544 408.766 188.134C403.636 183.514 400.446 181.914 393.786 179.224C393.113 179.019 392.429 178.856 391.736 178.734C391.926 178.344 392.066 177.924 392.216 177.524C393.646 173.684 396.636 170.094 400.676 169.154C400.977 169.082 401.268 168.978 401.546 168.844C407.636 174.404 412.906 180.714 418.956 186.554C419.726 187.384 421.736 189.294 422.186 189.784C431.296 199.784 433.666 201.004 440.646 208.894C447.666 216.814 449.236 225.964 447.046 230.094Z" fill="white"/>
<path fill-rule="evenodd" clip-rule="evenodd" d="M416.033 233.294C421.013 237.141 427.107 239.265 433.398 239.348C442.706 239.348 445.858 233.401 447.487 230.327C449.848 225.877 448.074 216.519 441.019 208.562C437.542 204.63 435.15 202.295 432.618 199.824L432.603 199.809C430.036 197.303 427.123 194.46 422.554 189.445C422.35 189.222 421.828 188.71 421.243 188.137L421.235 188.129C420.534 187.442 419.742 186.665 419.304 186.193C416.629 183.612 414.069 180.897 411.592 178.27L411.57 178.247L411.553 178.228C408.464 174.953 405.272 171.567 401.883 168.474L401.63 168.242L401.322 168.396C401.08 168.513 400.825 168.604 400.562 168.666C396.735 169.556 393.439 172.802 391.748 177.347L391.644 177.629C391.539 177.93 391.42 178.226 391.286 178.515L390.996 179.113L391.652 179.226C392.309 179.341 392.959 179.495 393.599 179.686C400.094 182.31 403.254 183.841 408.414 188.489C409.924 189.979 414.825 195.097 414.508 198.366C414.307 200.497 411.733 203.405 409.244 206.217L409.241 206.221C407.026 208.724 404.736 211.312 403.858 213.605C401.563 219.637 405.313 223.888 409.342 227.715C409.441 227.815 409.777 228.118 410.268 228.535C408.959 230.529 408.768 232.118 409.698 233.259C410.578 234.262 411.951 234.68 413.24 234.337C414.208 234.096 415.144 233.746 416.033 233.294ZM416.429 232.321L416.178 232.108L415.883 232.255C414.993 232.716 414.058 233.082 413.092 233.348C412.153 233.641 411.13 233.359 410.474 232.627C409.803 231.805 410.096 230.494 411.344 228.732L411.61 228.354L411.256 228.059C410.587 227.501 410.141 227.101 410.041 227C406.089 223.246 402.715 219.423 404.793 213.961C405.605 211.838 407.835 209.318 409.992 206.881L409.993 206.88L409.997 206.875C412.71 203.81 415.272 200.914 415.504 198.461C415.854 194.855 411.153 189.788 409.101 187.761C403.828 183.013 400.442 181.372 393.929 178.744C393.404 178.587 392.912 178.46 392.439 178.359C392.488 178.23 392.536 178.101 392.583 177.972L392.685 177.697C393.9 174.431 396.668 170.599 400.797 169.638C401.019 169.584 401.237 169.515 401.449 169.432C404.719 172.439 407.817 175.724 410.816 178.904L410.843 178.933L410.848 178.938C413.338 181.579 415.912 184.309 418.59 186.893C419.007 187.343 419.788 188.11 420.49 188.798L420.544 188.851C421.111 189.407 421.618 189.904 421.816 190.12C426.404 195.156 429.327 198.009 431.904 200.525L431.919 200.54C434.548 203.104 436.817 205.32 440.272 209.224C446.948 216.756 448.757 225.799 446.605 229.858L446.601 229.865C444.826 233.214 441.137 240.171 428.727 237.891C424.203 237.167 419.956 235.244 416.429 232.321Z" fill="black"/>
<path d="M422.996 233.552C422.753 233.551 422.545 233.376 422.504 233.136C422.151 230.541 423.794 228.092 426.329 227.434C426.503 227.395 426.685 227.452 426.806 227.583C426.927 227.715 426.969 227.901 426.915 228.071C426.862 228.241 426.722 228.371 426.548 228.41C424.521 228.935 423.208 230.893 423.49 232.967C423.514 233.113 423.474 233.261 423.378 233.374C423.283 233.487 423.143 233.552 422.996 233.552Z" fill="black"/>
<path d="M424.879 228.762C424.749 228.762 424.624 228.711 424.531 228.62C424.098 228.199 423.74 227.708 423.472 227.168C423.349 226.92 423.451 226.62 423.698 226.497C423.946 226.375 424.246 226.476 424.369 226.724C424.586 227.163 424.877 227.562 425.228 227.903C425.374 228.045 425.419 228.261 425.343 228.45C425.266 228.638 425.083 228.762 424.879 228.762Z" fill="black"/>
<path d="M423.274 230.338C423.232 230.338 423.19 230.332 423.15 230.322C422.642 230.192 422.157 229.984 421.714 229.705C421.562 229.61 421.473 229.441 421.48 229.262C421.487 229.083 421.588 228.922 421.747 228.839C421.905 228.755 422.096 228.763 422.247 228.859C422.603 229.083 422.991 229.25 423.398 229.353C423.642 229.416 423.801 229.65 423.77 229.9C423.738 230.15 423.526 230.338 423.274 230.338H423.274Z" fill="black"/>
<path d="M422.514 232.486L422.488 232.485L420.996 232.406C420.722 232.389 420.513 232.154 420.527 231.88C420.542 231.606 420.775 231.394 421.049 231.407L422.54 231.486C422.811 231.501 423.021 231.728 423.014 231.999C423.006 232.27 422.785 232.486 422.514 232.486V232.486Z" fill="black"/>
<path d="M406.627 224.103C406.454 224.103 406.293 224.014 406.202 223.867C406.111 223.72 406.102 223.536 406.179 223.381C407.308 221.172 409.569 219.77 412.05 219.742H412.103C412.379 219.743 412.602 219.968 412.601 220.244C412.6 220.52 412.375 220.743 412.099 220.742C412.083 220.74 412.066 220.74 412.05 220.742C409.948 220.766 408.032 221.953 407.075 223.825C406.991 223.995 406.817 224.103 406.627 224.103Z" fill="black"/>
<path d="M451.066 239.14C446.636 244.95 438.616 249.7 431.406 247.07C429.556 246.475 428.022 245.165 427.146 243.43C426.291 241.551 426.641 239.343 428.036 237.82C433.236 233.31 439.146 229.96 440.956 223.74C441.546 221.782 441.308 219.668 440.296 217.89C439.447 216.66 438.264 215.699 436.886 215.12C438.723 214.869 440.156 213.403 440.366 211.56C440.343 209.076 438.465 207.001 435.996 206.73C434.608 206.547 433.209 206.986 432.176 207.93C431.347 206.928 431.017 205.605 431.276 204.33C431.766 202.069 433.814 200.49 436.126 200.59C440.276 200.87 444.876 204.05 448.156 207.36C450.797 209.999 452.927 213.105 454.436 216.52C457.646 223.61 455.786 232.95 451.066 239.14Z" fill="black"/>
<path fill-rule="evenodd" clip-rule="evenodd" d="M457.926 228.064C458.014 228.068 458.101 228.07 458.187 228.07C459.707 228.111 461.159 227.441 462.112 226.257C463.212 224.731 463.524 222.453 463.041 219.483C462.893 217.608 461.996 215.872 460.552 214.668C459.357 213.8 457.87 213.433 456.408 213.645C455.099 213.722 453.876 214.324 453.018 215.315L452.882 215.493L454.95 226.414L455.01 226.573C455.666 227.532 456.764 228.093 457.926 228.064ZM457.974 227.065C457.181 227.089 456.421 226.747 455.915 226.136L453.95 215.758C454.645 215.093 455.554 214.696 456.515 214.639C457.704 214.458 458.917 214.741 459.903 215.428C461.17 216.478 461.948 218.002 462.055 219.644C462.486 222.304 462.227 224.388 461.302 225.672C460.478 226.641 459.242 227.158 457.974 227.065Z" fill="black"/>
<path d="M462.469 218.539C469.765 218.966 477.939 223.756 483.499 229.783C495.791 243.105 503.268 265.783 503.788 286.184C503.934 291.908 503.659 297.743 501.751 303.141C499.842 308.54 496.109 313.502 490.872 315.817C484.868 318.472 469.193 318.013 462.072 308.48C456.193 300.609 455.13 290.085 457.767 280.621C460.403 271.158 465.445 262.512 468.221 253.089C470.996 243.665 469.779 232.511 462.633 224.237L462.469 218.539Z" fill="black"/>
<path d="M436.506 215.654C435.995 215.655 435.489 215.544 435.026 215.327C434.776 215.209 434.668 214.911 434.786 214.661C434.903 214.411 435.201 214.304 435.451 214.422C436.328 214.793 437.331 214.702 438.126 214.179C439.102 213.632 439.75 212.646 439.864 211.534C439.828 209.315 438.147 207.469 435.942 207.226C434.702 207.057 433.451 207.448 432.527 208.292C431.648 209.131 431.328 210.4 431.703 211.556C431.766 211.723 431.735 211.911 431.622 212.049C431.508 212.187 431.33 212.254 431.154 212.225C430.978 212.196 430.831 212.075 430.768 211.908C430.245 210.38 430.659 208.688 431.829 207.575C432.969 206.521 434.518 206.029 436.057 206.233C438.797 206.523 440.873 208.84 440.863 211.595C440.726 213.037 439.896 214.322 438.637 215.038C437.995 215.431 437.259 215.644 436.506 215.654Z" fill="black"/>
<path d="M436.927 212.677C436.728 212.677 436.547 212.558 436.468 212.375C436.389 212.192 436.426 211.98 436.563 211.834C436.862 211.397 436.841 210.816 436.51 210.402C436.137 209.902 435.54 209.62 434.917 209.651C434.784 209.662 434.653 209.618 434.552 209.531C434.452 209.443 434.392 209.318 434.385 209.185C434.376 209.053 434.42 208.922 434.508 208.822C434.595 208.722 434.718 208.661 434.851 208.653C435.818 208.6 436.748 209.038 437.322 209.819C437.939 210.617 437.926 211.735 437.291 212.519C437.197 212.62 437.065 212.677 436.927 212.677Z" fill="black"/>
<path d="M336.773 213.196C330.899 225.296 325.317 238.226 321.651 251.167C320.332 255.824 319.304 260.744 320.313 265.478C321.43 270.726 324.9 275.114 328.267 279.292C339.665 293.435 353.277 311.907 365.027 326.741C367.7 330.122 371.094 332.865 374.961 334.768C376.827 335.684 378.697 336.568 380.247 337.507C382.095 338.572 383.823 339.834 385.399 341.271C385.794 341.644 386.675 342.485 386.16 343.089C385.799 343.514 383.768 342.635 383.255 342.416C381.365 341.58 379.531 340.625 377.762 339.557C377.534 339.426 377.245 339.48 377.08 339.685C376.915 339.89 376.924 340.185 377.102 340.379C380.414 343.994 387.993 350.589 391.757 354.535C392.155 354.973 392.505 355.453 392.801 355.967C392.939 356.203 392.947 356.494 392.822 356.738C392.697 356.982 392.457 357.146 392.184 357.172C391.79 357.234 391.276 356.989 390.541 356.359C387.981 354.164 385.705 352.345 383.156 350.137C382.95 349.959 381.826 349.113 381.307 349.31C380.896 349.466 380.653 349.826 380.96 350.164C383.707 352.885 386.655 355 389.312 357.809C390.137 358.584 390.895 359.428 391.576 360.332C391.836 360.725 391.776 361.247 391.436 361.572C390.783 362.216 389.916 361.633 389.533 361.272C387.091 358.977 384.686 356.66 382.244 354.364C381.168 353.353 379.428 351.692 378.823 352.085C378.489 352.394 378.739 352.793 379.053 353.211C382.033 356.532 384.786 359.032 387.772 362.346C388.426 363.071 388.835 363.964 388.233 364.399C387.716 364.832 386.203 363.699 384.537 362.032C382.388 359.883 380.873 358.21 378.451 356.092C377.754 355.482 376.326 354.305 375.868 354.861C375.868 354.861 374.954 354.93 382.33 362.377C383.638 363.699 383.629 364.558 383.324 364.858C382.702 365.381 381.173 364.275 380.298 363.471L374.327 357.564C371.787 355.033 369.438 352.319 367.298 349.442C364.468 345.96 361.07 341.143 360.613 334.762C360.543 333.786 360.138 332.863 359.465 332.151C345.604 317.443 330.099 300.404 316.327 285.822C311.447 280.655 306.423 275.251 304.23 268.491C302.134 262.032 302.855 255.029 303.84 248.31C306.005 233.566 309.331 219.017 313.789 204.797" fill="white"/>
<path d="M382.915 365.48C381.875 365.48 380.566 364.398 379.96 363.84L373.975 357.92C371.944 355.965 370.073 353.85 368.38 351.595C367.897 350.987 367.41 350.373 366.91 349.758C363.806 345.939 360.57 341.175 360.114 334.799C360.051 333.938 359.693 333.124 359.101 332.496C352.361 325.343 345.113 317.511 338.105 309.937C330.697 301.933 323.038 293.657 315.964 286.166C311.305 281.233 306.024 275.642 303.754 268.646C301.592 261.984 302.409 254.619 303.345 248.238C305.517 233.469 308.85 218.894 313.312 204.648L314.267 204.947C309.819 219.143 306.499 233.666 304.335 248.384C303.373 254.939 302.609 261.88 304.705 268.338C306.905 275.119 312.104 280.624 316.69 285.48C323.769 292.974 331.43 301.252 338.838 309.258C345.846 316.831 353.092 324.661 359.829 331.81C360.579 332.606 361.032 333.636 361.112 334.727C361.548 340.827 364.68 345.429 367.686 349.127C368.189 349.745 368.678 350.362 369.163 350.974C370.829 353.191 372.668 355.272 374.664 357.197L380.65 363.117C381.873 364.24 382.846 364.604 383.002 364.476C383.024 364.433 383.064 363.831 381.974 362.73C375.004 355.692 375.233 355.081 375.368 354.715L375.481 354.416L375.643 354.391C375.782 354.291 375.946 354.232 376.116 354.22C376.705 354.187 377.541 354.632 378.78 355.717C380.583 357.293 381.906 358.645 383.309 360.077C383.811 360.589 384.328 361.119 384.89 361.68C387.267 364.055 387.962 363.99 387.959 363.992C387.998 363.957 388.021 363.908 388.025 363.856C387.961 363.404 387.74 362.988 387.401 362.682C385.932 361.051 384.493 359.592 383.102 358.181C381.673 356.732 380.195 355.234 378.682 353.546C378.396 353.169 377.789 352.364 378.482 351.72C379.408 351.116 380.731 352.254 382.507 353.926L382.587 354.001C383.829 355.168 385.065 356.339 386.293 357.514C387.484 358.648 388.678 359.78 389.875 360.91C390.004 361.031 390.675 361.621 391.085 361.216C391.263 361.056 391.291 360.786 391.149 360.593C390.671 359.927 390.129 359.309 389.529 358.75C389.321 358.539 389.122 358.337 388.948 358.154C387.516 356.687 386.009 355.295 384.435 353.982C383.17 352.89 381.861 351.761 380.608 350.52C380.374 350.292 380.276 349.96 380.347 349.641C380.458 349.262 380.752 348.963 381.129 348.844C382.015 348.505 383.424 349.71 383.483 349.76C384.852 350.946 386.142 352.019 387.439 353.098C388.558 354.029 389.682 354.964 390.866 355.98C391.631 356.635 391.975 356.702 392.106 356.678C392.224 356.66 392.329 356.591 392.392 356.489C392.405 356.461 392.449 356.376 392.357 356.196C392.082 355.726 391.76 355.285 391.396 354.881C389.612 353.012 386.92 350.5 384.316 348.07C381.447 345.394 378.482 342.626 376.733 340.718C376.389 340.342 376.371 339.772 376.69 339.374C377.008 338.977 377.569 338.871 378.011 339.124L378.419 339.359C380.04 340.33 381.721 341.198 383.451 341.957C384.189 342.34 384.986 342.593 385.81 342.707C385.841 342.574 385.738 342.28 385.056 341.635C383.505 340.223 381.806 338.983 379.988 337.935C378.673 337.139 377.142 336.391 375.521 335.599L374.74 335.218C370.81 333.277 367.358 330.488 364.636 327.052C359.267 320.275 353.415 312.615 347.756 305.207C341.026 296.397 334.068 287.287 327.878 279.607C324.65 275.6 320.989 271.059 319.823 265.583C318.774 260.65 319.915 255.459 321.17 251.032C324.345 239.826 329.159 227.734 336.322 212.979L337.223 213.415C330.085 228.117 325.29 240.156 322.133 251.304C320.849 255.831 319.8 260.668 320.802 265.375C321.917 270.617 325.498 275.06 328.657 278.979C334.854 286.669 341.817 295.784 348.55 304.599C354.207 312.003 360.056 319.661 365.419 326.431C368.049 329.751 371.383 332.445 375.181 334.32L375.959 334.701C377.602 335.502 379.152 336.26 380.506 337.08C382.384 338.163 384.14 339.447 385.741 340.909C386.144 341.288 387.368 342.443 386.541 343.415C386.107 343.921 385.17 343.778 383.09 342.89C381.313 342.111 379.587 341.221 377.921 340.226L377.513 339.992C379.192 341.921 382.144 344.675 384.998 347.338C387.612 349.779 390.317 352.301 392.118 354.191C392.55 354.664 392.927 355.182 393.245 355.738C393.455 356.109 393.469 356.559 393.283 356.942C393.076 357.331 392.697 357.599 392.262 357.666C391.699 357.748 391.068 357.469 390.216 356.74C389.034 355.727 387.914 354.794 386.799 353.868C385.497 352.784 384.202 351.706 382.828 350.516C382.442 350.166 381.976 349.914 381.472 349.782C381.41 349.803 381.356 349.84 381.314 349.889C382.54 351.027 383.835 352.144 385.088 353.224C386.688 354.559 388.219 355.975 389.675 357.466C389.844 357.645 390.037 357.841 390.24 358.046C390.897 358.66 391.488 359.339 392.004 360.075C392.384 360.665 392.293 361.443 391.786 361.929C391.405 362.238 390.916 362.382 390.428 362.327C389.94 362.273 389.494 362.025 389.191 361.639C387.988 360.508 386.793 359.375 385.604 358.239C384.373 357.067 383.139 355.897 381.901 354.73L381.821 354.655C381.041 353.853 380.166 353.149 379.214 352.561C379.287 352.682 379.367 352.799 379.453 352.912C380.924 354.548 382.393 356.038 383.814 357.479C385.213 358.898 386.659 360.365 388.144 362.012C388.676 362.525 388.99 363.223 389.02 363.961C388.986 364.301 388.806 364.609 388.526 364.805C388.052 365.201 387.103 365.306 384.183 362.387C383.618 361.823 383.099 361.292 382.594 360.777C381.206 359.359 379.896 358.02 378.122 356.469C377.661 356.038 377.15 355.663 376.601 355.351C378.465 357.72 380.498 359.951 382.685 362.027C383.416 362.613 383.886 363.464 383.992 364.395C384.017 364.688 383.912 364.978 383.705 365.187C383.497 365.396 383.209 365.503 382.915 365.48L382.915 365.48Z" fill="black"/>
<path d="M288.452 106.888C301.08 105.771 317.66 111.663 328.801 116.112C370.882 132.913 393.991 154.299 401.49 163.011C402.386 163.931 402.977 165.104 403.182 166.372C403.279 167.614 402.377 168.739 400.679 169.156C396.64 170.088 393.646 173.684 392.22 177.521C392.019 178.311 391.632 179.04 391.091 179.648C390.286 180.217 389.314 180.5 388.329 180.455C379.428 181.002 374.387 181.532 366.764 186.006C363.304 188.037 359.249 192.176 355.798 194.223C350.915 197.119 347.279 198.28 340.705 198.83C335.766 198.933 330.831 198.465 325.999 197.435C312.127 194.319 303.691 192.79 291.628 189.359C288.657 188.514 283.433 186.187 281.086 184.177C276.579 180.316 276.11 175.646 276.19 170.375C276.27 165.104 278.356 159.451 278.119 154.185C277.853 148.297 275.837 142.654 274.365 136.947C272.892 131.24 270.906 123.309 272.799 117.727C274.691 112.146 279.337 107.694 288.452 106.888Z" fill="white"/>
<path fill-rule="evenodd" clip-rule="evenodd" d="M325.889 197.924C330.308 198.869 334.814 199.347 339.332 199.348C339.809 199.348 340.282 199.342 340.747 199.33C347.289 198.783 351.009 197.646 356.053 194.655C357.982 193.412 359.82 192.034 361.553 190.531C363.273 189.036 365.099 187.668 367.017 186.439C374.602 181.987 379.552 181.497 388.36 180.956C390.34 181.244 392.199 179.931 392.589 177.968L392.688 177.697C393.904 174.428 396.671 170.595 400.798 169.644C402.67 169.183 403.801 167.884 403.68 166.335C403.48 164.957 402.846 163.679 401.869 162.687C397.941 158.123 375.968 134.407 328.987 115.649C317.678 111.134 301.17 105.261 288.408 106.392C277.933 107.318 273.88 112.981 272.325 117.568C270.35 123.392 272.474 131.625 273.88 137.073L273.88 137.074C274.228 138.423 274.607 139.769 274.986 141.115L274.987 141.12C276.182 145.372 277.418 149.769 277.619 154.209C277.622 157.102 277.302 159.986 276.667 162.809C276.135 165.298 275.808 167.826 275.69 170.369C275.615 175.287 275.945 180.433 280.761 184.559C283.272 186.709 288.7 189.048 291.492 189.842C300.334 192.357 307.128 193.83 315.73 195.693C318.842 196.368 322.17 197.089 325.889 197.924ZM273.272 117.89C275.395 111.627 280.518 108.094 288.496 107.388L288.496 107.388C301.045 106.274 317.403 112.101 328.616 116.578C375.381 135.249 397.209 158.807 401.111 163.339C401.944 164.173 402.494 165.248 402.684 166.412C402.765 167.464 401.952 168.33 400.567 168.671C396.059 169.71 393.057 173.835 391.75 177.349L391.649 177.628C391.528 178.389 391.102 179.067 390.47 179.506C389.838 179.946 389.054 180.109 388.299 179.957C379.585 180.493 374.278 181.018 366.511 185.577C364.547 186.832 362.677 188.229 360.917 189.759C359.223 191.229 357.428 192.577 355.543 193.794C350.648 196.698 347.033 197.801 340.693 198.331C335.794 198.438 330.899 197.974 326.108 196.949C322.386 196.113 319.056 195.391 315.942 194.716L315.933 194.714C307.353 192.855 300.575 191.386 291.765 188.88C288.634 187.989 283.612 185.684 281.412 183.799C276.921 179.953 276.616 175.259 276.69 170.384C276.808 167.897 277.129 165.425 277.651 162.99C278.302 160.093 278.626 157.133 278.618 154.164C278.412 149.607 277.16 145.153 275.948 140.845L275.948 140.844C275.572 139.505 275.195 138.166 274.849 136.824C273.473 131.491 271.393 123.431 273.272 117.89Z" fill="black"/>
<path fill-rule="evenodd" clip-rule="evenodd" d="M298.942 126.215C298.942 128.387 300.703 130.148 302.875 130.148C305.047 130.145 306.807 128.386 306.809 126.214C306.809 124.042 305.048 122.281 302.876 122.281C300.703 122.281 298.942 124.042 298.942 126.215ZM300.166 125.092C300.62 123.996 301.689 123.281 302.875 123.281C304.495 123.283 305.807 124.595 305.809 126.214C305.809 127.401 305.095 128.47 303.999 128.925C302.902 129.379 301.641 129.128 300.802 128.289C299.963 127.45 299.712 126.188 300.166 125.092Z" fill="black"/>
<path fill-rule="evenodd" clip-rule="evenodd" d="M320.97 148.314C321.579 149.784 323.013 150.742 324.604 150.742C326.775 150.739 328.534 148.979 328.537 146.808C328.537 145.217 327.578 143.783 326.108 143.174C324.638 142.566 322.947 142.902 321.822 144.028C320.697 145.153 320.361 146.845 320.97 148.314ZM321.894 145.685C322.348 144.589 323.418 143.875 324.604 143.875C326.223 143.878 327.535 145.189 327.537 146.808C327.537 147.995 326.822 149.064 325.726 149.519C324.63 149.973 323.368 149.722 322.529 148.882C321.69 148.043 321.439 146.782 321.894 145.685Z" fill="black"/>
<path d="M355.2 131.889C353.79 131.887 352.489 131.13 351.79 129.906C351.092 128.681 351.102 127.176 351.818 125.961L352.679 126.468C351.869 127.863 352.337 129.651 353.728 130.469C355.118 131.288 356.909 130.83 357.736 129.445L358.597 129.953C357.888 131.154 356.596 131.891 355.2 131.889Z" fill="black"/>
<path fill-rule="evenodd" clip-rule="evenodd" d="M288.642 159.02C288.642 161.192 290.403 162.953 292.575 162.953C294.746 162.95 296.506 161.19 296.508 159.019C296.508 156.847 294.747 155.086 292.575 155.086C290.402 155.086 288.641 156.847 288.642 159.02ZM289.865 157.897C290.319 156.8 291.389 156.086 292.575 156.086C294.194 156.088 295.506 157.4 295.508 159.019C295.508 160.206 294.794 161.275 293.698 161.729C292.601 162.183 291.34 161.932 290.501 161.093C289.662 160.255 289.411 158.993 289.865 157.897Z" fill="black"/>
<path fill-rule="evenodd" clip-rule="evenodd" d="M380.858 160.525C381.467 161.995 382.902 162.953 384.493 162.953C386.664 162.95 388.423 161.19 388.425 159.019C388.425 157.428 387.467 155.994 385.997 155.385C384.527 154.777 382.835 155.113 381.71 156.238C380.586 157.364 380.249 159.055 380.858 160.525ZM381.782 157.896C382.236 156.8 383.306 156.086 384.493 156.086C386.112 156.088 387.423 157.4 387.425 159.019C387.426 160.206 386.711 161.275 385.615 161.729C384.518 162.184 383.257 161.932 382.418 161.093C381.579 160.254 381.328 158.993 381.782 157.896Z" fill="black"/>
<path d="M325.581 160.82C319.54 171.718 314.374 183.078 310.135 194.795C309.403 196.817 308.703 199.08 309.54 201.061C310.324 202.915 312.238 203.99 314.042 204.885C319.511 207.596 325.169 209.906 330.973 211.798C334.811 213.048 339.067 214.1 342.794 212.551C346.347 211.076 348.579 207.587 350.504 204.256C356.48 193.91 361.688 183.139 366.084 172.028" fill="white"/>
<path d="M325.15 160.567C320.684 168.645 316.688 176.973 313.182 185.511C311.598 189.376 309.321 193.705 308.758 197.876C308.293 201.317 310.242 203.436 313.11 204.97C316.896 206.935 320.801 208.661 324.802 210.14C328.675 211.624 332.771 213.284 336.925 213.723C345.568 214.636 349.395 207.359 353.025 200.815C358.145 191.562 362.667 181.99 366.566 172.16C366.804 171.562 365.837 171.303 365.602 171.894C362.544 179.597 359.101 187.14 355.284 194.496C353.5 197.929 351.655 201.341 349.682 204.67C347.73 207.965 345.349 211.418 341.445 212.47C337.43 213.552 333.153 212.028 329.37 210.735C325.368 209.367 321.439 207.797 317.597 206.03C316.005 205.348 314.451 204.583 312.94 203.738C310.233 202.124 309.241 199.973 309.992 196.878C311.056 193.23 312.385 189.664 313.969 186.209C317.488 177.602 321.51 169.208 326.013 161.072C326.324 160.508 325.461 160.003 325.15 160.567L325.15 160.567Z" fill="black"/>
<path d="M346.778 209.606C345.593 208.849 344.903 207.516 344.968 206.111C345.033 204.706 345.843 203.443 347.093 202.798C348.342 202.152 349.841 202.224 351.024 202.984L350.485 203.826C349.603 203.26 348.486 203.208 347.555 203.689C346.624 204.17 346.02 205.111 345.971 206.158C345.922 207.205 346.435 208.199 347.317 208.765L346.778 209.606Z" fill="black"/>
<path fill-rule="evenodd" clip-rule="evenodd" d="M320.97 192.041C321.579 193.511 323.013 194.469 324.604 194.468C326.775 194.465 328.534 192.706 328.537 190.535C328.537 188.944 327.578 187.51 326.108 186.901C324.638 186.292 322.947 186.629 321.822 187.754C320.697 188.879 320.361 190.571 320.97 192.041ZM321.894 189.412C322.348 188.316 323.418 187.601 324.604 187.602C326.223 187.604 327.535 188.916 327.537 190.535C327.537 191.721 326.822 192.791 325.726 193.245C324.63 193.699 323.368 193.448 322.529 192.609C321.69 191.77 321.439 190.508 321.894 189.412Z" fill="black"/>
<path fill-rule="evenodd" clip-rule="evenodd" d="M352.611 172.175C352.611 174.348 354.372 176.109 356.544 176.109C358.716 176.106 360.476 174.347 360.478 172.175C360.478 170.003 358.717 168.242 356.545 168.242C354.372 168.242 352.611 170.003 352.611 172.175ZM353.611 172.176C353.611 170.556 354.924 169.242 356.544 169.242V169.242C358.164 169.244 359.476 170.556 359.478 172.175C359.478 173.795 358.165 175.109 356.545 175.109C354.925 175.109 353.611 173.796 353.611 172.176Z" fill="black"/>
<path d="M431.893 37.8764C430.277 35.6743 428.078 33.9671 425.544 32.947C425.305 32.8125 425.002 32.8919 424.86 33.1264C423.457 35.9855 422.023 38.8255 421.627 42.0226H422.627C422.53 38.8053 422.042 35.6373 422.513 32.4242C422.578 32.159 422.425 31.8892 422.164 31.8091C419.155 31.0587 416.27 29.8751 413.601 28.2955L413.349 29.2272C416.668 28.9994 420.066 29.1926 423.278 28.1915C423.539 28.1113 423.692 27.8416 423.627 27.5765C423.171 24.1234 422.968 20.6415 423.021 17.1587L422.039 17.2917C423.022 20.2429 424.095 23.1596 425.259 26.0417C425.304 26.1891 425.412 26.3085 425.555 26.3665C425.698 26.4246 425.859 26.415 425.994 26.3405C429.174 24.6778 431.665 21.8021 434.544 19.6991L433.86 19.015C432.083 22.4102 430.133 25.7113 428.015 28.9051C427.403 29.9024 426.948 30.3016 427.293 31.4529C428.025 33.8913 429.824 36.1625 431.03 38.3811C431.337 38.9467 432.201 38.4425 431.893 37.8764C431.278 36.7447 430.629 35.6342 429.99 34.5162C429.484 33.6321 428.352 32.2182 428.258 31.1871C428.159 30.1069 428.999 29.2149 429.601 28.2386C431.46 25.4238 433.169 22.5135 434.723 19.5198C434.916 19.1179 434.483 18.5117 434.039 18.8357C431.159 20.9397 428.666 23.8163 425.489 25.477L426.223 25.7758C425.062 22.8905 423.989 19.9738 423.003 17.0258C422.931 16.7913 422.699 16.6435 422.456 16.6764C422.213 16.7094 422.029 16.9134 422.021 17.1588C421.973 20.7309 422.188 24.3017 422.663 27.8423L423.012 27.2273C419.889 28.2007 416.577 28.0057 413.349 28.2273C413.126 28.234 412.935 28.3852 412.877 28.5996C412.819 28.814 412.908 29.0411 413.096 29.159C415.84 30.7838 418.805 32.0014 421.898 32.7734L421.549 32.1584C421.064 35.4667 421.527 38.7065 421.627 42.0227C421.637 42.2917 421.858 42.5046 422.127 42.5046C422.396 42.5046 422.617 42.2917 422.627 42.0227C422.999 39.019 424.407 36.3139 425.723 33.6311L425.039 33.8105C427.421 34.7494 429.495 36.3318 431.029 38.3811C431.381 38.9174 432.247 38.4169 431.893 37.8764Z" fill="black"/>
<path d="M557.949 243.922C556.333 241.72 554.134 240.013 551.6 238.992C551.361 238.858 551.058 238.937 550.916 239.172C549.158 242.863 547.447 247.02 547 251.108H548C547.826 246.887 548.017 242.658 548.57 238.47C548.636 238.204 548.482 237.934 548.22 237.855C545.318 237.061 542.272 236.979 539.657 235.352L539.405 236.283C542.161 235.996 545.774 236.077 548.183 234.541C548.336 234.452 548.431 234.288 548.43 234.11C548.092 230.425 548.304 226.66 548.255 222.963L547.273 223.096C548.488 226.619 550.218 229.933 551.645 233.369C551.729 233.628 551.996 233.779 552.26 233.718C554.365 233.417 556.32 232.455 558.416 232.063L557.929 231.227C556.91 232.136 555.948 233.112 554.98 234.076C554.472 234.582 553.238 235.409 553.033 236.136C552.828 236.865 553.621 238.104 553.927 238.714C554.901 240.658 556.051 242.514 557.086 244.426C557.392 244.993 558.256 244.488 557.949 243.922C557.129 242.405 556.249 240.922 555.426 239.407C555.012 238.647 553.927 236.979 554.094 236.389C554.273 235.755 555.825 234.644 556.299 234.176C557.066 233.418 557.831 232.652 558.636 231.934C559.04 231.575 558.601 231.014 558.15 231.099C556.054 231.491 554.1 232.452 551.994 232.754L552.61 233.103C551.183 229.668 549.452 226.351 548.237 222.83C548.165 222.596 547.933 222.448 547.69 222.481C547.447 222.514 547.263 222.718 547.255 222.963C547.298 226.212 547.241 229.465 547.353 232.713C547.361 232.942 547.496 233.689 547.378 233.869C547.095 234.301 545.445 234.476 544.97 234.569C543.135 234.93 541.263 235.089 539.405 235.283C539.183 235.29 538.992 235.441 538.934 235.656C538.876 235.87 538.964 236.097 539.153 236.215C541.849 237.893 544.956 237.999 547.955 238.819L547.605 238.204C547.032 242.48 546.83 246.797 547 251.108C547.01 251.377 547.231 251.59 547.5 251.59C547.769 251.59 547.99 251.377 548 251.108C548.425 247.221 550.111 243.18 551.779 239.677L551.095 239.856C553.477 240.795 555.551 242.377 557.086 244.427C557.437 244.963 558.303 244.462 557.949 243.922Z" fill="black"/>
<path d="M73.7303 169.145C72.1139 166.943 69.9149 165.236 67.381 164.216C67.1418 164.082 66.8395 164.161 66.6969 164.395C65.3868 166.957 63.7995 169.224 63.423 172.135H64.423C64.3372 169.287 63.9179 166.539 64.3506 163.693C64.4157 163.428 64.2624 163.158 64.0013 163.078C61.2977 162.392 58.7124 161.304 56.3323 159.849L56.0799 160.781C58.8203 160.592 61.4577 160.6 64.0988 159.757C64.3593 159.676 64.5122 159.407 64.448 159.142C64.0347 155.615 64.1672 152.046 64.8407 148.56H63.8764C64.8259 151.655 65.1948 154.895 66.3372 157.933C66.4155 158.195 66.6868 158.349 66.9522 158.282C69.317 157.635 71.6312 156.815 73.8762 155.83L73.1921 155.146C72.3393 156.702 71.3063 158.152 70.1144 159.466C69.7191 159.932 68.5426 160.828 68.3771 161.469C68.1629 162.298 68.9904 163.404 69.3799 164.057C70.5067 165.945 71.7995 167.724 72.8667 169.65C73.1787 170.213 74.0427 169.709 73.7302 169.145C72.7706 167.414 71.6392 165.797 70.5941 164.118C70.2697 163.598 69.9597 163.076 69.6697 162.536C69.0635 161.405 69.2431 162.267 69.5016 161.674C69.8867 160.791 71.1484 159.805 71.761 159.038C72.6401 157.99 73.409 156.856 74.0555 155.651C74.1621 155.454 74.1268 155.211 73.9688 155.053C73.8109 154.895 73.5678 154.86 73.3714 154.967C71.2036 155.913 68.9692 156.699 66.6864 157.318L67.3015 157.667C66.1591 154.629 65.7902 151.389 64.8407 148.294C64.7077 147.861 63.9599 147.778 63.8764 148.294C63.17 151.956 63.0375 155.705 63.4837 159.407L63.8329 158.792C61.2984 159.436 58.6948 159.768 56.0799 159.781C55.8579 159.788 55.6665 159.939 55.6084 160.153C55.5503 160.368 55.6393 160.595 55.8275 160.713C58.281 162.214 60.9471 163.336 63.7355 164.042L63.3863 163.427C62.9397 166.365 63.3343 169.19 63.423 172.135C63.4331 172.404 63.6539 172.616 63.923 172.616C64.1921 172.616 64.4129 172.404 64.423 172.135C64.7713 169.442 66.3534 167.26 67.5604 164.9L66.8763 165.079C69.2581 166.018 71.3322 167.6 72.8668 169.65C73.2178 170.186 74.0841 169.686 73.7303 169.145Z" fill="black"/>
<path d="M156.956 25.2075C155.34 23.0055 153.141 21.2983 150.607 20.2782C150.368 20.1441 150.065 20.2234 149.923 20.4575C148.612 23.0195 147.025 25.2869 146.649 28.1973H147.649C147.563 25.3493 147.144 22.6013 147.576 19.7554C147.642 19.4901 147.488 19.22 147.227 19.1403C144.07 18.2248 140.743 17.7133 137.931 15.9119L137.679 16.8436C140.912 16.624 144.196 16.7906 147.324 15.8191C147.585 15.7386 147.738 15.4692 147.674 15.2041C147.26 11.6778 147.393 8.10882 148.066 4.62284H147.102C148.052 7.71748 148.421 10.9573 149.563 13.9954C149.641 14.2578 149.913 14.4119 150.178 14.3446C152.543 13.6975 154.857 12.8779 157.102 11.8926L156.418 11.2085C155.565 12.7645 154.532 14.2146 153.34 15.529C152.945 15.9943 151.768 16.8902 151.603 17.5311C151.389 18.3607 152.216 19.4664 152.606 20.119C153.733 22.0072 155.025 23.7868 156.093 25.7122C156.405 26.2752 157.269 25.7714 156.956 25.2075C155.996 23.4762 154.865 21.8595 153.82 20.181C153.496 19.6601 153.185 19.1389 152.896 18.5983C152.289 17.4679 152.469 18.3294 152.727 17.7365C153.112 16.8531 154.374 15.8671 154.987 15.1001C155.866 14.053 156.635 12.918 157.281 11.7132C157.388 11.5169 157.353 11.2738 157.195 11.1158C157.037 10.9578 156.794 10.9226 156.597 11.0291C154.429 11.9752 152.195 12.761 149.912 13.3803L150.527 13.7295C149.385 10.6914 149.016 7.45163 148.066 4.35697C147.933 3.92358 147.186 3.84026 147.102 4.35697C146.396 8.0185 146.263 11.7677 146.709 15.4699L147.059 14.8549C144.017 15.7992 140.821 15.6302 137.679 15.8436C137.457 15.8503 137.265 16.0015 137.207 16.2159C137.149 16.4304 137.238 16.6575 137.426 16.7754C140.315 18.6262 143.716 19.1636 146.961 20.1046L146.612 19.4895C146.165 22.4274 146.56 25.2527 146.649 28.1973C146.659 28.4662 146.88 28.679 147.149 28.679C147.418 28.679 147.639 28.4662 147.649 28.1973C147.997 25.5048 149.579 23.3225 150.786 20.9622L150.102 21.1416C152.484 22.0805 154.558 23.663 156.092 25.7122C156.444 26.2486 157.31 25.7481 156.956 25.2075Z" fill="black"/>
<circle cx="337.044" cy="69.046" r="2.4366" fill="black"/>
<circle cx="124.857" cy="203.491" r="2.4366" fill="black"/>
<circle cx="215.063" cy="86.4132" r="2.4366" fill="black"/>
<circle cx="24.5899" cy="226.632" r="2.4366" fill="black"/>
<circle cx="538.758" cy="151.085" r="2.4366" fill="black"/>
<circle cx="511.174" cy="53.3585" r="2.4366" fill="black"/>
<circle cx="525.516" cy="346.687" r="2.4366" fill="black"/>
<circle cx="428.479" cy="118.541" r="3.25964" fill="black"/>
<circle cx="231.016" cy="7.75183" r="3.25964" fill="black"/>
<circle cx="119.161" cy="74.4706" r="3.25964" fill="black"/>
<circle cx="68.1112" cy="281.525" r="3.25964" fill="black"/>
<circle cx="42.2596" cy="109.103" r="3.25964" fill="black"/>
</svg>
