<svg width="600" height="620" viewBox="0 0 600 620" fill="none" xmlns="http://www.w3.org/2000/svg">
<rect opacity="0.01" width="600" height="620" fill="white"/>
<path d="M123.34 122.321C123.048 122.321 122.755 122.307 122.461 122.277C118.843 121.918 115.342 119.625 112.858 115.988C112.757 115.841 112.742 115.651 112.82 115.489C112.897 115.328 113.055 115.221 113.233 115.207C113.411 115.194 113.583 115.276 113.684 115.424C116.001 118.816 119.236 120.952 122.56 121.283C126.323 121.642 130.055 119.312 130.886 116.057C131.383 113.698 130.617 111.25 128.863 109.597C127.932 108.762 126.585 108.584 125.47 109.149C124.464 109.663 123.963 110.818 124.274 111.903C124.63 113.264 125.893 114.187 127.297 114.113C127.326 114.113 127.359 114.112 127.385 114.112C127.661 114.11 127.887 114.332 127.89 114.608C127.892 114.884 127.67 115.11 127.394 115.112C125.497 115.23 123.783 113.987 123.304 112.147C122.864 110.603 123.59 108.964 125.03 108.252C126.498 107.51 128.269 107.738 129.501 108.827C131.536 110.739 132.427 113.572 131.855 116.305C130.972 119.761 127.262 122.321 123.34 122.321Z" fill="black"/>
<path d="M61.204 325.972C60.5127 325.964 59.8427 325.732 59.2943 325.311C57.6389 323.955 56.8247 321.825 57.1542 319.71C57.7069 316.837 60.7806 314.627 64.0262 314.73C67.052 314.99 69.8104 316.568 71.5692 319.043C71.7377 319.262 71.6975 319.576 71.4795 319.745C71.2615 319.914 70.9478 319.874 70.7782 319.657C69.2002 317.415 66.7173 315.979 63.9872 315.73C61.1996 315.626 58.5995 317.493 58.1366 319.9C57.8924 321.633 58.5526 323.371 59.8862 324.504C60.5759 325.064 61.5417 325.132 62.3036 324.676C62.984 324.282 63.2829 323.456 63.0126 322.717C62.6922 321.756 61.733 321.159 60.7289 321.295C60.4547 321.314 60.2158 321.11 60.1913 320.836C60.181 320.704 60.2236 320.573 60.3098 320.473C60.396 320.372 60.5186 320.31 60.6508 320.299C62.1199 320.12 63.5099 321.007 63.9658 322.416C64.3824 323.605 63.8903 324.922 62.7958 325.546C62.3092 325.819 61.7619 325.966 61.204 325.972Z" fill="black"/>
<path d="M511.617 267.083C511.511 267.083 511.407 267.049 511.322 266.987C510.091 265.954 509.36 264.445 509.315 262.839C509.055 260.342 509.792 257.844 511.364 255.887C513.893 253.4 517.406 252.179 520.933 252.561C523.843 252.862 526.508 254.325 528.325 256.618C529.559 258.392 529.887 260.644 529.208 262.696C528.519 264.361 526.978 265.52 525.187 265.719C523.166 266.194 521.087 265.204 520.181 263.337C519.454 262.056 519.686 260.445 520.744 259.422C520.955 259.244 521.269 259.27 521.448 259.48C521.626 259.69 521.6 260.005 521.391 260.183C520.686 260.917 520.56 262.033 521.083 262.906C521.789 264.37 523.428 265.135 525.003 264.737C526.451 264.59 527.705 263.668 528.278 262.33C528.831 260.599 528.552 258.71 527.522 257.214C525.884 255.147 523.482 253.829 520.859 253.559C517.632 253.198 514.413 254.304 512.09 256.574C510.709 258.318 510.07 260.535 510.311 262.747C510.334 264.066 510.916 265.313 511.911 266.178C512.087 266.306 512.16 266.532 512.092 266.738C512.025 266.944 511.833 267.083 511.616 267.083L511.617 267.083Z" fill="black"/>
<path d="M303.468 412.772C299.784 412.629 296.455 410.533 294.733 407.273C293.132 404.371 292.59 400.728 293.123 396.446C293.145 396.269 293.26 396.117 293.425 396.047C293.589 395.978 293.778 396.001 293.921 396.109C294.063 396.216 294.138 396.392 294.116 396.569C293.61 400.638 294.112 404.077 295.608 406.791C297.222 409.884 300.441 411.805 303.93 411.758C305.749 411.742 307.47 410.935 308.646 409.547C309.617 408.241 309.976 406.578 309.629 404.988C309.173 403.217 307.677 401.907 305.861 401.689C304.592 401.432 303.306 402.042 302.703 403.187C302.58 403.434 302.28 403.533 302.033 403.41C301.786 403.287 301.686 402.987 301.809 402.74C302.59 401.197 304.303 400.362 305.999 400.699C308.238 400.983 310.07 402.614 310.612 404.805C311.013 406.676 310.584 408.629 309.436 410.16C308.088 411.778 306.1 412.726 303.994 412.756C303.82 412.767 303.643 412.772 303.468 412.772Z" fill="black"/>
<path fill-rule="evenodd" clip-rule="evenodd" d="M55.1689 148.704C55.1691 151.383 57.3414 153.556 60.0211 153.556C62.6996 153.552 64.8702 151.382 64.8731 148.703C64.8728 146.023 62.7003 143.851 60.0207 143.852C57.341 143.852 55.1688 146.024 55.1689 148.704ZM56.4621 147.23C57.0584 145.79 58.463 144.852 60.0211 144.852C62.1474 144.854 63.8706 146.577 63.8731 148.703C63.8733 150.261 62.9349 151.666 61.4955 152.262C60.056 152.859 58.3991 152.529 57.2973 151.428C56.1956 150.326 55.8659 148.669 56.4621 147.23Z" fill="black"/>
<path fill-rule="evenodd" clip-rule="evenodd" d="M583.539 206.641C583.539 209.321 585.711 211.493 588.391 211.493C591.069 211.49 593.24 209.319 593.243 206.641C593.243 203.961 591.071 201.789 588.391 201.789C585.711 201.789 583.539 203.961 583.539 206.641ZM584.539 206.642C584.539 204.514 586.263 202.789 588.391 202.789C590.517 202.791 592.241 204.514 592.243 206.641C592.243 208.768 590.519 210.493 588.392 210.493C586.264 210.493 584.539 208.769 584.539 206.642Z" fill="black"/>
<path d="M525.237 115.57C525.034 115.57 524.85 115.447 524.774 115.258C524.697 115.069 524.743 114.852 524.89 114.711C525.884 113.755 526.291 112.341 525.958 111.003C525.625 109.665 524.603 108.607 523.277 108.229C521.951 107.851 520.524 108.21 519.535 109.171C519.337 109.363 519.02 109.358 518.828 109.159C518.636 108.961 518.641 108.644 518.84 108.452C520.086 107.246 521.881 106.796 523.549 107.273C525.216 107.75 526.503 109.08 526.923 110.763C527.343 112.446 526.833 114.225 525.585 115.43C525.492 115.52 525.367 115.57 525.237 115.57Z" fill="black"/>
<path d="M156.67 21.7161C156.49 21.7164 156.323 21.6193 156.235 21.4622C155.38 19.954 155.396 18.1046 156.274 16.6105C157.153 15.1165 158.763 14.2048 160.496 14.2189C162.229 14.233 163.823 15.1708 164.678 16.679C164.812 16.9191 164.727 17.2228 164.488 17.3583C164.248 17.4938 163.944 17.4102 163.808 17.1712C163.13 15.9724 161.864 15.2268 160.486 15.2154C159.109 15.2039 157.831 15.9285 157.133 17.1158C156.436 18.3031 156.425 19.7726 157.105 20.97C157.17 21.0852 157.187 21.2217 157.152 21.3494C157.117 21.4771 157.032 21.5855 156.917 21.6507C156.842 21.6937 156.757 21.7163 156.67 21.7161Z" fill="black"/>
<path fill-rule="evenodd" clip-rule="evenodd" d="M335.694 243.944C336.252 245.293 337.568 246.173 339.028 246.173C341.021 246.171 342.636 244.556 342.639 242.564C342.639 241.104 341.76 239.787 340.411 239.228C339.062 238.669 337.509 238.978 336.477 240.01C335.444 241.042 335.135 242.595 335.694 243.944ZM336.419 242.563C336.419 241.122 337.587 239.954 339.028 239.953V239.953C340.469 239.955 341.637 241.123 341.639 242.564C341.639 244.005 340.47 245.173 339.029 245.173C337.587 245.173 336.419 244.005 336.419 242.563Z" fill="black"/>
<path fill-rule="evenodd" clip-rule="evenodd" d="M556.3 362.358C556.408 364.276 557.995 365.776 559.916 365.776C560.189 365.776 560.461 365.745 560.727 365.685C562.599 365.255 563.811 363.438 563.487 361.544C563.164 359.65 561.418 358.338 559.509 358.555C557.6 358.771 556.192 360.44 556.3 362.358ZM559.344 359.62C559.536 359.576 559.732 359.554 559.929 359.554C561.304 359.555 562.439 360.629 562.516 362.001C562.593 363.374 561.585 364.568 560.219 364.723C558.853 364.878 557.604 363.94 557.371 362.585C557.139 361.23 558.004 359.929 559.344 359.62Z" fill="black"/>
<path fill-rule="evenodd" clip-rule="evenodd" d="M464.199 13.3516C464.833 14.5012 466.04 15.2164 467.353 15.2194C467.626 15.2193 467.897 15.1885 468.163 15.1276C469.097 14.9173 469.909 14.3416 470.417 13.529C471.475 11.841 470.966 9.61422 469.279 8.55394C467.592 7.49367 465.365 8.0009 464.303 9.68722C463.605 10.7989 463.565 12.2019 464.199 13.3516ZM466.78 9.06319C466.972 9.01943 467.168 8.99716 467.365 8.99679C468.741 8.99769 469.877 10.0724 469.954 11.4463C470.031 12.8201 469.023 14.0155 467.656 14.1707C466.289 14.3259 465.038 13.387 464.805 12.0307C464.573 10.6745 465.439 9.37246 466.78 9.06319Z" fill="black"/>
<path fill-rule="evenodd" clip-rule="evenodd" d="M350.685 62.4697C350.685 64.4637 352.301 66.0801 354.295 66.0801C356.288 66.0781 357.903 64.4629 357.905 62.4697C357.905 60.4758 356.289 58.8594 354.295 58.8594C352.301 58.8594 350.685 60.4758 350.685 62.4697ZM351.685 62.4697C351.685 61.0281 352.853 59.8594 354.295 59.8594C355.736 59.8609 356.904 61.0287 356.905 62.4697C356.905 63.9114 355.737 65.0801 354.295 65.0801C352.853 65.0801 351.685 63.9114 351.685 62.4697Z" fill="black"/>
<path fill-rule="evenodd" clip-rule="evenodd" d="M87.3307 413.664C87.8897 415.013 89.2063 415.893 90.6666 415.893C92.6595 415.89 94.2744 414.275 94.2765 412.282C94.2765 410.822 93.3968 409.506 92.0476 408.947C90.6985 408.388 89.1456 408.697 88.113 409.73C87.0805 410.762 86.7718 412.315 87.3307 413.664ZM88.2546 411.283C88.6588 410.308 89.6108 409.672 90.6666 409.672V409.672C92.1074 409.674 93.2749 410.842 93.2765 412.282C93.2765 413.338 92.6404 414.29 91.6649 414.694C90.6895 415.098 89.5667 414.875 88.8202 414.128C88.0736 413.381 87.8504 412.258 88.2546 411.283Z" fill="black"/>
<path d="M10.61 253.712C9.31891 253.714 8.12495 253.027 7.47877 251.909C6.8326 250.791 6.8326 249.413 7.47877 248.295C8.12495 247.178 9.31891 246.49 10.61 246.492C10.8862 246.492 11.11 246.716 11.11 246.992C11.11 247.268 10.8862 247.492 10.61 247.492C9.67639 247.49 8.81289 247.987 8.34555 248.796C7.8782 249.604 7.8782 250.6 8.34555 251.408C8.81289 252.217 9.67639 252.714 10.61 252.712C10.8862 252.712 11.11 252.936 11.11 253.212C11.11 253.488 10.8862 253.712 10.61 253.712Z" fill="black"/>
<path d="M30.1701 462.951C28.828 462.949 27.5977 462.203 26.976 461.014C26.3543 459.824 26.444 458.388 27.2087 457.285C27.3662 457.058 27.6777 457.002 27.9045 457.16C28.1313 457.317 28.1875 457.629 28.03 457.855C27.2128 459.04 27.5089 460.663 28.692 461.483C29.8751 462.303 31.4985 462.01 32.321 460.829C32.4226 460.682 32.5953 460.6 32.7738 460.614C32.9523 460.629 33.1093 460.738 33.1854 460.9C33.2615 461.062 33.2451 461.253 33.1423 461.399C32.4665 462.373 31.3556 462.953 30.1701 462.951Z" fill="black"/>
<path fill-rule="evenodd" clip-rule="evenodd" d="M375.757 446.508C376.316 447.857 377.633 448.736 379.093 448.736C381.086 448.735 382.701 447.119 382.703 445.126C382.703 443.666 381.824 442.349 380.475 441.791C379.125 441.232 377.573 441.541 376.54 442.573C375.507 443.606 375.199 445.159 375.757 446.508ZM376.681 444.127C377.085 443.152 378.037 442.516 379.093 442.516C380.534 442.517 381.702 443.685 381.703 445.126C381.703 446.182 381.067 447.134 380.092 447.538C379.116 447.942 377.994 447.718 377.247 446.972C376.501 446.225 376.277 445.103 376.681 444.127Z" fill="black"/>
<path fill-rule="evenodd" clip-rule="evenodd" d="M70.6748 43.2038C70.6749 45.1974 72.2911 46.8135 74.2847 46.8135C76.2775 46.8111 77.8924 45.196 77.8945 43.2031C77.8943 41.2095 76.2779 39.5936 74.2843 39.5938C72.2907 39.5939 70.6747 41.2102 70.6748 43.2038ZM71.8734 42.205C72.2773 41.2297 73.229 40.5938 74.2847 40.5938C75.7251 40.5955 76.8925 41.7626 76.8945 43.2031C76.8947 44.2588 76.259 45.2106 75.2838 45.6147C74.3085 46.0188 73.1859 45.7956 72.4394 45.0492C71.6929 44.3029 71.4695 43.1803 71.8734 42.205Z" fill="black"/>
<path d="M258.516 178.077C273.29 180.358 287.787 180.776 294.584 180.211C302.893 179.52 309.104 179.116 313.664 172.155C316.779 167.402 315.617 158.132 307.802 147.736C299.307 136.435 267.258 96.8019 253.93 87.5845C252.825 86.7775 251.303 83.6063 250.033 82.07C248.64 80.3865 245.828 78.8419 245.173 78.9949L247.532 89.0163L247.846 92.8639C265.388 112.741 288.534 144.621 292.417 150.17C297.05 156.789 293.377 159.514 280.768 159.064C274.608 158.481 268.485 157.547 262.431 156.266L258.516 178.077Z" fill="white"/>
<path d="M258.383 178.555C267.112 179.902 275.918 180.684 284.747 180.898C290.866 181.03 297.273 180.961 303.278 179.654C308.307 178.56 313.359 175.394 315.108 170.297C317 164.783 314.749 158.434 312.143 153.556C309.777 149.129 306.533 145.208 303.435 141.277C300.192 137.161 296.902 133.083 293.565 129.042C285.655 119.436 277.574 109.942 269.018 100.903C265.288 96.8358 261.316 92.9975 257.124 89.4089C256.382 88.7935 255.617 88.2111 254.85 87.6269C253.503 86.411 252.384 84.9645 251.546 83.3553C250.256 81.3585 247.794 78.5275 245.173 78.4922C245.018 78.4945 244.872 78.5678 244.778 78.6912C244.684 78.8146 244.652 78.9743 244.691 79.1244L246.569 87.1022C246.786 87.9296 246.957 88.7682 247.081 89.6142C247.209 90.6892 246.995 92.1166 247.414 93.1128C247.799 94.0287 249.077 95.022 249.731 95.7801C250.498 96.6684 251.261 97.5605 252.019 98.4564C253.753 100.505 255.469 102.568 257.166 104.648C260.676 108.939 264.131 113.274 267.53 117.654C273.627 125.479 279.607 133.394 285.469 141.399C287.254 143.831 289.026 146.273 290.785 148.724C292.116 150.588 294.825 153.579 293.547 155.984C292.532 157.894 289.378 158.225 287.517 158.42C284.327 158.717 281.114 158.671 277.934 158.283C272.771 157.718 267.64 156.883 262.564 155.781C262.298 155.711 262.025 155.866 261.949 156.13L258.034 177.941C257.922 178.57 258.884 178.839 258.998 178.207L260.693 168.762L261.962 161.693C262.211 160.304 262.938 158.385 262.809 156.974C262.715 155.945 262.979 157.065 262.426 156.772C263.237 157.048 264.08 157.219 264.935 157.28C268.627 157.994 272.343 158.597 276.075 159.062C280.063 159.659 284.111 159.756 288.123 159.35C289.949 159.121 292.095 158.766 293.542 157.515C296.277 155.148 294.008 151.559 292.393 149.267C290.048 145.94 287.633 142.659 285.219 139.382C276.962 128.174 268.524 117.09 259.766 106.269C257.15 103.037 254.497 99.8367 251.805 96.6674C250.829 95.5231 248.989 94.09 248.339 92.785C247.931 91.9656 248.175 90.3706 248.067 89.4562C247.65 85.9028 246.474 82.343 245.654 78.8589L245.173 79.4911C248.619 79.5375 250.693 84.1043 252.337 86.4671C253.427 87.7746 254.699 88.9189 256.114 89.8649C259.49 92.7015 262.704 95.7271 265.738 98.9271C273.638 107.039 281.058 115.626 288.331 124.299C294.375 131.507 300.337 138.796 306.061 146.262C312.747 154.982 321.066 171.258 306.737 177.527C300.819 180.116 293.313 179.976 286.944 179.931C277.469 179.828 268.013 179.047 258.649 177.592C258.02 177.497 257.749 178.459 258.383 178.555Z" fill="black"/>
<path d="M213.781 135.167C212.503 131.703 212.989 119.107 219.299 116.413C223.211 114.743 230.216 118.898 235.36 118.543C242.513 118.049 243.579 111.252 245.409 106.46C245.625 105.894 245.879 104.821 247.073 104.935C247.939 105.018 248.538 105.144 249.405 105.229C253.056 105.587 254.495 102.339 252.631 100.196C251.569 99.2952 250.209 98.8223 248.818 98.8688C248.423 98.8558 248.053 98.6771 247.797 98.3766C247.541 98.0761 247.424 97.6817 247.475 97.2904C248.003 92.83 247.742 88.3115 246.704 83.9416C245.025 75.6983 239.963 72.9784 234.468 72.9844C229.796 72.9895 223.096 76.4729 219.005 86.2301C214.934 95.9429 209.545 120.248 204.605 128.033C203.691 129.379 202.707 130.677 201.657 131.921C203.281 133.779 205.392 135.145 207.752 135.864C211.739 137.046 213.781 135.167 213.781 135.167Z" fill="white"/>
<path fill-rule="evenodd" clip-rule="evenodd" d="M207.61 136.343C208.478 136.609 209.379 136.748 210.286 136.756C211.669 136.817 213.028 136.384 214.12 135.534L214.367 135.307L214.251 134.993C213.026 131.677 213.463 119.448 219.496 116.873C221.502 116.017 224.503 116.847 227.678 117.726L227.679 117.727L227.704 117.733C230.321 118.459 233.025 119.208 235.396 119.042C241.813 118.599 243.555 113.43 245.092 108.87L245.092 108.869L245.11 108.817C245.364 108.066 245.612 107.331 245.876 106.638L245.944 106.453C246.218 105.687 246.431 105.367 247.025 105.433C247.455 105.474 247.818 105.525 248.182 105.578C248.55 105.631 248.92 105.684 249.356 105.727C251.031 106.031 252.718 105.257 253.579 103.789C254.227 102.491 254 100.927 253.009 99.8672C251.997 98.7032 249.901 98.377 248.821 98.3682C248.584 98.3656 248.359 98.2614 248.204 98.082C248.026 97.8805 247.942 97.6129 247.972 97.3457C248.508 92.8336 248.244 88.2625 247.194 83.8418C245.282 74.457 239.232 72.4844 234.486 72.4844H234.468C229.741 72.4893 222.735 76.041 218.545 86.0361C216.893 89.9775 215.038 96.2598 213.075 102.911C210.271 112.411 207.094 123.178 204.183 127.765C203.282 129.089 202.314 130.367 201.282 131.592L201.007 131.905L201.266 132.231C202.95 134.174 205.15 135.599 207.61 136.343ZM207.895 135.384C205.769 134.725 203.849 133.53 202.319 131.915V131.915C203.134 130.933 204.488 129.15 205.027 128.3C208.013 123.595 211.074 113.224 214.034 103.194L214.034 103.193C215.989 96.5697 217.836 90.3133 219.467 86.4229C223.467 76.8799 230.049 73.4893 234.469 73.4844H234.485C238.859 73.4844 244.438 75.3184 246.214 84.0411C247.241 88.3599 247.5 92.8259 246.978 97.2344C246.916 97.7829 247.09 98.3319 247.456 98.7452C247.798 99.1383 248.292 99.3653 248.813 99.3682C250.063 99.322 251.286 99.7327 252.254 100.523C252.971 101.276 253.145 102.395 252.69 103.33C252.01 104.427 250.719 104.985 249.454 104.73C249.034 104.689 248.678 104.639 248.323 104.588C247.945 104.533 247.568 104.48 247.121 104.437C246.091 104.378 245.18 105.1 245.002 106.116L244.942 106.28C244.672 106.988 244.418 107.74 244.159 108.508L244.145 108.55C242.637 113.022 241.079 117.646 235.327 118.044C233.114 118.192 230.489 117.468 227.946 116.764C224.598 115.835 221.434 114.959 219.103 115.953C212.637 118.713 212.001 130.922 213.195 134.982C212.576 135.39 210.813 136.249 207.895 135.384Z" fill="black"/>
<path d="M251.612 579.525C251.354 581.508 249.662 582.99 247.662 582.985H240.972C239.898 582.985 238.869 582.55 238.12 581.78C237.37 581.01 236.964 579.969 236.992 578.895C238.792 503.715 219.472 424.015 195.252 359.785C194.632 428.795 177.462 559.295 172.442 577.475C171.702 579.655 171.012 583.245 167.362 583.225C164.641 583.2 161.926 582.96 159.242 582.505C155.612 581.925 156.252 577.205 156.542 575.125C163.292 513.925 154.252 460.355 149.472 396.585C147.922 375.865 139.582 352.975 139.582 352.975C131.502 331.645 126.712 316.555 126.272 295.945C136.422 305.855 171.792 308.575 187.082 308.355C197.492 308.205 225.982 310.195 240.202 302.465C253.712 359.825 255.352 391.775 257.342 458.155C258.302 490.085 256.182 543.415 251.612 579.525Z" fill="white"/>
<path d="M251.13 579.392C250.418 582.757 247.42 582.485 244.793 582.485C242.521 582.485 239.389 583.031 238.063 580.737C237.046 578.978 237.55 576.357 237.575 574.379C237.602 572.266 237.613 570.153 237.608 568.04C237.597 563.95 237.528 559.86 237.401 555.77C236.858 539.118 235.477 522.503 233.264 505.989C228.841 473.358 221.891 441.12 212.478 409.565C207.513 392.728 201.932 376.091 195.735 359.652C195.662 359.418 195.431 359.271 195.187 359.304C194.944 359.336 194.76 359.54 194.753 359.785C194.449 391.514 191.666 423.245 188.527 454.8C185.464 485.574 181.851 516.32 177.326 546.916C176.012 555.801 174.712 564.723 172.86 573.516C172.616 574.675 172.373 575.841 172.057 576.983C171.761 578.275 171.301 579.523 170.689 580.698C169.083 583.436 165.745 582.767 163.044 582.504C160.26 582.233 157.278 582.257 156.854 578.868C156.773 576.982 156.904 575.092 157.246 573.235C157.851 567.488 158.328 561.729 158.677 555.959C161.436 510.595 156.009 465.403 151.947 420.293C150.929 408.987 150.54 397.522 148.729 386.308C147.224 377.305 145.088 368.418 142.337 359.714C140.502 353.796 138.218 348.057 136.153 342.218C132.548 332.495 129.867 322.455 128.147 312.229C127.344 306.835 126.885 301.397 126.772 295.945L125.919 296.299C130.611 300.751 137.495 302.729 143.614 304.248C151.855 306.195 160.237 307.485 168.682 308.108C175.6 308.695 182.489 308.808 189.424 308.851C197.37 308.899 205.306 309.132 213.247 308.7C222.392 308.203 232.234 307.255 240.455 302.897L239.72 302.598C243.853 320.182 247.465 337.893 250.028 355.778C252.427 372.516 253.877 389.366 254.824 406.244C256.91 443.374 257.717 480.52 256.033 517.68C255.097 538.333 253.693 559.006 251.112 579.525C251.032 580.162 252.033 580.156 252.112 579.525C256.682 543.189 258.331 506.222 258.05 469.613C257.903 450.525 257.104 431.404 256.148 412.341C255.296 395.345 254.025 378.367 251.812 361.49C249.097 341.597 245.383 321.853 240.685 302.332C240.641 302.184 240.533 302.064 240.39 302.005C240.246 301.947 240.085 301.958 239.95 302.034C232.492 305.987 223.618 307.012 215.319 307.574C207.458 308.107 199.582 307.981 191.71 307.876C177.076 307.679 162.566 307.228 148.167 304.254C140.908 302.755 132.188 300.869 126.626 295.592C126.481 295.455 126.269 295.415 126.084 295.492C125.9 295.568 125.778 295.746 125.772 295.945C126.024 306.465 127.543 316.916 130.298 327.071C132.759 336.144 136.164 344.859 139.311 353.702C141.558 360.113 143.47 366.636 145.042 373.245C147.782 384.527 148.866 395.798 149.823 407.338C153.708 454.179 160.046 501.028 158.078 548.132C157.833 554.002 157.461 559.864 156.963 565.72C156.722 568.542 156.458 571.364 156.146 574.18C155.831 575.894 155.756 577.643 155.922 579.378C156.528 582.975 159.543 583.135 162.647 583.462C166.358 583.854 170.113 584.398 171.904 580.51C173.212 577.672 173.724 574.384 174.317 571.337C175.144 567.082 175.859 562.806 176.547 558.527C181.2 529.568 184.695 500.4 187.825 471.242C191.43 437.66 194.579 403.926 195.551 370.151C195.651 366.697 195.718 363.241 195.753 359.785L194.77 359.918C206.872 391.926 216.606 424.779 223.893 458.213C231.502 493.385 236.27 529.302 236.592 565.318C236.613 567.736 236.614 570.153 236.594 572.57C236.575 574.847 236.194 577.373 236.54 579.621C236.906 581.871 238.864 583.514 241.143 583.485C244.948 583.696 251.062 584.537 252.095 579.658C252.228 579.03 251.264 578.762 251.13 579.392Z" fill="black"/>
<path d="M249.955 582.79C249.636 585.834 251.488 589.591 253.223 592.113C254.743 594.282 256.97 595.855 259.524 596.561C262.276 597.286 265.11 597.657 267.956 597.665C270.209 597.671 272.565 597.547 274.576 598.563C276.035 599.281 277.149 600.548 277.675 602.086C278.253 603.724 277.608 606.018 275.882 606.207C274.313 606.378 272.069 606.482 271.08 606.482C261.204 606.794 254.694 606.529 246.085 606.311C245.608 606.351 245.132 606.227 244.735 605.958C244.215 605.506 244.268 604.703 244.297 604.015C244.409 603.012 244.156 602.002 243.583 601.17C242.958 600.34 241.789 600.151 240.933 600.74C239.583 601.927 240.69 605.501 239 606.114C238.726 606.214 235.672 606.145 233.782 606.069C233.037 606.037 232.43 605.458 232.364 604.714C232.006 600.826 232.324 595.931 234.065 592.551C234.931 590.871 236.229 589.45 237.173 587.812C238.223 586.322 238.767 584.534 238.723 582.711L249.955 582.79Z" fill="black"/>
<path d="M169.075 583.021C168.757 586.064 170.608 589.822 172.343 592.343C173.863 594.513 176.091 596.085 178.644 596.791C181.396 597.516 184.23 597.887 187.076 597.895C189.329 597.901 191.685 597.777 193.696 598.793C195.155 599.511 196.269 600.778 196.795 602.317C197.373 603.954 196.728 606.248 195.002 606.437C193.433 606.609 191.189 606.712 190.2 606.712C180.324 607.024 173.814 606.759 165.206 606.541C164.728 606.582 164.252 606.457 163.856 606.188C163.336 605.736 163.388 604.934 163.417 604.245C163.529 603.242 163.276 602.232 162.703 601.401C162.078 600.571 160.909 600.381 160.053 600.97C158.703 602.157 159.81 605.731 158.12 606.344C157.846 606.444 154.793 606.376 152.903 606.299C152.157 606.268 151.55 605.688 151.485 604.945C151.126 601.056 151.444 596.161 153.185 592.781C154.051 591.101 155.349 589.68 156.293 588.043C157.359 586.206 157.91 584.116 157.889 581.992L163.128 583.234L169.075 583.021Z" fill="black"/>
<circle cx="241.019" cy="93.8749" r="1.35151" fill="black"/>
<path d="M236.843 89.9744C237.273 88.9925 238.08 88.2248 239.083 87.844C240.085 87.4631 241.198 87.5011 242.172 87.9494C243.067 88.3107 243.456 86.8604 242.571 86.503C239.88 85.3876 236.789 86.5826 235.548 89.2173C235.13 90.0828 236.423 90.8444 236.843 89.9744V89.9744Z" fill="black"/>
<path d="M221.471 87.9929C221.002 87.1025 220.104 86.52 219.1 86.4555C216.758 86.2201 215.029 88.3606 214.573 89.1692C213.789 90.6223 213.414 92.2613 213.49 93.9107C213.521 95.5374 214.345 97.0465 215.696 97.9531C217.062 98.7828 219.891 99.0579 221.024 97.3963L221.471 87.9929Z" fill="white"/>
<path d="M221.903 87.7389C220.887 85.7884 218.359 85.553 216.568 86.5295C214.516 87.794 213.206 89.9759 213.054 92.3813C212.776 94.7934 213.496 97.4646 215.85 98.5947C217.676 99.5673 219.925 99.2229 221.377 97.7482C221.795 97.2623 221.09 96.5518 220.67 97.0411C219.528 98.2021 217.755 98.4664 216.324 97.6891C214.134 96.6571 213.736 94.0802 214.121 91.9437C214.306 90.7337 214.806 89.5936 215.57 88.6375C216.828 87.168 219.776 85.8179 221.039 88.2436C221.336 88.8146 222.2 88.3096 221.903 87.7389V87.7389Z" fill="black"/>
<path d="M219.637 89.4157C218.347 88.9786 216.92 89.385 216.053 90.4366C215.208 91.452 214.947 92.8315 215.361 94.0858C215.576 94.6877 216.543 94.4283 216.326 93.82C215.965 92.9175 216.144 91.8888 216.788 91.1611C217.432 90.4334 218.432 90.1312 219.371 90.38C219.634 90.4425 219.898 90.2861 219.97 90.0262C220.042 89.7663 219.894 89.4963 219.637 89.4157V89.4157Z" fill="black"/>
<path d="M250.671 78.5744C249.129 78.9496 247.548 79.1409 245.961 79.1444C236.491 79.4244 227.511 80.0443 218.501 86.1744C215.806 83.0826 214.67 78.9306 215.414 74.8977C216.158 70.8647 218.701 67.3914 222.321 65.4644C222.054 65.1407 221.909 64.7338 221.911 64.3144C221.906 63.301 222.713 62.4704 223.727 62.4459C224.74 62.4214 225.586 63.212 225.631 64.2244C231.617 62.8744 237.759 65.7399 240.571 71.1944C242.771 71.5644 244.971 71.9444 247.171 72.3144C248.214 72.4506 249.246 72.6577 250.261 72.9344C251.651 73.3544 253.021 74.0944 253.171 75.2344C253.381 76.9044 252.521 78.0043 250.671 78.5744Z" fill="black"/>
<path d="M237.232 109.295C238.108 109.211 238.973 109.538 239.575 110.18C239.988 110.581 240.886 112.096 239.586 112.06C239.07 112.046 238.439 111.491 238.026 111.22C237.472 110.856 235.815 109.798 237.232 109.295C237.834 109.081 237.574 108.114 236.966 108.33C236.333 108.506 235.858 109.032 235.747 109.68C235.636 110.327 235.909 110.981 236.448 111.357C237.34 112.068 238.819 113.278 240.046 113.042C241.403 112.781 241.483 111.234 240.895 110.226C240.078 108.87 238.536 108.126 236.966 108.33C236.333 108.442 236.601 109.405 237.232 109.295Z" fill="black"/>
<path d="M226.453 188.386C226.272 186.582 226.86 184.785 228.072 183.436C229.284 182.088 231.008 181.312 232.821 181.3C233.88 181.323 234.936 181.406 235.984 181.548C241.242 182.167 245.227 183.489 250.467 184.588C254.839 185.504 256.939 184.47 257.726 181.683C259.254 176.27 261.69 163.667 262.926 159.116C263.508 156.974 264.621 153.125 262.162 150.597C260.965 149.367 258.674 148.683 257.032 148.183C243.197 144.116 229.6 139.279 216.305 133.695C215.897 133.527 215.43 133.576 215.066 133.828C213.53 134.864 210.46 136.142 207.841 135.081C204.421 133.695 202.792 132.33 201.623 130.689C201.398 130.369 201.043 130.164 200.653 130.13C200.263 130.096 199.878 130.237 199.602 130.515C193.516 136.722 184.264 143.03 177.045 149.242C133.09 184.952 114.212 244.545 123.783 292.063C127.645 305.16 169.958 308.607 187.084 308.362C199.114 308.191 235.274 310.869 245.685 298.108C256.431 285.427 254.779 268.023 249.983 250.579C244.379 230.195 228.413 209.433 226.453 188.386Z" fill="black"/>
<path d="M181.543 255.803C185.639 262.53 190.12 269.808 195.252 277.729C200.643 286.051 215.148 304.068 223.326 309.674C232.593 316.028 259.79 325.683 298.008 327.204C301.915 327.683 303.456 328.151 312.543 334.731C316.263 337.425 323.744 340.271 327.922 340.596L337.338 341.708C338.696 341.814 344.019 342.357 345.643 341.744C346.625 341.471 347.156 339.25 342.962 338.831C330.453 337.581 330.92 335.648 330.92 335.648C331.076 334.588 334.48 335.17 335.536 335.281C339.108 335.657 341.524 335.814 344.983 336.232C347.665 336.555 349.949 336.819 350.187 335.227C350.248 334.303 349.779 333.86 347.973 333.639C342.896 333.016 338.423 332.635 333.385 331.749C332.577 331.592 332.108 330.68 332.684 330.115C333.724 329.195 345.373 331.402 349.201 331.744C349.801 331.798 351.028 331.856 351.377 330.863C351.51 330.468 351.469 330.035 351.265 329.671C351.06 329.308 350.711 329.049 350.303 328.958C349.308 328.694 347.415 328.403 346.27 328.232C341.885 327.579 337.654 327.379 333.251 326.87C332.892 326.854 332.595 326.584 332.545 326.228C332.496 325.872 332.707 325.531 333.048 325.418C334.185 325.122 341.977 325.954 345.84 326.122C346.553 326.185 347.268 326.035 347.896 325.692C349.015 325.12 348.838 323.773 347.865 323.037C347.257 322.724 346.592 322.536 345.91 322.484C339.722 321.589 328.392 321.691 322.846 320.775C322.548 320.725 322.332 320.466 322.335 320.164C322.339 319.863 322.561 319.609 322.859 319.565C325.061 319.245 326.7 319.508 329.84 319.033C332.675 318.603 333.543 318.135 333.448 317.186C333.319 315.898 331.581 315.763 330.961 315.707C328.522 315.526 326.071 315.61 323.65 315.957C321.587 316.208 319.275 316.734 316.944 317.229C312.111 318.255 306.296 316.566 300.071 315.173C273.313 308.482 248.977 297.328 241.117 291.508C231.77 284.587 225.684 274.207 220.26 263.92C216.237 256.292 212.583 249.004 209.205 241.773L181.543 255.803Z" fill="white"/>
<path fill-rule="evenodd" clip-rule="evenodd" d="M337.853 342.253C339.614 342.403 341.453 342.534 342.968 342.534C343.915 342.58 344.863 342.476 345.777 342.226C346.458 342.012 346.896 341.351 346.828 340.641C346.777 340.057 346.304 338.662 343.012 338.334C333.32 337.365 331.707 336.016 331.455 335.69C331.655 335.54 332.401 335.393 334.982 335.718C335.179 335.743 335.35 335.765 335.484 335.778C336.939 335.932 338.202 336.049 339.421 336.161L339.477 336.166C341.234 336.329 342.899 336.484 344.923 336.727L344.924 336.728C347.724 337.066 350.369 337.387 350.686 335.261C350.784 333.785 349.697 333.347 348.034 333.143C346.73 332.982 345.466 332.839 344.222 332.698L343.862 332.657C340.373 332.264 337.077 331.892 333.479 331.258C333.235 331.215 333.031 331.046 332.946 330.813C332.905 330.708 332.925 330.589 332.998 330.503C333.778 330.044 339.984 330.959 343.74 331.513L343.802 331.522C346.025 331.851 347.945 332.134 349.156 332.242C350.619 332.374 351.519 331.964 351.848 331.029C352.026 330.517 351.981 329.953 351.726 329.475C351.455 328.973 350.985 328.61 350.431 328.475C349.678 328.275 348.341 328.034 346.343 327.738C343.717 327.347 341.101 327.114 338.571 326.888L338.534 326.885L338.499 326.882C336.807 326.731 335.057 326.576 333.317 326.375C333.168 326.374 333.046 326.259 333.037 326.11C333.022 326.015 333.081 325.925 333.174 325.901C335.6 325.869 338.024 325.986 340.435 326.252C342.375 326.403 344.38 326.559 345.818 326.622C346.617 326.685 347.417 326.517 348.124 326.138C348.707 325.866 349.101 325.305 349.16 324.664C349.195 323.864 348.821 323.101 348.168 322.639C347.496 322.261 346.749 322.039 345.981 321.989C342.926 321.548 338.604 321.346 334.423 321.15L334.389 321.149C330.125 320.949 325.721 320.743 322.927 320.281C322.9 320.28 322.874 320.268 322.857 320.247C322.839 320.226 322.831 320.198 322.835 320.171C322.832 320.143 322.84 320.115 322.859 320.094C322.877 320.073 322.904 320.06 322.932 320.06C323.846 319.941 324.766 319.877 325.688 319.867C327.103 319.846 328.515 319.733 329.916 319.526C332.216 319.179 334.107 318.759 333.945 317.136C333.778 315.46 331.718 315.273 331.006 315.209C328.532 315.025 326.045 315.109 323.589 315.461C321.783 315.681 319.838 316.097 317.78 316.538L317.777 316.539L316.84 316.739C312.776 317.603 307.888 316.468 302.715 315.267L302.692 315.262C301.863 315.068 301.025 314.874 300.192 314.687C272.453 307.752 248.72 296.516 241.414 291.106C231.946 284.095 225.759 273.276 220.702 263.687C216.522 255.761 212.91 248.523 209.659 241.562L209.44 241.094L180.835 255.603L181.116 256.063C185.154 262.695 189.611 269.942 194.833 278.001C200.07 286.085 214.758 304.407 223.043 310.087C228.415 313.77 238.124 317.65 249.681 320.734C265.471 324.796 281.654 327.131 297.948 327.7C301.716 328.162 303.205 328.587 312.25 335.137C316.021 337.867 323.619 340.764 327.864 341.093L337.299 342.206L337.853 342.253ZM195.671 277.458C190.578 269.596 186.211 262.504 182.251 256.005L208.971 242.453C212.173 249.286 215.724 256.391 219.817 264.153C224.926 273.841 231.183 284.773 240.819 291.909C248.189 297.367 272.079 308.689 299.961 315.661C300.715 315.83 301.463 316.003 302.203 316.175L302.465 316.235L302.479 316.238C307.769 317.467 312.766 318.627 317.047 317.718L317.986 317.517C320.023 317.08 321.947 316.668 323.71 316.453C326.108 316.111 328.536 316.029 330.952 316.208C331.842 316.289 332.874 316.479 332.951 317.235C332.99 317.626 332.779 318.082 329.765 318.538C328.405 318.739 327.033 318.849 325.658 318.867C324.698 318.878 323.739 318.946 322.788 319.07C322.245 319.149 321.841 319.611 321.835 320.159C321.83 320.707 322.224 321.177 322.764 321.268C326.618 321.756 330.493 322.05 334.376 322.149L334.41 322.151C338.556 322.345 342.84 322.545 345.863 322.982C346.452 323.032 347.028 323.185 347.564 323.436C347.94 323.693 348.165 324.12 348.164 324.576C348.133 324.873 347.943 325.13 347.668 325.247C347.118 325.554 346.488 325.684 345.861 325.622C344.441 325.561 342.444 325.405 340.513 325.255C336.287 324.927 333.668 324.74 332.922 324.934C332.367 325.078 331.995 325.599 332.039 326.171C332.076 326.8 332.566 327.308 333.193 327.367C334.966 327.572 336.735 327.73 338.446 327.881C340.973 328.106 343.585 328.338 346.197 328.727L346.227 328.731C346.977 328.843 349.125 329.163 350.175 329.441C350.459 329.505 350.702 329.687 350.842 329.942C350.966 330.175 350.988 330.448 350.905 330.697C350.742 331.159 350.212 331.336 349.246 331.246C348.062 331.141 346.064 330.846 343.948 330.533C336.4 329.42 333.116 329.062 332.333 329.759C331.973 330.105 331.839 330.626 331.988 331.103C332.182 331.694 332.685 332.131 333.297 332.241C336.911 332.878 340.203 333.25 343.683 333.644L343.75 333.651L343.884 333.667C345.198 333.815 346.533 333.966 347.913 334.135C349.741 334.359 349.716 334.764 349.693 335.152L349.693 335.153C349.537 336.199 347.751 336.063 345.042 335.735C343.003 335.489 341.33 335.334 339.565 335.171L339.513 335.166L339.312 335.147C338.158 335.04 336.959 334.928 335.589 334.784L335.107 334.726L335.101 334.725C333.321 334.501 330.633 334.164 330.434 335.531C330.39 335.782 330.457 336.039 330.618 336.236C331.548 337.549 335.8 338.618 342.913 339.328C344.996 339.537 345.787 340.212 345.831 340.727C345.856 340.973 345.703 341.203 345.466 341.276C344.122 341.783 339.628 341.4 337.938 341.256L327.961 340.099C323.84 339.777 316.49 336.973 312.835 334.326C303.591 327.632 302.037 327.193 298.028 326.704C259.877 325.186 232.621 315.441 223.608 309.263C215.426 303.653 200.871 285.482 195.671 277.458Z" fill="black"/>
<path d="M160.011 231.598C164.561 239.068 168.891 246.738 173.694 254.048C175.163 256.285 176.99 257.744 179.794 257.366C183.198 256.907 186.602 254.755 189.644 253.279C193.295 251.506 196.902 249.646 200.464 247.696C203.387 246.097 207.122 244.592 209.398 242.074C211.609 239.629 210.682 236.847 209.702 234.05C208.245 229.892 206.781 225.737 205.31 221.584L195.387 193.42C195.174 192.818 194.208 193.077 194.423 193.686L203.857 220.465C205.484 225.082 207.123 229.695 208.738 234.316C209.724 237.138 210.519 239.874 207.938 242.096C206.211 243.396 204.362 244.526 202.417 245.47C198.606 247.612 194.741 249.652 190.821 251.591C188.722 252.63 186.609 253.638 184.481 254.616C181.837 255.832 178.508 257.616 175.901 255.274C174.264 253.803 173.228 251.373 172.106 249.531L168.532 243.664L160.874 231.093C160.54 230.544 159.675 231.046 160.011 231.598L160.011 231.598Z" fill="white"/>
<path d="M191.06 321.852C195.122 335.787 195.252 359.792 195.252 359.792C195.252 359.792 203.603 356.309 201.316 333.177" stroke="black" stroke-linecap="round" stroke-dasharray="6"/>
<path d="M131.77 306.984C151.765 314.18 172.926 317.588 194.17 317.033C227.166 316.053 229.262 313.204 229.262 313.204" stroke="black" stroke-linecap="round" stroke-dasharray="6"/>
<path fill-rule="evenodd" clip-rule="evenodd" d="M162.291 577.064C162.314 577.067 162.337 577.068 162.36 577.069H162.36C162.623 577.068 162.841 576.865 162.859 576.603C162.877 576.341 162.689 576.11 162.429 576.073C160.484 575.829 158.575 575.356 156.742 574.664C156.488 574.558 156.196 574.676 156.088 574.929C155.98 575.183 156.097 575.475 156.35 575.584C158.263 576.316 160.258 576.813 162.291 577.064ZM165.325 577.341C165.794 577.362 166.276 577.373 166.772 577.373C168.321 577.373 169.869 577.263 171.402 577.042C171.579 577.017 171.729 576.899 171.795 576.733C171.862 576.567 171.835 576.378 171.724 576.238C171.614 576.097 171.437 576.026 171.26 576.052C169.309 576.328 167.337 576.426 165.369 576.343C165.095 576.334 164.864 576.546 164.848 576.82C164.842 576.952 164.889 577.081 164.978 577.179C165.068 577.277 165.193 577.335 165.325 577.341Z" fill="black"/>
<path fill-rule="evenodd" clip-rule="evenodd" d="M242.602 577.184C242.617 577.185 242.631 577.186 242.646 577.186V577.186C242.913 577.185 243.132 576.974 243.143 576.707C243.155 576.44 242.954 576.211 242.688 576.188C240.734 576.045 238.803 575.672 236.936 575.077C236.676 574.983 236.389 575.116 236.294 575.375C236.199 575.635 236.333 575.922 236.592 576.017C238.541 576.647 240.559 577.039 242.602 577.184ZM245.14 576.804C245.141 577.08 245.366 577.303 245.642 577.302H245.646C247.679 577.285 249.705 577.079 251.7 576.685C251.97 576.631 252.147 576.368 252.093 576.098C252.039 575.827 251.777 575.651 251.506 575.704C249.573 576.086 247.608 576.286 245.638 576.302C245.362 576.303 245.139 576.528 245.14 576.804Z" fill="black"/>
<path d="M439.171 566.686C436.731 574.946 431.521 589.636 429.071 597.896C428.921 598.416 428.741 599.046 428.531 599.726C428.08 601.527 427.351 603.248 426.371 604.826C425.411 605.956 423.984 606.58 422.503 606.518C421.021 606.455 419.652 605.713 418.791 604.506C417.621 602.646 418.261 598.996 418.731 596.886C418.861 596.286 418.971 595.806 419.031 595.536C421.731 583.286 425.351 566.516 428.051 554.266L439.171 566.686Z" fill="white"/>
<path fill-rule="evenodd" clip-rule="evenodd" d="M422.461 607.017C422.566 607.022 422.67 607.025 422.774 607.025C424.324 607.043 425.795 606.346 426.763 605.135C427.802 603.519 428.561 601.739 429.008 599.871C429.217 599.194 429.397 598.567 429.55 598.036C430.763 593.947 432.688 588.172 434.552 582.587L434.562 582.556C436.459 576.869 438.42 570.99 439.65 566.825L439.729 566.558L427.772 553.203L427.562 554.156C426.212 560.281 424.632 567.537 423.052 574.793L422.989 575.082C421.43 582.24 419.874 589.383 418.542 595.427L418.242 596.775C417.38 600.649 417.421 603.265 418.367 604.77C419.297 606.126 420.817 606.96 422.461 607.017ZM424.305 573.741C425.711 567.284 427.106 560.879 428.329 555.324L438.612 566.81C437.38 570.947 435.461 576.702 433.603 582.271C431.737 587.863 429.809 593.648 428.585 597.771L428.579 597.792C428.432 598.303 428.257 598.916 428.052 599.579C427.6 601.314 426.902 602.975 425.98 604.513C425.148 605.559 423.85 606.123 422.518 606.018C421.199 605.973 419.976 605.314 419.214 604.237C418.426 602.984 418.428 600.547 419.219 596.989L419.519 595.642C420.869 589.517 422.449 582.261 424.029 575.006L424.029 575.005C424.121 574.583 424.213 574.162 424.305 573.741Z" fill="black"/>
<path d="M463.151 577.18C460.491 585.42 458.331 594.14 456.381 600.71C456.181 601.38 455.891 602.44 455.521 603.63C454.851 605.83 453.901 608.46 452.781 609.77C450.871 612.02 446.611 610.86 445.431 608.78C444.371 606.93 444.681 604.14 444.971 602.49C445.051 602.09 445.121 601.76 445.171 601.53C446.941 593.51 448.961 583.86 451.111 573.75L463.151 577.18Z" fill="white"/>
<path fill-rule="evenodd" clip-rule="evenodd" d="M449.298 611.472C449.491 611.489 449.679 611.499 449.865 611.499C451.118 611.549 452.327 611.035 453.161 610.099C454.117 608.98 455.044 606.913 455.999 603.781C456.238 603.009 456.445 602.292 456.616 601.699L456.626 601.666L456.861 600.855C457.596 598.377 458.361 595.597 459.171 592.652C460.483 587.877 461.971 582.464 463.627 577.336L463.786 576.844L450.733 573.125L449.039 581.112C447.482 588.464 446.01 595.408 444.683 601.427C444.632 601.658 444.562 601.991 444.479 602.406C443.968 605.31 444.143 607.539 444.997 609.03C445.978 610.463 447.565 611.364 449.298 611.472ZM450.017 581.319L451.489 574.381L462.517 577.521C460.925 582.503 459.491 587.714 458.221 592.333L458.206 592.388C457.398 595.326 456.634 598.103 455.902 600.569L455.664 601.39C455.494 601.983 455.286 602.706 455.043 603.487C454.528 605.618 453.632 607.638 452.4 609.45C451.622 610.258 450.502 610.64 449.392 610.476C447.984 610.393 446.688 609.68 445.865 608.535C445.14 607.269 445.002 605.209 445.462 602.591C445.541 602.194 445.611 601.867 445.66 601.641C446.988 595.619 448.46 588.673 450.017 581.319Z" fill="black"/>
<path d="M525.461 573.489C527.341 581.949 529.891 593.185 531.231 599.925C531.331 600.445 531.451 601.065 531.611 601.735C531.926 603.655 532.694 605.472 533.851 607.035C535.617 608.95 538.595 609.088 540.531 607.345C542.181 605.505 541.611 601.375 541.451 600.145C541.421 599.915 541.391 599.685 541.361 599.445C540.231 590.295 538.881 578.425 537.581 567.445L525.461 573.489Z" fill="white"/>
<path fill-rule="evenodd" clip-rule="evenodd" d="M537.372 609.065H537.381C538.694 609.1 539.966 608.599 540.902 607.678C542.68 605.696 542.134 601.515 541.946 600.08L541.856 599.383C541.13 593.499 540.326 586.609 539.476 579.314C539.012 575.334 538.541 571.304 538.077 567.386L537.994 566.68L524.888 573.214L526.135 578.806C527.788 586.209 529.662 594.601 530.746 600.053L530.746 600.053C530.847 600.573 530.966 601.188 531.122 601.843C531.435 603.852 532.245 605.751 533.479 607.368C534.473 608.466 535.891 609.084 537.372 609.065ZM527.11 578.587L526.034 573.76L537.168 568.209C537.58 571.693 537.996 575.258 538.408 578.791L538.482 579.431C539.333 586.727 540.137 593.618 540.864 599.507L540.963 600.27C541.404 603.654 541.134 605.922 540.159 607.008C539.414 607.722 538.412 608.103 537.381 608.065H537.374C536.176 608.082 535.027 607.585 534.221 606.698C533.106 605.205 532.376 603.46 532.097 601.618C531.947 600.995 531.835 600.416 531.733 599.888L531.721 599.826C530.641 594.394 528.766 585.996 527.11 578.587Z" fill="black"/>
<path d="M498.961 579.566C500.551 587.156 502.011 592.656 503.201 598.656C503.411 599.706 503.871 602.046 504.491 604.326C504.877 606.051 505.517 607.709 506.391 609.246C508.081 611.666 510.711 611.286 512.411 610.226C514.331 609.036 514.331 606.006 514.101 603.916C514.021 603.086 513.901 602.416 513.861 602.056C512.971 594.876 512.051 586.956 511.011 578.016L498.961 579.566Z" fill="white"/>
<path fill-rule="evenodd" clip-rule="evenodd" d="M505.98 609.53C506.794 610.791 508.193 611.551 509.693 611.548C510.751 611.53 511.783 611.218 512.674 610.648C514.334 609.621 514.981 607.336 514.599 603.866C514.546 603.322 514.477 602.846 514.423 602.477C514.395 602.284 514.371 602.122 514.356 601.992C513.49 594.993 512.607 587.407 511.585 578.621L511.584 578.612L511.449 577.453L498.36 579.138L498.472 579.667C499.233 583.304 499.954 586.414 500.651 589.421C501.392 592.614 502.091 595.631 502.71 598.752L502.735 598.877C502.953 599.971 503.407 602.245 504.008 604.455C504.395 606.24 505.061 607.952 505.98 609.53ZM501.626 589.195C500.964 586.341 500.28 583.393 499.562 579.991L510.572 578.574L510.591 578.729L510.606 578.863C511.622 587.596 512.501 595.146 513.363 602.109C513.378 602.238 513.402 602.406 513.432 602.607L513.434 602.621C513.485 602.977 513.552 603.437 513.604 603.969C513.836 606.073 513.772 608.793 512.146 609.8C510.616 610.753 508.3 611.104 506.798 608.955C505.953 607.469 505.337 605.864 504.973 604.193C504.382 602.016 503.932 599.764 503.716 598.682L503.69 598.557C503.068 595.42 502.368 592.396 501.626 589.195Z" fill="black"/>
<path d="M440.194 156.071C441.083 152.982 444.251 149.67 446.633 147.511C447.645 148.223 448.997 148.217 450.002 147.495C450.848 146.665 451.178 145.442 450.864 144.299C450.499 143.136 449.679 142.17 448.592 141.619C447.46 140.987 446.067 141.053 445.001 141.791C443.514 142.884 443.631 144.568 444.883 145.875C442.222 149.438 437.49 151.077 433.05 150.832L437.039 154.617L440.194 156.071Z" fill="white"/>
<path fill-rule="evenodd" clip-rule="evenodd" d="M439.985 156.523C440.051 156.553 440.122 156.569 440.194 156.569L440.194 156.569C440.417 156.569 440.613 156.422 440.675 156.207C441.486 153.385 444.342 150.297 446.701 148.123C447.858 148.774 449.292 148.67 450.343 147.859C451.327 146.905 451.713 145.489 451.348 144.167C450.943 142.868 450.031 141.788 448.818 141.171C447.518 140.456 445.924 140.539 444.705 141.385C443.986 141.871 443.518 142.649 443.426 143.512C443.379 144.38 443.669 145.233 444.236 145.892C441.805 148.886 437.56 150.567 433.077 150.33C432.867 150.316 432.672 150.437 432.591 150.631C432.508 150.824 432.554 151.048 432.706 151.192L436.695 154.977C436.734 155.015 436.78 155.046 436.83 155.069L439.985 156.523ZM439.893 155.379L437.323 154.195L434.324 151.35C438.573 151.374 442.604 149.47 445.284 146.172C445.431 145.977 445.414 145.704 445.245 145.528C444.707 145.032 444.407 144.33 444.422 143.599C444.493 143.024 444.813 142.51 445.297 142.191C446.21 141.563 447.402 141.513 448.365 142.062C449.329 142.546 450.056 143.399 450.382 144.427C450.645 145.391 450.37 146.422 449.661 147.126C448.824 147.686 447.729 147.672 446.907 147.09C446.716 146.966 446.466 146.985 446.297 147.138C443.939 149.276 440.987 152.388 439.893 155.379Z" fill="black"/>
<path d="M453.621 153.423C450.826 154.996 448.261 156.948 445.999 159.222C444.332 161.262 443.902 164.045 444.877 166.492C445.534 168.893 447.616 170.631 450.095 170.849C452.539 170.909 454.964 170.414 457.188 169.401C464.158 166.492 467.542 169.289 468.454 172.813C469.57 177.13 467.318 181 463.611 181.608C459.302 182.314 458.027 180.333 453.621 178.233C450.122 176.565 445.528 176.766 444.858 180.228C440.33 213.239 445.543 336.484 445.824 367.893C445.928 379.633 446.061 391.562 449.467 402.798C453.805 417.11 462.801 428.712 473.134 439.618C489.636 456.249 520.684 468.997 535.708 486.974C546.155 499.475 550.226 508.488 552.261 524.48C555.173 547.355 547.028 567.512 521.298 575.456C500.203 581.969 480.728 579.821 461.829 576.816C448.53 574.701 438.203 567.318 429.853 556.754C418.132 541.925 417.722 516.023 419.489 501.872C422.549 477.357 424.083 461.14 427.144 436.624C430.859 413.005 430.603 388.962 430.239 365.055C429.804 336.384 433.398 217.816 429.328 186.999C428.2 180.101 427.065 179.333 419.421 176.193C418.069 175.575 417.335 174.094 417.663 172.644C417.835 172.022 418.09 169.603 415.654 169.398C415.035 169.358 414.424 169.56 413.951 169.96C413.482 170.494 413.185 171.157 413.099 171.862C412.837 173.165 409.556 170.061 408.591 169.165C403.906 164.81 400.534 158.875 402.856 152.576C403.765 150.188 405.37 148.128 407.462 146.66C413.08 142.647 420.304 143.127 426.248 145.843C430.132 147.673 433.599 150.279 436.438 153.5C438.6 155.83 442.038 156.457 444.883 155.039C447.193 153.929 449.346 152.519 451.288 150.845C451.153 150.554 451.057 150.246 451.003 149.93C450.894 148.85 451.384 147.796 452.281 147.184C453.767 146.033 455.887 146.211 457.16 147.594C457.922 148.227 458.385 149.15 458.437 150.14C458.488 151.13 458.123 152.096 457.431 152.804C456.331 153.604 454.917 153.834 453.621 153.423Z" fill="white"/>
<path fill-rule="evenodd" clip-rule="evenodd" d="M461.75 577.312C471.709 579.077 481.792 580.048 491.905 580.214C501.911 580.29 511.872 578.847 521.446 575.935C544.942 568.68 556.062 550.385 552.757 524.418C550.732 508.502 546.682 499.327 536.092 486.656C527.929 476.888 514.969 468.593 502.435 460.572L502.421 460.563C491.907 453.833 481.037 446.876 473.496 439.277C464.443 429.72 454.566 417.896 449.946 402.655C446.533 391.397 446.426 379.447 446.324 367.89C446.254 360.11 445.891 347.012 445.431 330.43L445.429 330.372L445.428 330.351C444.045 280.46 441.954 205.083 445.349 180.324C445.506 179.403 446.101 178.615 446.945 178.213C448.536 177.414 451.131 177.602 453.407 178.686C454.598 179.254 455.565 179.818 456.419 180.317L456.443 180.33C458.741 181.674 460.404 182.646 463.692 182.103C465.48 181.812 467.06 180.774 468.036 179.247C469.239 177.284 469.567 174.906 468.938 172.69C468.518 170.84 467.306 169.268 465.624 168.391C463.409 167.288 460.504 167.474 456.995 168.942C454.845 169.925 452.499 170.408 450.135 170.353C447.855 170.151 445.944 168.546 445.352 166.335C444.432 164.063 444.819 161.471 446.363 159.567C448.541 157.383 451 155.497 453.674 153.96C455.091 154.35 456.609 154.056 457.778 153.165C458.516 152.456 458.935 151.477 458.94 150.454C458.928 149.232 458.411 148.069 457.513 147.242C456.068 145.671 453.659 145.474 451.978 146.788C450.936 147.509 450.372 148.742 450.508 150.002C450.545 150.241 450.606 150.476 450.691 150.703C448.85 152.243 446.826 153.549 444.663 154.591C442.017 155.9 438.826 155.321 436.808 153.166C433.923 149.897 430.4 147.251 426.456 145.39C419.556 142.236 412.345 142.559 407.17 146.255C404.993 147.776 403.326 149.92 402.387 152.405C399.598 159.972 404.864 166.384 408.25 169.533L408.348 169.623C410.976 172.069 412.241 172.883 413.022 172.635C413.323 172.538 413.542 172.278 413.588 171.965C413.653 171.367 413.894 170.802 414.279 170.34C414.652 170.03 415.128 169.872 415.613 169.898C416.132 169.898 416.622 170.14 416.939 170.552C417.273 171.168 417.356 171.889 417.169 172.564C416.795 174.245 417.657 175.957 419.23 176.658C426.74 179.743 427.741 180.394 428.832 187.067C431.672 208.561 430.777 272.674 430.124 319.503L430.123 319.537C429.847 339.329 429.609 356.422 429.74 365.065C430.077 387.222 430.458 412.336 426.648 436.565C425.121 448.794 423.954 459.129 422.827 469.12L422.816 469.219C421.688 479.223 420.521 489.567 418.993 501.812C416.903 518.548 418.391 543.061 429.46 557.065C438.652 568.695 449.214 575.318 461.75 577.312ZM415.697 168.902C415.627 168.896 415.558 168.893 415.488 168.893V168.893C414.804 168.899 414.144 169.143 413.623 169.584C413.079 170.156 412.731 170.885 412.629 171.667C412.312 171.594 411.429 171.125 409.03 168.891L408.932 168.8C405.727 165.821 400.737 159.775 403.325 152.75C404.195 150.454 405.738 148.474 407.752 147.07C412.629 143.584 419.468 143.295 426.04 146.3C429.861 148.104 433.274 150.669 436.068 153.838C438.385 156.32 442.055 156.992 445.101 155.492C447.452 154.36 449.643 152.925 451.619 151.221L451.892 150.979L451.746 150.645C451.629 150.396 451.546 150.133 451.498 149.862C451.417 148.961 451.833 148.088 452.583 147.584C453.871 146.588 455.708 146.746 456.806 147.949C457.509 148.592 457.918 149.494 457.94 150.446C457.937 151.201 457.627 151.923 457.083 152.447C456.115 153.112 454.896 153.297 453.775 152.949L453.58 152.885L453.396 152.978C450.546 154.575 447.934 156.562 445.634 158.881C443.836 161.054 443.364 164.033 444.404 166.655C445.117 169.25 447.373 171.124 450.055 171.349C452.578 171.418 455.084 170.91 457.38 169.864C460.569 168.535 463.264 168.334 465.18 169.287C466.602 170.035 467.622 171.371 467.969 172.94C468.528 174.884 468.248 176.973 467.198 178.702C466.374 179.992 465.04 180.87 463.53 181.117C460.594 181.597 459.222 180.796 456.948 179.468L456.947 179.467L456.941 179.464C456.066 178.953 455.074 178.373 453.836 177.784C451.258 176.554 448.375 176.372 446.495 177.321C445.368 177.869 444.574 178.926 444.363 180.161C440.952 205.032 443.044 280.477 444.43 330.401L444.439 330.719C444.895 347.172 445.255 360.168 445.324 367.9C445.427 379.527 445.535 391.549 448.989 402.945C453.668 418.385 463.637 430.324 472.779 439.973C480.409 447.662 491.331 454.653 501.896 461.414L501.905 461.419C514.372 469.399 527.263 477.65 535.325 487.296C545.773 499.797 549.768 508.848 551.765 524.545C555.001 549.973 544.129 567.885 521.151 574.98C499.916 581.536 480.24 579.239 461.907 576.324C449.63 574.372 439.274 567.869 430.245 556.445C423.447 547.844 416.68 528.408 419.985 501.935C421.511 489.706 422.677 479.374 423.804 469.383L423.81 469.331C424.94 459.313 426.109 448.952 427.638 436.704C431.458 412.412 431.077 387.259 430.74 365.064L430.74 365.049C430.609 356.422 430.847 339.335 431.123 319.55L431.124 319.517C431.777 272.658 432.672 208.502 429.822 186.92C428.671 179.887 427.466 178.959 419.611 175.733C418.487 175.217 417.876 173.987 418.144 172.78C418.399 171.833 418.261 170.824 417.76 169.981C417.277 169.321 416.514 168.922 415.697 168.902Z" fill="black"/>
<path d="M402.103 157.77C405.433 159.504 409.522 158.677 411.917 155.785C414.478 152.55 414.109 147.887 411.071 145.094C411.071 145.094 406.905 146.436 404.896 149.055C403.039 151.577 402.058 154.638 402.103 157.77Z" fill="black"/>
<path d="M409.414 149.522C409.022 149.609 408.663 149.805 408.378 150.088C407.912 150.534 408.62 151.241 409.085 150.795C409.248 150.635 409.455 150.527 409.68 150.486C410.307 150.345 410.042 149.381 409.414 149.522H409.414Z" fill="white"/>
<circle cx="428.592" cy="156.309" r="1.5821" fill="black"/>
<path d="M539.639 491.961C557.43 492.79 572.891 504.447 578.582 521.324C578.779 521.934 579.745 521.673 579.546 521.058C573.726 503.754 557.876 491.8 539.639 490.961C538.995 490.939 538.996 491.939 539.639 491.961Z" fill="black"/>
<path d="M578.839 520.539C576.679 525.571 577.504 531.387 580.979 535.618C582.514 537.434 585.506 538.799 587.087 537.024C587.979 536.023 587.9 534.505 587.656 533.187C586.6 527.491 583.455 524.04 578.839 520.539" fill="black"/>
<path d="M443.236 213.599C445.185 213.041 447.274 213.773 448.449 215.425C449.449 217.027 449.113 219.122 447.662 220.331C446.308 221.176 444.644 221.362 443.137 220.838" fill="black"/>
<path d="M443.137 228.052C446.075 226.805 448.785 229.203 448.322 231.553C447.859 233.904 445.331 234.322 443.137 233.553" fill="black"/>
<path d="M443.308 241.046C445.969 240.294 449.424 242.202 449.424 245.514C449.424 248.593 446.483 250.035 443.176 249.582" fill="black"/>
<path d="M443.422 254.819C447.046 254.24 450.125 256.422 449.786 260.098C449.516 263.035 446.852 264.282 443.675 263.918" fill="black"/>
<path d="M443.689 268.926C448.098 267.844 451.839 272.481 448.87 275.862C447.611 276.924 445.055 277.182 443.689 277.115" fill="black"/>
<path d="M443.867 282.848C445.802 282.522 447.791 282.78 449.579 283.589C451.072 284.597 451.871 286.361 451.645 288.149C451.304 291.073 446.344 292.13 443.867 291.421" fill="black"/>
<path d="M444.421 297.635C445.943 297.492 448.958 297.243 450.582 298.699C452.454 300.299 452.807 303.058 451.399 305.079C450.015 306.866 446.661 307.743 444.421 307.216" fill="black"/>
<path d="M444.848 312.311C446.608 311.972 448.429 312.167 450.078 312.871C452.264 314.103 452.264 316.022 451.368 317.799C450.494 319.532 446.78 320.05 444.848 319.872" fill="black"/>
<path d="M444.848 326.427C446.437 326.427 448.953 326.018 450.694 327.211C452.511 328.63 452.968 331.188 451.754 333.148C450.47 335.053 447.278 335.168 445.509 335.017" fill="black"/>
<path d="M445.2 340.204C449.349 339.417 452.093 340.537 452.092 344.613C452.091 347.595 447.501 347.538 445.508 347.428" fill="black"/>
<path d="M464.651 481.849C462.933 481.259 461.944 477.983 461.403 476.51C460.667 474.507 459.938 472.508 460.868 470.422C462.203 467.72 463.813 465.163 465.672 462.791C468.688 458.668 470.575 463.666 471.552 466.062C472.401 468.131 473.106 470.257 473.662 472.424C473.995 473.732 474.928 476.329 474.172 477.619C473.483 478.795 471.1 479.617 469.939 480.154C468.42 480.859 466.271 482.025 464.518 481.832C463.879 481.761 463.884 482.762 464.518 482.832C466.07 483.003 467.78 482.166 469.169 481.583C471.069 480.925 472.85 479.964 474.444 478.738C476.697 476.687 474.539 471.592 473.784 469.271C473.031 466.959 471.149 459.419 467.833 459.695C465.484 459.89 463.575 464.013 462.523 465.665C461.18 467.775 459.245 470.203 459.382 472.856C459.632 474.805 460.216 476.697 461.107 478.449C461.772 479.976 462.659 482.221 464.385 482.814C464.995 483.023 465.257 482.058 464.651 481.849Z" fill="black"/>
<path d="M489.094 477.099C488.38 480.648 486.983 484.662 487.045 488.294C487.082 490.487 488.482 492.112 490.251 493.288C495.176 496.563 499.289 492.657 500.443 487.753C501.241 484.363 502.97 479.046 498.992 477.128C496.833 476.188 494.538 475.599 492.193 475.383C490.63 475.213 489.667 475.562 489.094 477.099C488.869 477.703 489.835 477.964 490.058 477.365C490.894 475.123 496.838 477.271 498.337 477.937C501.741 479.451 500.2 484.317 499.552 487.17C499.041 489.421 498.252 491.911 496.033 493.046C493.638 494.271 491.005 493.024 489.321 491.223C487.352 489.116 488.248 486.5 488.751 483.953C489.184 481.756 489.62 479.56 490.058 477.365C490.185 476.736 489.221 476.468 489.094 477.099Z" fill="black"/>
<path d="M434.874 508.841C436.601 511.999 438.123 516.015 440.512 518.719C441.965 520.363 444.089 520.687 446.198 520.438C451.692 519.789 452.727 514.582 450.651 510.173C449.271 507.243 446.958 501.537 442.864 502.333C440.741 502.919 438.722 503.831 436.879 505.037C435.302 505.941 434.218 506.776 434.824 508.721C435.014 509.334 435.98 509.072 435.788 508.456C435.038 506.046 441.449 503.566 443.13 503.297C446.232 502.803 448.194 507.561 449.36 509.825C450.307 511.665 451.191 513.751 450.653 515.87C449.963 518.59 447.25 519.607 444.723 519.509C441.832 519.397 440.704 517.36 439.437 515.062C438.202 512.821 436.969 510.579 435.738 508.336C435.429 507.771 434.565 508.275 434.874 508.841Z" fill="black"/>
<path d="M529.761 489.613C526.539 487.978 523.039 485.544 519.527 484.645C517.46 484.231 515.324 484.892 513.853 486.402C509.566 490.14 511.848 495.118 516.182 497.546C519.26 499.27 524.13 502.522 527.092 499.139C528.575 497.31 529.757 495.257 530.593 493.055C531.175 491.593 531.088 490.575 529.761 489.613C529.24 489.234 528.74 490.101 529.257 490.476C531.174 491.867 527.509 497.083 526.482 498.301C524.056 501.181 519.572 498.265 516.973 496.838C515.059 495.788 513.275 494.499 512.698 492.296C512.003 489.646 513.585 487.503 515.82 486.218C518.377 484.747 520.457 486.045 522.83 487.238C524.974 488.315 527.116 489.394 529.257 490.476C529.829 490.766 530.336 489.904 529.761 489.613Z" fill="black"/>
<path d="M444.434 445.126C447.97 444.477 452.274 444.294 455.58 442.86C457.746 441.921 458.747 439.714 459.065 437.465C459.829 432.06 454.894 429.96 450.288 430.616C446.863 431.104 441.039 431.454 440.71 435.882C440.668 438.132 440.943 440.376 441.529 442.548C441.898 444.15 442.519 445.185 444.301 445.143C444.57 445.134 444.784 444.913 444.784 444.643C444.784 444.374 444.57 444.153 444.301 444.143C441.804 444.201 441.518 437.658 441.71 435.882C442.07 432.561 446.911 432.172 449.574 431.734C451.724 431.382 454.108 431.117 456.051 432.368C458.413 433.889 458.512 436.775 457.616 439.149C456.568 441.923 454.302 442.273 451.714 442.757C449.199 443.227 446.684 443.695 444.168 444.161C443.536 444.277 443.803 445.241 444.434 445.126Z" fill="black"/>
<path d="M533.664 527.928C535.111 525.174 537.259 522.193 538.063 519.179C538.441 517.448 537.933 515.643 536.709 514.363C533.497 510.4 529.043 512.355 526.832 516.199C525.278 518.901 522.503 523.012 525.488 525.61C527.242 527.136 531.704 530.552 533.664 527.928C534.05 527.413 533.182 526.913 532.801 527.424C531.652 528.961 527.337 525.868 526.333 525.005C523.84 522.863 526.29 519.198 527.543 516.976C528.205 515.515 529.309 514.298 530.699 513.497C533.281 512.312 535.748 514.092 536.837 516.383C537.866 518.546 536.325 520.668 535.345 522.551C534.499 524.177 533.651 525.801 532.801 527.424C532.502 527.993 533.365 528.499 533.664 527.928Z" fill="black"/>
<path d="M495.163 517.73C494.048 514.875 496.273 513.224 498.477 511.954C500.299 510.905 502.293 509.569 504.39 509.19C510.356 508.11 510.296 516.899 510.226 520.647C510.221 522.868 509.98 525.081 509.506 527.251C509.226 528.437 508.863 529.939 507.724 530.619C505.677 531.842 503.642 529.569 502.448 528.338C499.457 525.168 496.982 521.548 495.113 517.61C494.827 517.034 493.964 517.54 494.249 518.115C495.699 521.167 497.5 524.039 499.615 526.674C501.207 528.594 503.307 531.474 505.969 531.893C511.871 532.823 511.282 521.348 511.218 518.075C511.133 513.695 509.663 506.92 503.817 508.299C500.932 509.104 498.25 510.51 495.946 512.424C494.139 513.912 493.319 515.744 494.199 517.996C494.43 518.589 495.398 518.331 495.163 517.73Z" fill="black"/>
<path d="M482.39 561.116C482.363 565.576 475.05 565.762 471.82 565.591C465.229 565.242 467.434 557.851 469.033 553.905C469.836 551.858 470.813 549.884 471.953 548.004C472.476 546.94 473.204 545.989 474.093 545.205C476.783 543.396 478.124 545.092 479.114 547.108C481.092 551.525 482.203 556.28 482.39 561.116C482.435 561.754 483.436 561.759 483.39 561.116C483.2 557.544 482.57 554.01 481.516 550.592C480.754 548.259 479.754 544.432 477.098 543.52C472.041 541.781 468.7 551.896 467.468 555.172C465.742 559.764 465.414 566.31 471.82 566.591C475.699 566.762 483.358 566.443 483.39 561.116C483.38 560.846 483.159 560.633 482.89 560.633C482.62 560.633 482.399 560.846 482.39 561.116Z" fill="black"/>
<path d="M495.831 545.965C495.37 551.21 494.185 557.434 498.137 561.647C499.927 563.555 503.007 566.162 505.632 566.606C508.093 567.022 508.583 564.616 509.081 562.75C510.504 557.417 511.659 550.713 506.665 546.964C504.333 545.213 496.692 540.31 495.849 545.832C495.753 546.461 496.717 546.733 496.814 546.098C497.494 541.637 505.496 547.061 507.14 548.649C510.752 552.137 509.189 558.588 508.02 562.844C507.95 563.4 507.793 563.942 507.554 564.449C506.664 565.436 505.182 565.615 504.083 564.868C503.131 564.326 502.216 563.722 501.343 563.061C499.13 561.443 497.257 559.607 496.647 556.83C495.879 553.326 496.521 549.492 496.831 545.965C496.888 545.324 495.887 545.328 495.831 545.965Z" fill="black"/>
<path d="M524.315 543.943C523.698 548.449 523.03 553.614 526.765 556.89C528.243 558.186 531.09 560.179 533.234 559.702C535.361 559.229 536.254 556.066 536.804 554.345C538.137 550.171 540.385 542.477 534.518 540.859C532.208 540.241 529.795 540.104 527.43 540.456C525.377 540.79 524.638 541.929 524.315 543.943C524.215 544.573 525.178 544.844 525.28 544.209C525.638 541.973 526.791 541.421 528.893 541.341C530.606 541.246 532.323 541.386 533.998 541.757C539.219 543.024 537.086 549.963 535.977 553.648C535.148 556.402 533.882 559.672 530.372 558.057C528.504 557.262 526.904 555.948 525.761 554.271C524.161 551.651 524.882 547.111 525.28 544.209C525.366 543.58 524.402 543.308 524.315 543.943Z" fill="black"/>
<path d="M436.167 550.724C436.152 548.018 436.36 545.315 436.789 542.643C436.966 541.568 437.186 540.5 437.425 539.438C437.73 538.083 437.771 536.737 439.039 536.081C440.845 535.146 444.035 535.962 445.879 536.632C448.575 537.612 449.694 539.656 450.701 542.171C451.433 544.002 452.148 545.857 452.696 547.751C452.985 548.736 453.215 549.737 453.385 550.748C453.586 551.963 453.653 553.548 452.4 554.354C451.951 554.643 450.655 554.452 450.09 554.462C447.8 554.528 445.509 554.375 443.249 554.003C441.355 553.665 436.698 552.83 436.149 550.591C435.996 549.967 435.031 550.231 435.185 550.857C435.749 553.159 438.93 553.944 440.923 554.497C444.211 555.313 447.602 555.633 450.985 555.447C453.465 555.377 454.757 554.474 454.554 551.863C454.302 548.613 453.042 545.439 451.871 542.434C451.008 540.219 450.167 537.961 448.093 536.606C445.587 535.18 442.716 534.525 439.84 534.722C437.067 534.873 436.874 537.264 436.37 539.574C435.568 543.236 435.164 546.975 435.167 550.724C435.176 550.994 435.397 551.208 435.667 551.208C435.937 551.208 436.158 550.994 436.167 550.724Z" fill="black"/>
<path d="M431.306 471.654C431.593 474.701 431.931 478.204 433.364 480.966C434.218 482.613 435.585 482.969 437.374 482.827C440.143 482.607 445.837 481.521 445.904 477.97C445.8 473.554 444.374 469.271 441.81 465.674C440.798 464.398 439.856 464.406 438.477 465.231C436.709 466.421 435.004 467.701 433.368 469.066C432.284 469.88 431.382 470.26 431.306 471.654C431.271 472.297 432.271 472.295 432.306 471.654C432.37 470.479 434.874 469.178 435.697 468.56C436.723 467.65 437.821 466.825 438.982 466.095C440.823 465.16 441.32 466.578 442.061 468.057C443.606 470.957 444.564 474.134 444.881 477.405C445.115 478.514 444.487 479.624 443.415 479.993C441.816 480.817 440.1 481.391 438.328 481.695C437.339 481.96 436.297 481.947 435.316 481.655C434.492 481.084 433.926 480.211 433.741 479.225C432.967 476.766 432.486 474.225 432.306 471.654C432.247 471.019 431.246 471.012 431.306 471.654Z" fill="black"/>
<path d="M462.387 513.508C462.613 516.655 463.184 519.767 464.09 522.789C464.564 524.258 465.133 526.086 466.649 526.767C469.979 528.262 475.753 526.03 478.572 524.168C481.046 522.534 479.894 518.842 479.289 516.457C478.433 513.081 477.192 508.322 474.641 505.759C472.848 503.958 470.872 505.921 469.284 507.113C467.456 508.486 465.628 509.858 463.8 511.23C462.878 511.923 462.381 512.317 462.387 513.508C462.397 513.778 462.618 513.991 462.887 513.991C463.157 513.991 463.378 513.778 463.387 513.508C463.38 511.984 466.888 510.154 467.96 509.349C469.308 508.337 470.856 506.728 472.513 506.312C473.742 506.004 473.831 506.23 474.532 507.254C474.993 507.96 475.399 508.7 475.746 509.467C477.368 512.865 478.929 517.037 479.025 520.848C479.069 522.573 478.492 523.146 476.985 523.901C474.942 524.928 472.75 525.63 470.49 525.98C469.354 526.255 468.163 526.205 467.054 525.835C465.956 525.3 465.525 523.915 465.153 522.833C464.196 519.806 463.604 516.676 463.387 513.508C463.329 512.873 462.328 512.867 462.387 513.508Z" fill="black"/>
<path d="M418.731 596.883C421.931 598.046 425.205 598.995 428.531 599.723C428.08 601.525 427.351 603.245 426.371 604.823C425.411 605.953 423.984 606.578 422.503 606.515C421.021 606.453 419.652 605.71 418.791 604.503C417.621 602.643 418.261 598.993 418.731 596.883Z" fill="black"/>
<path d="M455.3 604.335C454.826 606.295 453.969 608.141 452.781 609.769C450.871 612.019 446.611 610.859 445.431 608.779C444.371 606.929 444.781 603.65 445.071 602C448.436 602.961 451.851 603.741 455.3 604.335Z" fill="black"/>
<path d="M514.015 603.164C514.431 605.65 514.331 609.033 512.411 610.223C510.711 611.283 508.081 611.663 506.391 609.243C505.517 607.706 504.877 606.048 504.491 604.323C506.583 604.179 511.015 603.47 514.015 603.164Z" fill="black"/>
<path d="M540.531 607.339C538.581 609.042 535.636 608.905 533.851 607.03C532.681 605.74 531.935 603.197 531.525 601.357C534.856 601.072 538.162 600.55 541.419 599.797C541.449 600.037 542.497 605.404 540.531 607.339Z" fill="black"/>
</svg>
