<svg width="490" height="700" viewBox="0 0 490 700" fill="none" xmlns="http://www.w3.org/2000/svg">
<rect opacity="0.01" width="490" height="700" fill="white"/>
<path d="M243.601 251.685C243.467 251.92 243.379 252.178 243.341 252.445C242.751 256.205 241.581 262.995 240.851 266.705C239.461 273.665 238.201 282.495 234.291 288.425C233.141 290.346 231.511 291.935 229.561 293.035C227.166 294.054 224.434 293.899 222.171 292.615C220.091 291.115 219.521 288.315 219.121 285.785C217.501 275.715 216.401 266.305 214.971 256.465C214.961 256.435 214.481 252.935 214.161 250.585C214.134 250.362 214.07 250.146 213.971 249.945C223.351 246.085 226.931 231.245 227.071 218.375C229.062 219.398 231.238 220.01 233.471 220.175C234.85 220.314 236.235 220.377 237.621 220.365C235.791 229.565 234.901 241.075 239.871 248.045C240.834 249.515 242.107 250.758 243.601 251.685Z" fill="white"/>
<path fill-rule="evenodd" clip-rule="evenodd" d="M221.879 293.023C223.205 293.844 224.744 294.255 226.303 294.205C227.503 294.23 228.694 293.984 229.785 293.484C231.822 292.356 233.521 290.706 234.708 288.703C238.157 283.472 239.558 276.126 240.792 269.645L240.832 269.437C241.003 268.538 241.171 267.658 241.342 266.804C242.078 263.059 243.247 256.273 243.836 252.518C243.864 252.312 243.932 252.114 244.036 251.935L244.274 251.516L243.865 251.263C242.427 250.371 241.203 249.174 240.278 247.757C236.337 242.231 235.608 233.048 238.111 220.465L238.232 219.857L237.613 219.867C236.245 219.88 234.878 219.817 233.517 219.679C231.351 219.519 229.239 218.927 227.307 217.937L226.579 217.547L226.57 218.372C226.435 230.925 223.003 245.69 213.78 249.485L213.284 249.689L213.523 250.17C213.597 250.323 213.645 250.486 213.666 250.655C214.406 256.102 214.476 256.545 214.477 256.545V256.543C215.026 260.323 215.526 264.04 216.027 267.756L216.034 267.81C216.819 273.646 217.632 279.681 218.627 285.866C219.062 288.615 219.672 291.431 221.879 293.023ZM214.657 250.522C214.644 250.42 214.625 250.319 214.6 250.219C223.749 246.055 227.284 231.677 227.558 219.179C229.413 220.009 231.397 220.515 233.424 220.675C234.743 220.8 235.924 220.864 237.014 220.87C234.597 233.429 235.421 242.668 239.453 248.322C240.375 249.73 241.57 250.939 242.969 251.875C242.912 252.035 242.871 252.201 242.847 252.37C242.261 256.109 241.095 262.877 240.361 266.609C240.194 267.45 240.028 268.318 239.858 269.204L239.81 269.458C238.593 275.847 237.213 283.089 233.874 288.151C232.781 290.007 231.215 291.539 229.336 292.591C227.107 293.519 224.576 293.379 222.463 292.212C220.568 290.845 220.017 288.25 219.614 285.708C218.622 279.535 217.81 273.507 217.025 267.677L216.986 267.388C216.496 263.746 216.004 260.101 215.463 256.378C215.435 256.212 214.985 252.937 214.657 250.522Z" fill="black"/>
<path d="M243.291 670.619C242.501 674.379 237.611 675.269 234.651 677.709C231.181 680.559 231.27 682.269 230.561 688.049C230.151 691.339 230.521 695.479 227.541 696.939C225.571 698.009 220.001 697.949 218.291 697.619C216.469 697.48 215.078 695.935 215.131 694.109C215.041 691.983 216.025 689.954 217.75 688.709C221.101 686.339 221.091 682.659 221.081 678.999C221.046 677.69 221.093 676.381 221.221 675.079C222.291 666.419 224.601 661.849 224.961 654.369C225.561 645.359 226.074 636.392 226.5 627.469L240.151 627.699C238.48 637.459 236.921 646.949 235.471 656.019C235.383 656.613 235.417 657.218 235.571 657.799C236.161 660.149 238.431 662.209 239.99 663.699C241.921 665.549 243.851 668.009 243.291 670.619Z" fill="white"/>
<path fill-rule="evenodd" clip-rule="evenodd" d="M218.195 698.11C219.292 698.274 220.4 698.348 221.509 698.33C223.782 698.33 226.467 698.091 227.76 697.388C230.425 696.082 230.667 692.878 230.88 690.051L230.882 690.018C230.931 689.368 230.98 688.724 231.057 688.109L231.224 686.716L231.224 686.714C231.781 681.998 231.95 680.574 234.969 678.095C236.014 677.302 237.134 676.613 238.314 676.037C240.72 674.761 243.208 673.44 243.779 670.723C244.269 668.441 243.142 666.026 240.336 663.338L240.08 663.094C238.603 661.687 236.578 659.761 236.055 657.674C235.918 657.16 235.888 656.624 235.965 656.098C237.557 646.138 239.088 636.876 240.644 627.783L240.741 627.209L226.024 626.961L226.001 627.444C225.566 636.484 225.048 645.532 224.462 654.345C224.222 657.945 223.622 661.513 222.671 664.994C221.819 668.293 221.17 671.641 220.725 675.02C220.593 676.342 220.544 677.671 220.58 679C220.591 682.642 220.601 686.08 217.461 688.301C215.599 689.647 214.536 691.837 214.632 694.133C214.583 696.192 216.144 697.934 218.195 698.11ZM225.46 654.402C226.036 645.749 226.546 636.861 226.976 627.977L239.56 628.189C238.037 637.101 236.536 646.186 234.976 655.945C234.88 656.604 234.918 657.276 235.085 657.921C235.679 660.284 237.823 662.326 239.389 663.817L239.391 663.818L239.645 664.06C242.18 666.489 243.212 668.601 242.801 670.515V670.517C242.326 672.776 240.15 673.932 237.845 675.154C236.606 675.759 235.429 676.486 234.333 677.322C231.004 680.057 230.793 681.837 230.231 686.596L230.231 686.598L230.065 687.987C229.984 688.627 229.934 689.298 229.883 689.976C229.681 692.66 229.471 695.436 227.302 696.499C225.49 697.483 220.045 697.447 218.386 697.129C216.795 697.03 215.573 695.681 215.631 694.088C215.548 692.132 216.453 690.265 218.039 689.117C221.602 686.597 221.591 682.735 221.58 678.997L221.58 678.995C221.545 677.709 221.591 676.421 221.717 675.141C222.158 671.8 222.801 668.49 223.644 665.228C224.61 661.689 225.218 658.062 225.46 654.402Z" fill="black"/>
<path d="M227.71 549.478C227.65 550.198 227.33 552.018 226.14 552.678C225.2 553.188 222.94 553.468 222.26 550.198C221.49 546.528 219.3 541.188 218.08 537.638C217.78 536.778 217.34 535.728 216.81 534.588C215.001 530.695 212.856 526.968 210.4 523.448C207.51 520.208 184.28 508.108 179.74 505.678L186.41 493.188C194.81 499.818 203.77 506.808 212.9 514.978C213.66 515.629 214.597 516.039 215.59 516.157C218.44 516.637 222.652 515.18 225.022 516.72C229.992 519.92 225.53 527.537 225.34 530.618C224.97 536.568 228.21 543.518 227.71 549.478Z" fill="white"/>
<path fill-rule="evenodd" clip-rule="evenodd" d="M223.71 553.231C224.08 553.402 224.483 553.489 224.891 553.487C225.411 553.485 225.923 553.357 226.383 553.112C227.904 552.268 228.171 549.969 228.209 549.517C228.47 546.409 227.736 543.029 227.026 539.76L227.023 539.75C226.229 536.781 225.831 533.719 225.84 530.646C225.991 529.593 226.247 528.558 226.604 527.556L226.605 527.556C227.731 523.887 229.275 518.86 225.295 516.299C223.711 515.27 221.487 515.45 219.337 515.625L219.322 515.626C218.113 515.779 216.889 515.792 215.677 515.663C214.774 515.562 213.923 515.192 213.233 514.602C204.767 507.026 196.544 500.54 188.591 494.268L188.578 494.258L186.251 492.422L179.063 505.88L179.504 506.115C179.997 506.38 180.711 506.758 181.595 507.226L181.628 507.243C188.742 511.013 207.515 520.961 210.001 523.746C212.435 527.239 214.562 530.936 216.357 534.796C216.888 535.937 217.32 536.975 217.607 537.797C217.936 538.753 218.335 539.839 218.757 540.986L218.802 541.108C219.988 544.104 220.98 547.174 221.771 550.297C221.903 551.532 222.626 552.626 223.71 553.231ZM182.062 506.342C181.416 506 180.861 505.705 180.417 505.469L186.569 493.947L187.959 495.043L187.992 495.069C195.926 501.327 204.131 507.798 212.558 515.338C213.387 516.062 214.415 516.519 215.508 516.648C216.803 516.793 218.111 516.784 219.404 516.623C221.395 516.46 223.45 516.292 224.752 517.139C228.097 519.292 226.739 523.711 225.648 527.262C225.265 528.338 224.994 529.452 224.842 530.584C224.823 533.75 225.228 536.904 226.046 539.963L226.047 539.969C226.742 543.167 227.461 546.473 227.213 549.433C227.194 549.655 226.998 551.627 225.902 552.235C225.356 552.531 224.705 552.563 224.131 552.324C223.343 551.842 222.83 551.014 222.75 550.093C221.95 546.921 220.944 543.804 219.74 540.763C219.304 539.577 218.892 538.456 218.552 537.47C218.254 536.614 217.809 535.544 217.264 534.374C215.432 530.439 213.26 526.67 210.773 523.112C208.437 520.493 194.203 512.774 182.062 506.342Z" fill="black"/>
<path d="M220.991 243.84C223.298 246.334 227.084 247.226 230.372 247.3C232.896 247.357 236.348 247.033 238.125 244.981C238.544 244.496 237.84 243.786 237.417 244.273C235.821 246.118 232.63 246.351 230.372 246.3C227.374 246.232 223.805 245.411 221.698 243.133C221.26 242.66 220.554 243.368 220.991 243.84Z" fill="black"/>
<path d="M150.426 74.5158C141.092 75.0998 131.813 72.7103 123.922 67.6906C118.643 64.3131 114.061 59.7917 108.342 57.2287C101.324 54.0836 93.0875 54.2295 85.8208 56.747C78.4523 59.194 71.9181 63.6592 66.961 69.6349C64.4557 72.5199 59.4389 80.482 61.5266 85.1459L85.079 78.1889C86.442 77.6653 87.9117 77.48 89.362 77.6489C90.7484 78.0298 92.0014 78.7889 92.9809 79.8414C99.5484 86.1675 102.547 95.3415 100.982 104.325C100.578 106.52 99.8187 108.79 98.1058 110.221C96.9779 111.054 95.7109 111.68 94.364 112.069L71.7628 120.067C72.2963 121.496 73.1918 122.762 74.3616 123.741C86.0176 132.14 107.096 133.574 118.891 123.325C122.654 120.055 126.07 116.416 129.765 113.071C133.461 109.726 137.812 106.792 142.753 106.134L321.276 98.301C330.598 97.5583 339.917 99.7895 347.892 104.674C353.228 107.961 357.886 112.404 363.648 114.869C370.718 117.895 378.951 117.609 386.174 114.968C393.5 112.396 399.957 107.82 404.812 101.761C407.267 98.8337 412.148 90.7874 409.981 86.1597L386.551 93.5164C385.197 94.0632 383.73 94.2735 382.277 94.1293C380.885 93.772 379.619 93.0343 378.622 91.9987C371.948 85.7853 368.794 76.6636 370.205 67.6547C370.572 65.4528 371.292 63.1708 372.981 61.7104C374.094 60.8586 375.35 60.2115 376.69 59.7994L399.152 51.418C398.595 49.9982 397.678 48.7477 396.491 47.7888C384.694 39.5894 363.595 38.5144 351.976 48.9625C348.269 52.2955 344.916 55.9928 341.277 59.4001C337.639 62.8075 333.339 65.8151 328.41 66.5574L150.426 74.5158Z" fill="white"/>
<path fill-rule="evenodd" clip-rule="evenodd" d="M74.0697 124.144C80.0561 128.457 88.6859 131.035 97.3168 131.034C105.326 131.033 113.334 128.813 119.219 123.699C121.317 121.876 123.336 119.911 125.289 118.01L125.363 117.938C126.9 116.443 128.488 114.898 130.102 113.439C134.563 109.4 138.723 107.172 142.775 106.63L321.317 98.7965C330.534 98.0556 339.748 100.262 347.629 105.097C349.593 106.306 351.502 107.702 353.349 109.052L353.367 109.065C356.481 111.526 359.864 113.627 363.452 115.326C370.241 118.232 378.587 118.272 386.346 115.435C393.755 112.835 400.286 108.208 405.195 102.079C407.874 98.8863 412.68 90.7408 410.434 85.9444L410.248 85.5484L386.402 93.0362C385.124 93.5533 383.741 93.7583 382.369 93.6344C381.069 93.2905 379.89 92.5959 378.958 91.6266C372.427 85.5161 369.335 76.5735 370.698 67.7335C371.149 65.0304 371.978 63.2355 373.308 62.0851C374.378 61.2739 375.582 60.6575 376.866 60.2643L399.714 51.7389L399.646 51.3316C399.065 49.7776 398.073 48.4102 396.777 47.3751C385.097 39.2569 363.688 37.7565 351.642 48.588C349.573 50.4484 347.584 52.4498 345.663 54.3854L345.638 54.4099C344.113 55.9448 342.538 57.5311 340.935 59.0324C336.543 63.1461 332.421 65.4445 328.387 66.0548L150.404 74.0133L150.394 74.0138C141.166 74.595 131.991 72.2324 124.192 67.2662C122.245 66.0211 120.356 64.5904 118.529 63.2062L118.523 63.2013C115.451 60.6869 112.104 58.5292 108.546 56.7697C101.807 53.7482 93.4652 53.5665 85.6566 56.2711C78.2043 58.7444 71.5959 63.2599 66.5834 69.3038C63.85 72.4508 58.9057 80.5128 61.0707 85.3468L61.2494 85.7462L85.2211 78.6657C86.5072 78.1702 87.8929 77.9887 89.2631 78.1364C90.5562 78.5019 91.7236 79.2167 92.6371 80.2023C99.0646 86.4221 102.004 95.4157 100.492 104.231C99.9936 106.927 99.1342 108.708 97.7856 109.835C96.7022 110.628 95.4873 111.224 94.1967 111.595L71.2074 119.731L71.269 120.139C71.8233 121.702 72.7912 123.087 74.0697 124.144ZM74.6537 123.332C73.7032 122.513 72.9345 121.504 72.3969 120.37L94.5307 112.537C95.9336 112.128 97.2527 111.473 98.4262 110.602C99.9633 109.317 100.932 107.351 101.475 104.413C103.045 95.2642 99.9948 85.9305 93.3246 79.4752C92.2785 78.3563 90.9398 77.5528 89.4604 77.1559C87.9305 76.9714 86.3787 77.1604 84.9379 77.7067L61.8246 84.5333C60.3246 80.1212 64.9213 72.7433 67.3393 69.9596C72.2385 64.0497 78.699 59.6344 85.9848 57.2164C93.5541 54.5944 101.629 54.7653 108.138 57.6818C111.626 59.4129 114.907 61.532 117.919 63.9987L117.96 64.0294C119.792 65.4169 121.685 66.8503 123.653 68.109C131.631 73.1838 141.012 75.6005 150.449 75.0123L328.484 67.0489C332.778 66.4025 337.074 64.0187 341.619 59.7618C343.227 58.2557 344.802 56.6702 346.327 55.1355L346.372 55.09C348.285 53.1642 350.262 51.173 352.31 49.3312C361.698 40.8898 382.033 38.3463 396.206 48.1964C397.171 48.9992 397.957 49.9948 398.514 51.1193L376.516 59.3278C375.12 59.7609 373.813 60.4384 372.654 61.3288C371.159 62.6222 370.196 64.6637 369.711 67.5695C368.297 76.7435 371.506 86.0239 378.285 92.3654C379.35 93.4654 380.702 94.2456 382.187 94.6178C383.72 94.7754 385.269 94.5601 386.701 93.9904L409.694 86.7707C411.268 91.1564 406.798 98.6124 404.429 101.437C399.63 107.429 393.246 111.953 386.002 114.495C378.479 117.246 370.404 117.214 363.844 114.407C360.328 112.735 357.011 110.672 353.956 108.257C352.089 106.892 350.158 105.48 348.155 104.245C340.095 99.3063 330.677 97.0492 321.254 97.7985L142.687 105.635C138.383 106.208 134.047 108.518 129.43 112.697C127.779 114.193 126.159 115.769 124.592 117.293L124.571 117.314C122.634 119.199 120.632 121.146 118.563 122.944C109.033 131.226 88.6557 133.422 74.6537 123.332Z" fill="black"/>
<path fill-rule="evenodd" clip-rule="evenodd" d="M142.611 90.309C142.723 94.7964 146.392 98.3766 150.881 98.3794C151.021 98.3794 151.163 98.3755 151.305 98.3687L324.546 89.5992C329.111 89.3678 332.625 85.479 332.394 80.9134C332.162 76.3477 328.274 72.8341 323.708 73.0655L150.467 81.835C145.984 82.0624 142.499 85.8216 142.611 90.309ZM323.759 74.0645C323.884 74.058 324.008 74.0547 324.131 74.0547C328.078 74.0565 331.304 77.2042 331.402 81.1499C331.501 85.0956 328.437 88.4008 324.495 88.6002L151.254 97.3697C147.24 97.573 143.821 94.4839 143.618 90.47C143.414 86.4561 146.504 83.0374 150.517 82.834L323.759 74.0645Z" fill="black"/>
<path d="M252.838 115.023C250.226 111.819 247.002 109.167 243.353 107.224C241.765 106.41 240.555 105.985 238.63 104.944C237.294 104.28 236.16 103.271 235.344 102.022L238.939 101.865C239.581 102.349 240.28 102.754 241.019 103.071C241.5 103.277 241.945 102.767 241.599 102.375C238.808 99.2213 232.576 94.1291 229.403 90.6852C229.143 90.4037 227.906 88.9724 228.806 88.2577C229.426 87.7647 230.161 88.4397 230.33 88.6012C232.426 90.5997 234.416 92.0053 236.572 93.9389C236.745 94.0946 237.592 94.9457 238.121 94.6441C238.54 94.4046 238.083 93.9015 238.083 93.9015C235.765 91.5245 233.436 89.9083 231.197 87.4571C230.612 86.8167 228.442 84.6654 229.741 83.7107C230.145 83.414 230.728 83.7468 231.052 84.0617L237.239 90.0837C238.148 90.9684 239.981 92.5398 240.295 92.2978C240.586 92.0375 240.378 91.6918 240.114 91.3279C237.337 88.3431 235.487 86.6473 232.972 83.7568C232.422 83.1246 231.787 82.1359 232.398 81.5857C233.366 80.7995 235.214 82.8638 236.039 83.7759C237.702 85.617 238.653 86.9964 240.683 88.9024C241.263 89.4469 242.398 90.4717 242.7 90.156C242.7 90.156 244.198 90.1915 237.911 83.7492C237.142 82.9614 236.589 82.0938 236.855 81.8413C237.338 80.831 239.06 81.4663 240.563 83.2132L243.909 87.033C245.833 89.1123 248.213 92.2696 250.151 94.7391C252.529 97.7703 255.375 101.957 255.672 107.442C255.858 108.576 256.473 109.594 257.39 110.285" fill="white"/>
<path d="M252.497 115.284C249.925 112.129 246.751 109.519 243.158 107.607C242.487 107.264 241.885 106.99 241.268 106.709C240.42 106.325 239.544 105.927 238.426 105.322C237.019 104.609 235.825 103.54 234.962 102.22L234.654 101.623L239.055 101.43L239.169 101.503C239.441 101.676 239.638 101.81 239.807 101.926C240.234 102.234 240.698 102.486 241.188 102.677C241.265 102.709 241.294 102.667 241.294 102.666C239.862 101.06 237.481 98.8925 235.179 96.7963C232.95 94.767 230.646 92.6684 229.087 90.9765C228.492 90.4058 228.126 89.6377 228.058 88.8163C228.083 88.4632 228.259 88.1379 228.539 87.9218C229.12 87.4594 229.901 87.5981 230.627 88.2914C231.796 89.4052 232.911 90.3173 234.093 91.2831C234.986 92.0136 235.91 92.769 236.859 93.6196C237.119 93.9185 237.452 94.1444 237.825 94.2748C237.807 94.244 237.786 94.2149 237.763 94.1879C236.727 93.1259 235.656 92.1913 234.621 91.287C233.307 90.1798 232.057 88.9978 230.879 87.747L230.738 87.5957C229.733 86.5166 228.815 85.3779 228.911 84.3579C228.948 83.9584 229.159 83.5953 229.487 83.3652C230.121 83.0298 230.905 83.1933 231.352 83.7544L237.539 89.7764C238.256 90.4847 239.031 91.131 239.856 91.7085C239.83 91.6709 239.801 91.6279 239.766 91.5806C238.698 90.4375 237.744 89.4575 236.835 88.5254C235.466 87.1187 234.171 85.7905 232.647 84.0391C231.639 82.8789 231.442 81.8687 232.11 81.2671C233.396 80.2158 235.309 82.3266 236.333 83.4614C236.921 84.1118 237.403 84.6826 237.872 85.2387C238.836 86.4202 239.873 87.5394 240.978 88.5898C241.393 89.011 241.854 89.3847 242.353 89.7041C242.126 89.1928 241.217 87.7519 237.604 84.0493C237.225 83.6611 236.345 82.685 236.357 82.0088C236.357 81.861 236.406 81.7173 236.496 81.6001C236.687 81.2362 237.045 80.9905 237.453 80.9443C238.395 80.8125 239.725 81.5796 240.889 82.9341L244.232 86.751C245.787 88.4311 247.663 90.8442 249.317 92.9731L250.488 94.4746C252.944 97.6045 255.802 101.904 256.102 107.419C256.282 108.406 256.817 109.293 257.605 109.914L257.175 110.658C256.129 109.896 255.434 108.746 255.244 107.466C254.959 102.221 252.339 98.2236 249.813 95.0049L248.64 93.5005C246.995 91.3847 245.132 88.9873 243.594 87.3252L240.24 83.4966C239.149 82.228 238.09 81.73 237.566 81.7954C237.423 81.8056 237.298 81.8952 237.242 82.0273L237.223 82.0669C237.452 82.5936 237.792 83.0651 238.219 83.4497C243.726 89.0932 243.378 89.8916 243.23 90.2329C243.167 90.3792 243.047 90.4934 242.898 90.5488C242.382 90.9018 241.543 90.2978 240.39 89.2158C239.261 88.1433 238.201 87 237.217 85.793C236.753 85.2436 236.276 84.6802 235.721 84.064C234.112 82.2847 233.088 81.5732 232.668 81.9194C232.373 82.1865 232.818 82.9272 233.296 83.4756C234.804 85.2085 236.089 86.5288 237.45 87.9263C238.363 88.8628 239.322 89.8472 240.428 91.0356C240.678 91.375 241.188 92.0762 240.581 92.6182C240.376 92.7768 239.827 93.2022 236.94 90.3916L230.752 84.3696C230.506 84.1299 230.142 83.9492 229.995 84.0571C229.864 84.1418 229.779 84.2824 229.766 84.438C229.693 85.2148 230.909 86.519 231.367 87.0097L231.514 87.1679C232.669 88.3955 233.895 89.5548 235.186 90.6401C236.233 91.5556 237.317 92.5019 238.391 93.602C238.618 93.837 238.737 94.1567 238.718 94.4834C238.679 94.7111 238.538 94.9082 238.334 95.0175C237.569 95.4531 236.668 94.6147 236.328 94.2988C235.352 93.4214 234.436 92.6723 233.549 91.9477C232.407 91.0146 231.227 90.0498 230.034 88.9126C229.849 88.7343 229.385 88.3476 229.073 88.5942C228.979 88.6613 228.92 88.7677 228.914 88.8833C229.006 89.4628 229.29 89.9949 229.719 90.395C231.252 92.0586 233.542 94.1445 235.758 96.1616C238.183 98.3701 240.475 100.457 241.92 102.091C242.199 102.388 242.228 102.84 241.989 103.17C241.728 103.526 241.252 103.65 240.851 103.466C240.308 103.253 239.794 102.973 239.32 102.634C239.183 102.54 239.026 102.433 238.821 102.3L236.114 102.419C236.878 103.299 237.801 104.028 238.834 104.566C239.926 105.157 240.788 105.549 241.622 105.928C242.252 106.214 242.866 106.493 243.549 106.842C247.254 108.816 250.527 111.508 253.179 114.762L252.497 115.284Z" fill="black"/>
<path d="M209.656 117.331C211.608 113.9 214.256 110.915 217.43 108.566C218.86 107.499 219.982 106.878 221.707 105.531C222.626 104.812 223.968 103.844 224.367 102.622L220.928 102.696C220.355 103.232 219.721 103.697 219.038 104.082C218.598 104.365 218.074 103.937 218.351 103.493C220.576 99.9178 225.873 93.8578 228.427 89.9331C228.636 89.6122 229.618 87.9946 228.611 87.4399C227.917 87.0574 227.305 87.8455 227.165 88.0329C225.432 90.3529 223.704 92.0705 221.901 94.3365C221.756 94.519 221.063 95.4993 220.491 95.2901C220.038 95.1239 220.404 94.5516 220.404 94.5516C222.294 91.8214 224.321 89.8395 226.12 87.0492C226.59 86.3202 228.371 83.8373 226.93 83.1127C226.483 82.8874 225.964 83.3127 225.697 83.6771L220.6 90.6466C219.851 91.6705 218.307 93.5254 217.956 93.3392C217.626 93.131 217.774 92.7555 217.973 92.3526C220.213 88.9466 221.755 86.9661 223.753 83.6967C224.19 82.9817 224.651 81.9009 223.957 81.4603C222.871 80.8466 221.393 83.1901 220.732 84.2269C219.399 86.3196 218.691 87.8383 217.007 90.056C216.526 90.6896 215.578 91.8892 215.228 91.6283C215.228 91.6283 213.757 91.913 218.881 84.5128C219.508 83.6078 219.909 82.6601 219.605 82.4555C218.96 81.5398 217.368 82.4535 216.177 84.4265L213.515 88.7507C211.965 91.1216 210.144 94.6315 208.645 97.3896C206.805 100.775 204.698 105.378 205.319 110.836C205.325 111.984 204.888 113.09 204.1 113.925" fill="white"/>
<path fill-rule="evenodd" clip-rule="evenodd" d="M209.276 117.129L210.036 117.53C211.96 114.156 214.566 111.22 217.687 108.908C218.291 108.458 218.839 108.088 219.402 107.707C220.173 107.187 220.971 106.649 221.972 105.867L222.179 105.706C223.305 104.986 224.206 103.963 224.775 102.753L224.964 102.177L220.76 102.268L220.642 102.375C220.213 102.787 219.738 103.148 219.227 103.451L218.807 103.719C218.736 103.765 218.7 103.727 218.716 103.718C219.843 101.908 221.824 99.3794 223.74 96.9329L223.748 96.9226C225.608 94.5491 227.532 92.0945 228.787 90.1653C229.279 89.5042 229.513 88.6857 229.442 87.8645C229.359 87.5201 229.131 87.228 228.818 87.0618C228.168 86.7034 227.422 86.9704 226.821 87.7737C225.854 89.0686 224.905 90.1545 223.901 91.3039C223.143 92.1726 222.358 93.0705 221.519 94.1277C221.086 94.6902 220.838 94.8386 220.721 94.8747C220.731 94.8467 220.744 94.8196 220.759 94.7937C221.613 93.5578 222.513 92.4573 223.383 91.3928C224.494 90.0828 225.528 88.7096 226.48 87.28L226.593 87.1096C227.406 85.8777 228.122 84.6008 227.857 83.6101C227.754 83.2224 227.486 82.8996 227.124 82.7273C226.443 82.5006 225.697 82.7926 225.351 83.4216L220.254 90.3909C219.664 91.211 219.006 91.9792 218.285 92.6872C218.299 92.6565 218.314 92.6228 218.332 92.5862C219.22 91.237 219.997 90.1125 220.737 89.0422L220.775 88.988C221.877 87.3918 222.923 85.878 224.119 83.9187C224.922 82.6062 224.946 81.5774 224.168 81.0847C222.745 80.2761 221.212 82.6745 220.37 83.9939C219.918 84.7038 219.537 85.3484 219.166 85.9763C218.414 87.3003 217.579 88.5754 216.666 89.7942C216.326 90.2798 215.934 90.7261 215.495 91.1247C215.632 90.5852 216.285 89.0144 219.234 84.7551C219.544 84.3093 220.249 83.1999 220.123 82.5354C220.099 82.3895 220.027 82.2558 219.919 82.155C219.672 81.8268 219.277 81.6439 218.866 81.6677C217.904 81.7014 216.733 82.6726 215.813 84.1989L213.156 88.5134C211.897 90.4387 210.45 93.1296 209.174 95.5036L208.269 97.1823C206.368 100.677 204.269 105.394 204.893 110.882C204.886 111.886 204.506 112.852 203.826 113.592L204.373 114.254C205.278 113.329 205.773 112.079 205.746 110.785C205.152 105.566 207.069 101.187 209.022 97.5925L209.931 95.9104C211.198 93.5515 212.636 90.8777 213.881 88.9734L216.545 84.6458C217.408 83.2161 218.369 82.5447 218.896 82.5261C219.039 82.514 219.176 82.581 219.254 82.7005L219.28 82.7371C219.142 83.2944 218.886 83.8157 218.529 84.2659C214.04 90.7483 214.516 91.4783 214.719 91.7898C214.805 91.9237 214.943 92.0163 215.1 92.0462C215.674 92.3079 216.395 91.5711 217.35 90.3137C218.283 89.0688 219.137 87.7659 219.905 86.4129L219.916 86.394C220.279 85.7803 220.652 85.1491 221.114 84.4241C222.383 82.4349 223.273 81.5608 223.727 81.8211C224.083 82.0462 223.766 82.8504 223.387 83.471C222.188 85.4314 221.141 86.948 220.03 88.554C219.287 89.6292 218.507 90.7591 217.589 92.16C217.425 92.4911 217.041 93.2669 217.755 93.7161C217.958 93.8245 218.567 94.1498 220.947 90.8978L226.044 83.9286C226.243 83.6571 226.578 83.4115 226.737 83.4945C226.881 83.5557 226.989 83.6801 227.028 83.8315C227.23 84.5863 226.246 86.0761 225.876 86.6366L225.759 86.8149C224.825 88.2176 223.81 89.5648 222.719 90.8495L222.713 90.8563C221.834 91.9318 220.925 93.0441 220.044 94.3178C219.864 94.5848 219.803 94.9147 219.876 95.2284C219.952 95.4467 220.125 95.6174 220.344 95.6908C221.164 95.9929 221.913 95.0225 222.235 94.6045L222.237 94.602C223.011 93.6297 223.782 92.7462 224.528 91.8921L224.548 91.8691C225.519 90.7577 226.522 89.6088 227.509 88.2885C227.701 88.0331 228.07 87.6308 228.404 87.8139C228.508 87.8651 228.583 87.9601 228.609 88.0727C228.615 88.6592 228.425 89.2307 228.068 89.6967C226.835 91.5914 224.926 94.0271 223.08 96.3833L223.072 96.3934C221.05 98.974 219.14 101.412 217.987 103.264C217.762 103.603 217.809 104.054 218.099 104.339C218.417 104.645 218.905 104.687 219.271 104.441L219.687 104.175C220.194 103.876 220.667 103.522 221.097 103.12L223.683 103.064C223.119 103.826 222.433 104.489 221.652 105.027L221.442 105.19C220.465 105.954 219.681 106.484 218.922 106.996C218.348 107.383 217.789 107.761 217.173 108.22C213.943 110.601 211.252 113.637 209.276 117.129Z" fill="black"/>
<path d="M209.911 120.022C195.281 144.572 185.321 170.332 180.611 200.342C178.661 212.242 180.396 224.454 185.581 235.342C189.561 243.622 197.271 250.022 205.761 250.892C205.738 251.098 205.745 251.307 205.781 251.512C207.079 258.206 207.825 264.995 208.011 271.812C208.101 280.282 207.171 291.152 205.081 299.252C203.481 305.472 199.691 312.582 196.041 316.162C198.551 302.742 195.321 288.732 190.801 281.242C184.971 271.482 176.091 262.252 169.991 250.912C163.531 238.902 161.341 231.802 161.241 221.162C161.261 211.571 162.422 202.017 164.701 192.702C167.961 179.462 180.261 142.942 201.891 115.022C202.555 114.161 203.731 113.882 204.711 114.352L208.941 116.792C209.521 117.068 209.957 117.576 210.142 118.192C210.327 118.807 210.243 119.472 209.911 120.022Z" fill="white"/>
<path fill-rule="evenodd" clip-rule="evenodd" d="M195.55 316.069L195.258 317.629L196.392 316.517C200.083 312.897 203.94 305.688 205.565 299.375C207.859 290.483 208.591 279.303 208.511 271.805C208.363 265.468 207.698 259.154 206.523 252.926L206.272 251.417C206.245 251.259 206.24 251.098 206.259 250.939L206.307 250.444L205.812 250.393C197.862 249.579 190.099 243.585 186.031 235.124C180.889 224.328 179.17 212.219 181.105 200.418C185.623 171.63 194.913 146.164 210.34 120.278C210.744 119.604 210.845 118.792 210.619 118.04C210.399 117.304 209.881 116.694 209.191 116.357L204.927 113.9C203.734 113.33 202.305 113.669 201.495 114.714C180.499 141.817 167.929 177.5 164.216 192.581C161.921 201.936 160.755 211.533 160.741 221.165C160.841 231.775 162.898 238.78 169.551 251.147C173.048 257.294 177.011 263.165 181.405 268.707C184.618 272.81 187.612 277.08 190.373 281.499C194.653 288.591 198.1 302.434 195.55 316.069ZM202.287 115.325C202.632 114.88 203.163 114.62 203.726 114.62C203.98 114.619 204.231 114.675 204.461 114.784L208.727 117.242C209.179 117.454 209.52 117.85 209.662 118.329C209.806 118.811 209.741 119.332 209.482 119.763L209.481 119.765C193.986 145.766 184.656 171.345 180.117 200.263C178.15 212.264 179.9 224.579 185.131 235.557C189.267 244.164 197.127 250.31 205.255 251.336C205.261 251.422 205.272 251.507 205.288 251.592L205.537 253.09C206.703 259.268 207.363 265.531 207.511 271.816C207.591 279.249 206.867 290.327 204.597 299.126C203.1 304.765 200.45 310.033 196.813 314.596C198.849 301.249 195.431 287.944 191.23 280.984C188.451 276.535 185.438 272.236 182.204 268.105C177.842 262.603 173.906 256.776 170.432 250.674C163.869 238.473 161.839 231.577 161.741 221.156C161.756 211.607 162.912 202.094 165.187 192.82C168.882 177.81 181.392 142.297 202.287 115.325Z" fill="black"/>
<path d="M297.312 234.486C290.502 249.226 282.402 257.716 271.282 276.146C262.582 290.426 263.442 307.056 266.842 322.056C267.382 324.426 268.462 328.346 269.282 331.236C268.911 330.921 268.512 330.64 268.092 330.396C260.262 325.786 253.722 311.756 251.562 298.806C249.142 284.326 248.422 268.616 251.322 254.176C251.353 254.014 251.37 253.85 251.372 253.686C251.995 253.647 252.616 253.574 253.232 253.466C257.702 252.666 262.332 249.596 265.512 246.356C282.342 229.186 291.702 193.976 286.932 170.406C282.302 147.576 269.062 132.206 253.032 117.256C252.634 116.885 252.404 116.368 252.397 115.824C252.389 115.281 252.604 114.757 252.992 114.376L256.762 110.286C257.504 109.555 258.683 109.516 259.472 110.196C272.696 121.293 283.848 134.646 292.412 149.636C296.943 157.731 300.591 166.291 303.292 175.166C309.712 197.486 306.112 215.446 297.312 234.486Z" fill="white"/>
<path fill-rule="evenodd" clip-rule="evenodd" d="M268.955 331.616L270.219 332.708L269.763 331.101C269.104 328.781 267.913 324.508 267.329 321.947C263.066 303.138 264.498 288.241 271.709 276.406C276.212 268.943 280.269 263.039 283.849 257.83L283.85 257.829L283.851 257.827C289.136 250.138 293.7 243.496 297.765 234.697V234.697C307.776 213.039 309.572 195.195 303.772 175.029C301.067 166.111 297.402 157.512 292.842 149.384C284.253 134.345 273.065 120.949 259.797 109.818C258.801 108.971 257.322 109.028 256.394 109.949L252.643 114.02C252.157 114.49 251.887 115.14 251.896 115.816C251.9 116.502 252.188 117.156 252.691 117.623C269.736 133.521 281.997 148.597 286.441 170.506C291.331 194.671 281.583 229.246 265.155 246.007C262.381 248.833 257.77 252.148 253.144 252.975C252.547 253.079 251.944 253.151 251.339 253.189L250.871 253.219V253.688C250.87 253.819 250.856 253.95 250.83 254.079C248.205 267.157 248.285 282.234 251.068 298.89C253.096 311.049 259.507 325.924 267.835 330.827C268.231 331.056 268.606 331.32 268.955 331.616ZM251.811 254.274C251.819 254.234 251.827 254.194 251.832 254.154C252.345 254.109 252.843 254.044 253.319 253.96C257.445 253.221 262.136 250.51 265.869 246.708C282.498 229.741 292.369 194.754 287.421 170.308C282.925 148.138 270.558 132.921 253.374 116.893C253.072 116.613 252.899 116.22 252.896 115.808C252.893 115.396 253.06 115.001 253.359 114.716L257.113 110.644C257.671 110.099 258.553 110.07 259.146 110.577C272.329 121.637 283.446 134.948 291.981 149.891C296.485 157.953 300.115 166.473 302.811 175.306C308.538 195.22 306.758 212.857 296.857 234.277V234.278C292.828 243 288.286 249.61 283.026 257.262C279.438 262.483 275.372 268.401 270.855 275.887C263.502 287.954 262.031 303.093 266.354 322.169C266.84 324.306 267.744 327.612 268.415 330.009C268.392 329.995 268.369 329.981 268.345 329.967C260.279 325.218 254.044 310.656 252.054 298.725C249.29 282.19 249.208 267.235 251.811 254.274Z" fill="black"/>
<path d="M279.821 432.7C276.961 447.99 271.931 465.38 268.751 479.12C258.638 522.831 251.017 578.688 242.837 626.701C242.692 627.577 242.033 628.279 241.168 628.48C236.118 629.63 229.299 628.753 225.973 628.193C224.844 628.007 224.043 626.993 224.123 625.852C225.268 609.627 232.802 496.584 226.401 416.67C226.401 416.67 224.921 392.66 219.731 388.81C216.331 386.28 211.581 385.9 201.351 392.23C201.351 392.23 151.431 425.52 136.341 435.32C130.851 439.1 131.381 443.02 133.341 447.3C133.838 448.393 134.525 449.389 135.371 450.24C152.881 467.8 170.431 477.81 187.241 491.53C189.065 493.007 183.389 502.097 180.176 505.921C179.507 506.727 178.364 506.952 177.439 506.459C158.125 496.115 133.296 481.544 118.731 473.16C110.534 468.503 102.725 463.192 95.381 457.28C90.8944 453.894 87.5148 449.251 85.671 443.94C81.9908 433.34 88.7408 423.86 92.671 419.38C116.021 392.81 165.581 356.71 179.881 342.2C186.123 335.984 190.763 328.346 193.403 319.941C193.818 318.646 194.577 317.488 195.598 316.589C199.381 313.164 203.408 305.733 205.081 299.26C207.171 291.16 207.645 280.228 207.555 271.758C207.369 264.946 206.619 258.162 205.315 251.474C205.213 250.855 205.378 250.222 205.768 249.731C206.159 249.24 206.739 248.938 207.365 248.898L212.223 248.677C213.387 248.599 214.413 249.435 214.57 250.591C214.888 252.936 215.37 256.436 215.377 256.47C216.807 266.31 217.501 275.72 219.121 285.79C219.521 288.32 220.091 291.12 222.171 292.62C224.433 293.904 227.164 294.06 229.557 293.041C231.507 291.941 233.137 290.352 234.287 288.431C238.197 282.501 238.965 273.668 240.355 266.708C241.092 263.003 242.258 256.21 242.848 252.455C242.945 251.838 243.297 251.291 243.818 250.947C244.34 250.603 244.982 250.495 245.587 250.648L250.155 251.722C251.312 252.018 252.03 253.173 251.785 254.341C248.88 268.784 249.138 284.324 251.561 298.81C253.725 311.757 260.265 325.791 268.09 330.398C270.021 331.494 271.471 333.275 272.153 335.389C275.146 345.145 278.514 354.732 280.741 366.53C284.991 388.415 284.678 410.942 279.821 432.7Z" fill="black"/>
<path d="M213.962 249.947C211.332 250.864 208.532 251.188 205.762 250.897C205.887 249.83 206.759 249.004 207.832 248.937L211.822 248.677C212.73 248.612 213.584 249.119 213.962 249.947Z" fill="black"/>
<path d="M251.371 253.687C248.638 253.826 245.928 253.128 243.602 251.687C244.105 250.826 245.116 250.402 246.082 250.647L249.691 251.557C250.671 251.801 251.362 252.677 251.371 253.687Z" fill="black"/>
<path d="M238.317 177.308C233.273 177.756 229.676 182.367 227.132 186.263C224.369 190.406 222.435 195.045 221.439 199.924C220.449 203.549 220.383 207.363 221.248 211.019C222.613 216.135 226.776 219.557 233.474 220.173C240.326 220.803 245.123 220.002 248.416 215.855C252.256 211.019 253.252 205.316 253.776 200.047C254.089 195.723 253.549 191.38 252.185 187.265C251.016 183.789 247.136 176.526 238.317 177.308Z" fill="white"/>
<path fill-rule="evenodd" clip-rule="evenodd" d="M233.428 220.672C234.782 220.797 236.034 220.86 237.196 220.86C242.743 220.86 246.235 219.407 248.808 216.167C252.695 211.272 253.732 205.551 254.273 200.097C254.595 195.703 254.047 191.289 252.659 187.107C252.029 185.231 248.367 175.909 238.273 176.811C233.037 177.276 229.345 181.961 226.713 185.991C223.914 190.18 221.957 194.875 220.952 199.812C219.938 203.516 219.873 207.415 220.765 211.149C222.239 216.675 226.736 220.056 233.428 220.672ZM227.551 186.538C230.058 182.697 233.553 178.234 238.361 177.808V177.808C247.727 176.979 251.123 185.675 251.711 187.426C253.055 191.473 253.588 195.746 253.279 199.999C252.751 205.3 251.75 210.853 248.025 215.545C245.152 219.163 240.952 220.357 233.52 219.676C227.276 219.102 223.089 215.982 221.732 210.891C220.884 207.315 220.951 203.583 221.926 200.039C222.908 195.216 224.818 190.63 227.551 186.538Z" fill="black"/>
<path d="M236.584 211.815C235.791 211.82 235.008 211.639 234.297 211.289C234.051 211.165 233.952 210.865 234.075 210.619C234.199 210.372 234.498 210.272 234.745 210.394C236.589 211.244 238.774 210.742 240.062 209.172C240.171 209.03 240.347 208.957 240.524 208.981C240.701 209.004 240.852 209.12 240.921 209.286C240.989 209.451 240.964 209.64 240.855 209.781C239.818 211.078 238.244 211.827 236.584 211.815Z" fill="black"/>
<path d="M234.99 203.762C234.064 203.891 233.145 203.482 232.62 202.707C232.281 202.021 232.323 201.207 232.733 200.56C233.235 199.822 234.038 199.344 234.926 199.255C235.715 199.211 236.505 199.284 237.273 199.472C237.542 199.536 237.708 199.805 237.644 200.074C237.581 200.343 237.311 200.51 237.042 200.446C236.389 200.284 235.716 200.217 235.043 200.248C234.458 200.299 233.925 200.604 233.584 201.083C233.366 201.422 233.331 201.847 233.491 202.216C233.748 202.673 234.449 202.775 235.02 202.762C235.754 202.771 236.487 202.696 237.204 202.538C237.378 202.497 237.561 202.551 237.683 202.681C237.806 202.811 237.85 202.996 237.798 203.167C237.747 203.338 237.609 203.469 237.435 203.51C236.644 203.687 235.836 203.771 235.026 203.762H234.99Z" fill="black"/>
<path d="M230.491 195.683C229.025 195.785 227.728 194.738 227.518 193.284C227.469 193.012 227.65 192.752 227.922 192.703C228.193 192.654 228.453 192.835 228.502 193.107C228.621 194.089 229.508 194.792 230.491 194.683C231.81 194.683 232.603 194.213 232.847 193.284C232.918 193.018 233.191 192.859 233.457 192.93C233.723 193 233.883 193.272 233.814 193.539C233.603 194.339 232.891 195.683 230.491 195.683Z" fill="black"/>
<path d="M244.164 196.97C244.059 196.97 243.952 196.967 243.841 196.961C242.314 196.948 241.022 195.83 240.788 194.321C240.76 194.145 240.829 193.967 240.967 193.854C241.106 193.741 241.295 193.711 241.462 193.775C241.629 193.839 241.749 193.987 241.777 194.164C241.927 195.213 242.836 195.985 243.896 195.963C244.992 196.195 246.093 195.592 246.487 194.543C246.533 194.369 246.669 194.233 246.844 194.187C247.018 194.142 247.204 194.193 247.329 194.323C247.455 194.452 247.501 194.639 247.45 194.812C247.015 196.228 245.636 197.134 244.164 196.97Z" fill="black"/>
<path d="M254.786 198.053C255.184 198.654 255.106 199.451 254.598 199.962C254.06 200.401 254.827 201.16 255.361 200.724C256.219 199.869 256.367 198.532 255.718 197.509C255.303 196.963 254.366 197.5 254.786 198.053Z" fill="black"/>
<path d="M268.062 222.831C266.917 223.757 265.511 224.299 264.042 224.381C257.426 224.842 251.444 220.459 249.891 214.011L249.731 213.981C252.501 209.581 253.321 204.641 253.771 200.041C254.033 196.758 253.777 193.454 253.011 190.251C252.204 189.679 251.366 189.151 250.501 188.671C250.14 188.538 249.812 188.326 249.541 188.051C249.334 187.767 249.188 187.444 249.111 187.101C248.531 185.161 247.951 183.218 247.371 181.271C247.388 182.803 247.196 184.331 246.801 185.811C246.549 186.733 245.61 187.286 244.681 187.061C242.544 186.55 240.365 186.232 238.171 186.111C237.673 186.084 237.209 185.849 236.893 185.463C236.578 185.076 236.439 184.575 236.511 184.081L236.981 180.891C236.161 182.661 233.332 185.731 231.082 185.681C230.261 185.661 228.891 185.521 227.711 185.381C227.511 185.681 227.321 185.971 227.131 186.261C224.369 190.404 222.437 195.043 221.441 199.921C220.648 202.937 220.451 206.08 220.861 209.171C216.431 213.401 207.141 217.101 201.461 215.091C198.281 213.961 196.671 209.701 197.501 206.431C199.441 198.801 211.171 187.671 214.151 184.471C219.041 179.241 226.801 172.861 232.611 170.311C239.911 167.091 247.431 167.051 252.891 171.681C255.257 173.888 257.139 176.561 258.421 179.531C261.861 186.671 263.961 194.361 266.051 202.001C267.051 205.651 268.048 209.301 269.041 212.951C269.961 216.331 270.661 220.501 268.062 222.831Z" fill="black"/>
<circle cx="241.363" cy="299.265" r="3.59279" fill="white"/>
<circle cx="213.262" cy="298.358" r="3.59279" fill="white"/>
<path d="M243.291 670.617C242.501 674.377 237.611 675.267 234.651 677.707C231.181 680.557 231.27 682.267 230.561 688.047C230.151 691.337 230.521 695.477 227.541 696.937C225.571 698.007 220.001 697.947 218.291 697.617C216.469 697.478 215.078 695.933 215.131 694.107C215.041 691.981 216.025 689.952 217.75 688.707C221.101 686.337 221.091 682.657 221.081 678.997C225.303 678.491 229.001 675.931 230.961 672.157C231.583 670.83 232.089 669.452 232.471 668.037C233.5 664.627 234.534 661.214 235.571 657.797C236.161 660.147 238.431 662.207 239.99 663.697C241.921 665.547 243.851 668.007 243.291 670.617Z" fill="black"/>
<path d="M227.711 549.478C227.651 550.198 227.331 552.018 226.141 552.678C225.201 553.188 222.941 553.468 222.261 550.198C221.491 546.528 219.301 541.188 218.081 537.638C217.781 536.778 217.013 535.035 216.483 533.895C218.153 530.635 218.419 527.38 218.031 523.558C217.757 520.945 216.925 518.421 215.591 516.158C218.441 516.638 222.653 515.18 225.023 516.721C229.993 519.92 225.531 527.538 225.341 530.618C224.971 536.568 228.211 543.518 227.711 549.478Z" fill="black"/>
<path d="M229.045 623.109C229.02 623.109 228.994 623.107 228.97 623.104C225.099 622.525 225.121 622.156 225.141 621.831C225.16 621.571 225.374 621.367 225.635 621.359C225.735 621.358 225.834 621.386 225.92 621.439C226.967 621.745 228.037 621.971 229.118 622.115C229.376 622.154 229.561 622.386 229.542 622.646C229.523 622.907 229.306 623.109 229.045 623.109Z" fill="white"/>
<path d="M235.217 623.552C233.997 623.552 232.771 623.502 231.574 623.404C231.442 623.393 231.319 623.33 231.234 623.229C231.148 623.128 231.106 622.997 231.117 622.864C231.143 622.591 231.382 622.389 231.656 622.407C233.121 622.527 234.591 622.571 236.134 622.543H236.143C236.419 622.541 236.646 622.762 236.648 623.038C236.651 623.314 236.429 623.541 236.153 623.543C235.835 623.549 235.523 623.552 235.217 623.552Z" fill="white"/>
<path d="M238.734 623.414C238.465 623.413 238.245 623.201 238.235 622.932C238.225 622.664 238.429 622.435 238.696 622.415C239.832 622.329 240.99 622.196 242.137 622.021C242.409 621.98 242.664 622.168 242.705 622.44C242.746 622.713 242.56 622.967 242.287 623.009C241.116 623.188 239.934 623.324 238.773 623.413C238.76 623.414 238.747 623.414 238.734 623.414Z" fill="white"/>
<path d="M172.086 502.545C172.007 502.542 171.931 502.515 171.868 502.467C171.65 502.329 171.57 502.05 171.682 501.817C171.729 501.721 171.805 501.642 171.9 501.593C172.68 500.829 173.402 500.008 174.06 499.137C174.23 498.92 174.543 498.882 174.76 499.05C174.977 499.219 175.017 499.532 174.849 499.75C173.014 502.112 172.394 502.545 172.086 502.545Z" fill="white"/>
<path d="M175.973 497.825C175.788 497.825 175.619 497.724 175.532 497.561C175.445 497.399 175.454 497.201 175.557 497.048C176.387 495.801 177.138 494.503 177.804 493.161C177.883 493.001 178.042 492.895 178.22 492.884C178.398 492.872 178.569 492.957 178.668 493.106C178.767 493.254 178.779 493.444 178.7 493.605C178.015 494.985 177.243 496.32 176.389 497.603C176.296 497.742 176.14 497.826 175.973 497.825Z" fill="white"/>
<path d="M179.321 491.504C179.155 491.504 179 491.422 178.907 491.284C178.814 491.147 178.795 490.972 178.857 490.818C179.287 489.751 179.656 488.662 179.964 487.554C180.037 487.288 180.312 487.132 180.578 487.206C180.844 487.279 181 487.554 180.927 487.82C180.61 488.964 180.229 490.09 179.785 491.191C179.709 491.381 179.525 491.505 179.321 491.504Z" fill="white"/>
<path d="M253.318 195.716C253.821 195.217 254.558 195.034 255.236 195.239C256.071 195.459 256.741 196.08 257.022 196.896C257.449 197.86 257.563 198.933 257.348 199.965C257.205 201.057 256.55 202.015 255.585 202.544C254.674 202.974 252.68 202.694 252.447 201.706L253.318 195.716Z" fill="white"/>
<path d="M253.7 196.099C254.137 195.771 254.702 195.664 255.229 195.809C255.756 195.953 256.187 196.333 256.396 196.839C256.83 197.653 256.996 198.583 256.872 199.497C256.851 200.617 256.202 201.63 255.194 202.119C254.593 202.316 253.243 202.252 252.968 201.565C252.712 200.928 251.669 201.206 251.928 201.851C252.53 202.974 253.816 203.546 255.053 203.242C256.579 202.883 257.712 201.598 257.878 200.039C258.239 198.428 257.817 196.742 256.742 195.49C255.718 194.43 254.042 194.363 252.937 195.337C252.42 195.802 253.184 196.562 253.7 196.099H253.7Z" fill="black"/>
<path d="M360.944 399.068C366.373 393.15 369.967 385.784 371.29 377.863C371.878 374.299 371.634 368.671 367.37 368.227C365.004 367.947 362.733 369.245 361.773 371.425C359.528 375.654 361.83 381.997 365.316 385.278C368.803 388.56 373.817 389.812 378.604 389.681C393.198 389.284 404.775 377.807 414.711 367.109" stroke="black" stroke-linecap="round"/>
<path d="M43.6538 329.82C48.2129 322.443 54.3391 315.758 62.2617 311.966C70.2166 308.159 80.7509 305.942 88.8269 310.569C90.883 311.747 92.4312 313.218 92.3802 315.73C92.3286 318.272 90.8485 319.709 88.7025 320.748C85.095 322.46 81.0346 322.972 77.1151 322.21C69.383 320.722 63.3834 314.597 62.0567 306.835C60.7339 297.829 64.798 288.881 72.4503 283.951C72.9924 283.608 72.4913 282.742 71.9455 283.088C64.5499 287.848 60.3029 296.233 60.8402 305.012C61.4331 313.516 67.3679 320.702 75.6067 322.891C81.3699 324.403 94.2665 323.432 93.3472 314.865C92.8992 310.69 88.2018 308.737 84.6365 307.781C79.7081 306.637 74.5677 306.787 69.7142 308.216C57.9849 311.281 49.0778 319.142 42.7904 329.315C42.4511 329.864 43.3158 330.366 43.6538 329.819V329.82Z" fill="black"/>
<path d="M358.427 280.113L362.6 273.335C362.938 272.785 362.073 272.283 361.736 272.83L357.563 279.608C357.225 280.158 358.09 280.66 358.427 280.113Z" fill="black"/>
<path d="M135.65 7.51906L139.822 0.741141C140.161 0.191601 139.296 -0.311239 138.959 0.236421L134.786 7.01434C134.448 7.56388 135.312 8.06672 135.65 7.51906Z" fill="black"/>
<path d="M441.743 296.695L446.042 302.847C446.408 303.371 447.276 302.872 446.906 302.342L442.607 296.191C442.241 295.667 441.373 296.166 441.743 296.695Z" fill="black"/>
<path d="M291.492 16.9923L295.791 23.1439C296.157 23.6676 297.025 23.1684 296.655 22.6392L292.356 16.4876C291.99 15.9639 291.122 16.4631 291.492 16.9923Z" fill="black"/>
<path d="M384.391 176.947L391.973 169.373C392.157 169.176 392.152 168.869 391.961 168.678C391.77 168.487 391.463 168.482 391.266 168.666L383.684 176.24C383.499 176.437 383.505 176.745 383.695 176.936C383.886 177.126 384.194 177.131 384.391 176.947H384.391Z" fill="black"/>
<path d="M464.522 220.422L470.228 227.264C470.641 227.759 471.345 227.048 470.936 226.557L465.229 219.714C464.817 219.22 464.113 219.93 464.522 220.422Z" fill="black"/>
<path d="M467.886 421.742L470.314 433.119C470.449 433.748 471.413 433.482 471.279 432.854L468.85 421.476C468.716 420.847 467.752 421.114 467.886 421.742Z" fill="black"/>
<path d="M412.577 532.087L417.554 526.071C417.961 525.579 417.257 524.867 416.847 525.364L411.87 531.379C411.462 531.872 412.166 532.583 412.577 532.087H412.577Z" fill="black"/>
<path d="M314.809 477.128V466.717C314.799 466.448 314.578 466.234 314.309 466.234C314.039 466.234 313.818 466.448 313.809 466.717V477.128C313.818 477.397 314.039 477.61 314.309 477.61C314.578 477.61 314.799 477.397 314.809 477.128Z" fill="black"/>
<path d="M35.7994 512.051C38.1831 510.608 40.3391 508.819 42.1968 506.742C42.6247 506.264 41.9198 505.554 41.4897 506.035C39.6918 508.051 37.6039 509.787 35.2947 511.188C35.0667 511.332 34.9939 511.631 35.13 511.864C35.266 512.096 35.5621 512.179 35.7994 512.051H35.7994Z" fill="black"/>
<path d="M40.1251 395.522C42.4707 398.308 45.0129 400.921 47.7321 403.344C48.2113 403.77 48.921 403.066 48.4393 402.636C45.72 400.214 43.1778 397.6 40.8322 394.815C40.4171 394.322 39.7128 395.033 40.1251 395.522Z" fill="black"/>
<path d="M84.8686 207.811L88.6853 216.274C88.9494 216.86 89.8115 216.352 89.5487 215.77L85.732 207.307C85.4679 206.721 84.6058 207.229 84.8686 207.811Z" fill="black"/>
<path d="M34.2195 234.604L38.9173 226.387C39.0454 226.149 38.9624 225.853 38.7295 225.717C38.4966 225.581 38.1978 225.654 38.0538 225.882L33.356 234.099C33.2279 234.336 33.311 234.632 33.5438 234.768C33.7767 234.905 34.0755 234.832 34.2195 234.604Z" fill="black"/>
<path d="M20.4481 117.152L29.3368 127.411C29.759 127.899 30.4637 127.189 30.044 126.704L21.1552 116.445C20.7331 115.958 20.0284 116.668 20.4481 117.152V117.152Z" fill="black"/>
</svg>
