<svg width="470" height="500" viewBox="0 0 470 500" fill="none" xmlns="http://www.w3.org/2000/svg">
<rect opacity="0.01" width="470" height="500" fill="white"/>
<g clip-path="url(#clip0_2614_3220)">
<path d="M156.002 112.883C178.431 131.018 210.897 151.698 238.645 159.571C254.929 164.192 284.491 167.225 303.47 167.808C304.178 167.83 304.85 168.126 305.343 168.633C305.837 169.141 306.114 169.821 306.117 170.529L306.142 175.677C306.144 176.329 305.914 176.961 305.492 177.458C305.071 177.956 304.487 178.287 303.843 178.393C282.985 181.844 281.804 182.201 261.19 182.564C247.639 182.803 231.264 181.297 218.164 177.819C210.039 175.432 202.147 172.313 194.584 168.502" fill="white"/>
<path d="M258.312 183.088C244.317 183.088 229.462 181.334 218.035 178.301C209.878 175.906 201.955 172.776 194.364 168.95L194.804 168.051C202.336 171.849 210.197 174.956 218.291 177.335C230.424 180.555 246.46 182.328 261.182 182.062C280.723 181.718 282.619 181.404 300.762 178.395L303.761 177.898C304.288 177.814 304.768 177.544 305.113 177.137C305.458 176.729 305.645 176.212 305.642 175.678L305.616 170.529C305.616 169.95 305.39 169.394 304.987 168.979C304.583 168.563 304.033 168.322 303.454 168.306C283.968 167.708 254.583 164.611 238.508 160.05C210.149 152.003 177.132 130.608 155.688 113.27L156.316 112.492C177.684 129.769 210.567 151.083 238.781 159.088C254.778 163.627 284.058 166.71 303.485 167.306C304.323 167.33 305.119 167.679 305.704 168.28C306.289 168.881 306.616 169.686 306.616 170.524L306.642 175.673C306.647 176.445 306.376 177.193 305.878 177.782C305.379 178.371 304.686 178.762 303.924 178.884L300.925 179.381C282.717 182.401 280.814 182.717 261.199 183.062C260.242 183.079 259.28 183.088 258.312 183.088Z" fill="black"/>
<path d="M306.142 169.324C307.56 169.358 316.544 168.695 320.223 168.549C323.92 168.403 326.133 168.473 327.966 170.308C330.006 172.352 330.97 178.392 329.086 183.218C328.744 184.173 328.177 185.031 327.432 185.718C325.655 187.133 320.177 186.894 317.911 186.568C310.899 185.56 305.725 177.129 305.725 177.129L306.142 169.324Z" fill="white"/>
<path d="M321.826 187.32C320.493 187.322 319.162 187.236 317.84 187.063C310.679 186.033 305.515 177.742 305.299 177.39L305.217 177.257L305.668 168.813L306.153 168.824C306.915 168.846 309.918 168.653 313.104 168.454C315.77 168.288 318.527 168.116 320.204 168.049C323.925 167.904 326.325 167.958 328.319 169.954C330.519 172.156 331.513 178.374 329.552 183.4C329.182 184.438 328.561 185.369 327.744 186.109C326.553 187.057 324.076 187.32 321.826 187.32ZM306.232 176.995C306.913 178.045 311.752 185.177 317.982 186.073C320.404 186.422 325.572 186.56 327.121 185.327C327.795 184.692 328.308 183.907 328.62 183.036C330.416 178.434 329.554 172.605 327.612 170.661C325.964 169.01 324.007 168.901 320.243 169.048C318.579 169.114 315.827 169.286 313.167 169.452C310.427 169.624 307.816 169.787 306.616 169.819L306.232 176.995Z" fill="black"/>
<path d="M465.935 404.377C465.341 403.273 464.44 402.365 463.34 401.763C462.241 401.162 460.99 400.893 459.741 400.988C458.372 401.186 457.022 401.496 455.704 401.916C454.377 402.304 453.071 402.704 452.121 402.909C445.332 404.301 438.288 403.763 431.789 401.355C436.83 393.143 441.149 384.51 444.696 375.551C458.133 340.617 465.895 302.898 464.622 283.234C458.797 288.682 452.164 291.361 444.642 288.717C430.969 283.904 417.511 270.241 409.201 258.37C397.017 240.941 386.829 223.932 389.16 202.963C389.388 200.918 389.98 198.929 390.908 197.092C385.901 205.456 377.418 212.741 367.576 218.461C364.773 220.09 361.663 221.121 358.442 221.491C355.221 221.86 351.959 221.56 348.86 220.608C345.76 219.656 342.891 218.074 340.433 215.961C337.975 213.847 335.98 211.248 334.574 208.327C330.289 199.35 327.222 189.841 325.454 180.052C325.012 177.548 323.897 166.212 318.127 164.694C315.143 163.91 310.218 164.83 306.937 171.694C305.778 175.017 304.985 178.456 304.57 181.95C303.545 181.195 303.093 174.915 299.737 174.785C295.56 174.634 290.779 179.609 288.696 181.843C280.052 191.092 270.771 211.241 271.861 227.666C272.076 233.402 273.202 239.066 275.195 244.448C250.848 250.049 231.185 256.708 210.54 266.604C196.089 274.774 176.922 288.879 164.555 308.219C160.669 314.28 157.363 320.694 154.68 327.375C152.992 326.541 151.381 325.559 149.867 324.439C149.9 324.424 149.933 324.406 149.964 324.385C153.925 322.41 157.41 317.986 155.349 313.356C152.964 307.981 144.676 308.586 142.636 313.863C142.067 315.288 141.865 316.833 142.048 318.356C142.231 319.88 142.793 321.333 143.683 322.583C140.92 322.605 138.287 321.515 136.992 318.871C135.783 316.442 136.053 313.442 136.657 310.884C137.132 308.856 133.938 308.337 133.463 310.356C132.642 313.841 132.599 317.856 134.488 321.018C136.905 325.055 141.805 326.382 146.251 325.594C148.424 327.553 150.875 329.179 153.525 330.418C152.374 333.575 151.394 336.793 150.59 340.056C148.884 347.309 148.112 354.751 148.291 362.201H148.28C141.643 363.798 134.11 364.608 128.099 361.629C127.494 361.327 120.803 357.895 118.289 357.668C117.102 357.611 115.919 357.836 114.836 358.326C113.753 358.816 112.803 359.556 112.062 360.485C109.321 364.165 111.943 368.05 113.594 369.799C114.748 371 116.072 372.025 117.523 372.842C126.955 378.238 141.751 376.112 148.96 372.799C149.651 379.096 150.79 385.335 152.37 391.469C146.273 395.365 136.269 398.689 127.559 397.837C126.534 397.739 124.894 397.502 123.221 397.318C121.596 397.072 119.95 397 118.311 397.103C115.429 397.513 113.001 399.855 112.602 401.991C111.76 406.395 115.181 409.578 117.447 410.733C119.177 411.602 121.03 412.203 122.941 412.514C134.628 414.575 149.554 407.808 155.565 402.056C156.158 403.751 156.774 405.423 157.421 407.053C173.685 448.106 206.18 476.921 249.974 482.565C261.036 483.979 291.211 484.691 302.273 483.288C344.103 477.989 375.422 463.485 400.913 439.57C408.241 446.315 421.623 451.333 432.501 449.995C433.224 449.919 433.926 449.801 434.617 449.66C435.934 449.396 437.224 449.01 438.469 448.505C439.778 447.984 440.865 447.024 441.544 445.79C442.223 444.555 442.452 443.123 442.193 441.739C441.898 440.519 441.256 439.411 440.344 438.549C439.432 437.687 438.29 437.108 437.056 436.882C435.902 436.75 434.741 436.707 433.581 436.753C432.868 436.764 432.145 436.785 431.465 436.807C430.613 436.839 429.825 436.85 429.199 436.828C422.333 436.507 415.697 434.255 410.054 430.332C411.511 428.756 412.935 427.137 414.36 425.497C417.964 421.299 421.914 416.345 425.001 411.985C431.616 415.838 447.556 418.374 458.392 414.737C460.418 414.088 462.327 413.119 464.047 411.866C465.178 411.028 465.985 409.824 466.329 408.459C466.674 407.094 466.534 405.651 465.935 404.377ZM145.981 314.295C147.708 311.672 152.413 312.633 152.672 315.827C152.699 316.679 152.519 317.525 152.146 318.292C151.774 319.059 151.221 319.724 150.536 320.23C149.534 321.013 148.401 321.613 147.19 322C145.172 319.745 144.158 317.058 145.981 314.295Z" fill="white"/>
<path d="M335.048 230.345C324.769 230.345 317.099 225.018 312.199 214.45C308.387 206.225 307.147 199.029 305.713 190.696C305.544 189.717 305.371 188.721 305.194 187.706C305.006 186.634 304.855 185.987 304.699 185.312C304.511 184.502 304.316 183.663 304.038 182.042L305.103 181.859C305.375 183.45 305.565 184.272 305.75 185.068C305.911 185.764 306.063 186.42 306.257 187.519C306.437 188.536 306.607 189.533 306.776 190.513C308.198 198.77 309.427 205.901 313.178 213.996C318.746 226.005 328.037 230.968 340.789 228.742C345.505 227.919 357.347 223.776 364.449 219.405L365.016 220.324C357.694 224.829 345.887 228.948 340.975 229.806C339.018 230.156 337.035 230.336 335.048 230.345Z" fill="black"/>
<path d="M389.161 202.963C386.833 223.937 397.013 240.937 409.205 258.367C417.514 270.245 430.965 283.908 444.639 288.721C456.986 293.068 464.982 284.786 465.995 278.705C467.591 269.13 467.033 262.626 462.849 249.034C457.241 230.812 436.564 201.68 419.483 189.934C407.416 181.636 390.651 189.535 389.161 202.963Z" fill="white"/>
<path d="M388.621 202.963C386.334 225.147 398.458 245.404 411.477 262.372C418.083 270.982 425.983 279.009 435.261 284.738C442.662 289.308 452.303 293.186 460.318 287.776C466.556 283.564 467.426 276.379 467.356 269.375C467.267 260.435 464.626 251.14 461.179 242.949C457.424 234.366 452.756 226.212 447.255 218.629C441.665 210.54 435.254 203.052 428.125 196.282C421.642 190.25 414.44 184.682 405.057 186.31C400.901 186.976 397.067 188.949 394.111 191.944C391.155 194.939 389.232 198.8 388.621 202.963C388.533 203.65 389.613 203.643 389.701 202.963C390.747 194.86 397.418 188.706 405.344 187.351C414.069 185.859 420.805 191.023 426.869 196.589C439.799 208.626 450.395 222.947 458.126 238.831C461.847 246.442 464.411 254.566 465.733 262.934C466.327 266.774 466.425 270.674 466.026 274.539C465.646 278.229 465.064 281.524 462.545 284.391C455.833 292.026 445.652 289.388 437.883 285.032C428.956 280.026 421.327 272.707 414.835 264.864C407.612 256.159 401.422 246.647 396.387 236.518C391.22 226.008 388.491 214.694 389.701 202.963C389.772 202.273 388.692 202.278 388.621 202.963Z" fill="black"/>
<path d="M442.156 236.341C443.824 235.137 443.416 231.723 441.245 228.717C439.075 225.71 435.963 224.249 434.295 225.453C432.627 226.657 433.035 230.07 435.206 233.077C437.376 236.084 440.488 237.545 442.156 236.341Z" fill="black"/>
<path d="M426.796 248.638C428.464 247.434 428.057 244.02 425.886 241.014C423.715 238.007 420.604 236.545 418.936 237.75C417.268 238.954 417.676 242.367 419.846 245.374C422.017 248.381 425.129 249.842 426.796 248.638Z" fill="black"/>
<path d="M367.159 270.649C364.762 270.65 362.423 269.907 360.466 268.522C358.508 267.137 357.028 265.18 356.231 262.919C355.433 260.658 355.356 258.205 356.011 255.898C356.666 253.592 358.02 251.545 359.887 250.041C361.754 248.537 364.042 247.649 366.435 247.499C368.828 247.35 371.208 247.946 373.248 249.207C375.287 250.467 376.886 252.329 377.822 254.536C378.759 256.743 378.988 259.187 378.478 261.529C377.911 264.111 376.481 266.422 374.423 268.081C372.365 269.739 369.802 270.645 367.159 270.649ZM367.156 248.556C365.174 248.556 363.233 249.117 361.556 250.174C359.879 251.231 358.535 252.74 357.68 254.528C356.825 256.316 356.492 258.31 356.722 260.278C356.951 262.247 357.733 264.111 358.976 265.654C360.22 267.197 361.874 268.358 363.749 269.001C365.624 269.644 367.643 269.743 369.572 269.288C371.501 268.832 373.261 267.84 374.651 266.427C376.04 265.013 377.001 263.235 377.423 261.299C377.756 259.765 377.742 258.176 377.381 256.649C377.02 255.122 376.321 253.695 375.336 252.473C374.352 251.251 373.106 250.265 371.691 249.587C370.275 248.909 368.726 248.557 367.156 248.556Z" fill="black"/>
<path d="M368.551 259.539C370.857 259.539 372.726 257.669 372.726 255.363C372.726 253.057 370.857 251.188 368.551 251.188C366.245 251.188 364.375 253.057 364.375 255.363C364.375 257.669 366.245 259.539 368.551 259.539Z" fill="black"/>
<path d="M422.033 331.976C418.989 337.642 413.086 340.966 406.687 342.79C401.927 344.15 395.959 344.7 391.448 343.502C386.462 342.175 381.972 338.398 380.656 333.412C379.339 328.437 381.983 322.425 386.894 320.882C388.948 320.353 391.088 320.243 393.186 320.558C393.66 320.602 394.124 320.655 394.578 320.699C397.265 321.022 399.531 321.443 401.722 321.799C402.92 321.994 404.096 322.166 405.316 322.285C407.56 322.523 409.822 322.552 412.072 322.371C413.496 322.263 415.04 322.069 416.766 321.767C420.889 321.033 422.616 323.332 423.177 325.512C423.61 327.734 423.202 330.038 422.033 331.976Z" fill="black"/>
<path d="M401.723 321.796C401.639 322.965 401.495 324.128 401.291 325.282C401.156 326.124 400.839 326.927 400.363 327.635C399.895 328.154 399.29 328.529 398.618 328.719C397.946 328.908 397.233 328.902 396.564 328.703C395.841 328.562 395.196 328.162 394.748 327.577C394.301 326.993 394.083 326.264 394.136 325.53C394.146 324.958 394.146 324.386 394.211 323.825C394.298 323.048 394.459 321.613 394.578 320.695C396.984 320.883 399.372 321.251 401.723 321.796Z" fill="white"/>
<path d="M412.072 322.367C412.072 323.306 412.28 326.561 411.09 327.915C410.72 328.245 410.285 328.495 409.813 328.647C409.341 328.8 408.842 328.852 408.349 328.8C407.898 328.761 407.461 328.621 407.072 328.389C406.683 328.157 406.352 327.84 406.104 327.461C405.643 326.591 405.41 325.619 405.424 324.634C405.381 324.084 405.349 322.961 405.316 322.281C407.504 322.447 409.787 322.426 412.072 322.367Z" fill="white"/>
<path d="M323.775 227.393C317.116 227.393 308.005 220.959 303.758 211.914C299.511 202.869 298.463 189.784 303.791 180.984C303.791 180.984 306.244 192.607 309.355 205.939C312.968 221.424 323.775 227.393 323.775 227.393Z" fill="black"/>
<path d="M125.585 360.285C122.897 364.472 120.21 368.659 117.523 372.847C116.072 372.029 114.748 371.004 113.594 369.803C111.943 368.055 109.321 364.17 112.062 360.49C112.803 359.56 113.753 358.82 114.836 358.331C115.919 357.841 117.102 357.615 118.289 357.673C120.862 358.083 123.336 358.969 125.585 360.285Z" fill="black"/>
<path d="M123.221 397.324C123.135 402.385 123.042 407.45 122.941 412.519C121.03 412.208 119.178 411.607 117.448 410.738C115.181 409.584 111.76 406.4 112.602 401.997C113.001 399.86 115.43 397.518 118.311 397.108C119.951 397.005 121.597 397.077 123.221 397.324Z" fill="black"/>
<path d="M369.427 255.36C370.161 255.36 370.755 254.765 370.755 254.032C370.755 253.298 370.161 252.703 369.427 252.703C368.693 252.703 368.099 253.298 368.099 254.032C368.099 254.765 368.693 255.36 369.427 255.36Z" fill="white"/>
<path d="M389.025 200.816C384.152 207.427 376.905 213.619 367.828 218.894C364.965 220.558 361.789 221.611 358.5 221.989C355.211 222.367 351.879 222.06 348.714 221.088C345.548 220.116 342.618 218.5 340.108 216.342C337.597 214.184 335.56 211.529 334.124 208.546C329.812 199.53 326.731 189.976 324.962 180.139C324.919 179.893 324.869 179.562 324.808 179.164C324.284 175.691 322.89 166.466 318 165.179C314.824 164.345 310.37 165.675 307.388 171.912C306.255 175.183 305.476 178.566 305.067 182.004L304.976 182.872L304.273 182.354C303.705 181.681 303.319 180.874 303.154 180.009C302.511 178.047 301.631 175.36 299.717 175.286C299.662 175.284 299.606 175.283 299.549 175.283C295.499 175.283 290.666 180.467 289.062 182.185C280.208 191.659 271.304 211.729 272.36 227.634C272.567 233.322 273.683 238.94 275.665 244.276L275.863 244.809L275.308 244.937C250.501 250.644 231.196 257.259 210.756 267.056C199.495 273.425 178.528 287.299 164.976 308.49C161.106 314.524 157.815 320.909 155.145 327.561L154.944 328.066L154.458 327.825C152.742 326.977 151.106 325.979 149.567 324.841L148.92 324.356L149.742 323.939C153.715 321.958 156.761 317.757 154.892 313.56C154.385 312.469 153.561 311.555 152.528 310.94C151.494 310.324 150.298 310.034 149.097 310.108C147.821 310.097 146.569 310.466 145.502 311.167C144.435 311.868 143.6 312.87 143.103 314.046C142.565 315.397 142.374 316.862 142.548 318.306C142.723 319.75 143.257 321.127 144.102 322.311L144.603 323.078L143.687 323.085C140.392 323.067 137.798 321.655 136.543 319.091C135.492 316.98 135.366 314.179 136.17 310.77C136.208 310.645 136.217 310.514 136.199 310.385C136.181 310.256 136.135 310.132 136.064 310.023C135.994 309.913 135.9 309.82 135.79 309.75C135.681 309.68 135.557 309.634 135.428 309.616C135.275 309.571 135.114 309.558 134.955 309.577C134.797 309.596 134.644 309.647 134.506 309.727C134.367 309.807 134.247 309.914 134.151 310.042C134.056 310.17 133.987 310.316 133.95 310.471C133.403 312.795 132.802 317.22 134.918 320.762C137.001 324.242 141.416 325.942 146.165 325.103L146.411 325.059L146.593 325.23C148.73 327.153 151.139 328.749 153.742 329.968L154.15 330.165L153.995 330.591C152.851 333.731 151.876 336.931 151.076 340.176C149.378 347.388 148.611 354.788 148.792 362.195L148.799 362.703H148.34C139.63 364.79 132.937 364.585 127.877 362.079L127.748 362.013C123.17 359.701 119.706 358.299 118.244 358.168C117.143 358.12 116.046 358.333 115.042 358.787C114.038 359.242 113.155 359.926 112.464 360.785C109.725 364.462 112.915 368.352 113.959 369.457C115.078 370.621 116.362 371.616 117.77 372.409C127.144 377.772 141.798 375.543 148.752 372.346L149.383 372.056L149.458 372.747C150.145 379.02 151.28 385.235 152.855 391.346L152.945 391.697L152.64 391.891C146.627 395.734 136.529 399.218 127.511 398.336C126.974 398.285 126.267 398.195 125.475 398.095C124.755 398.005 123.965 397.905 123.167 397.817C121.583 397.581 119.98 397.508 118.382 397.599C115.647 397.988 113.44 400.233 113.093 402.085C112.284 406.316 115.736 409.301 117.674 410.289C119.359 411.135 121.163 411.719 123.024 412.022C134.658 414.077 149.448 407.22 155.219 401.696L155.78 401.159L156.037 401.892C156.682 403.734 157.288 405.362 157.886 406.87C174.687 449.279 208.276 476.688 250.039 482.071C261.424 483.526 291.39 484.166 302.211 482.794C343.147 477.608 374.402 463.758 400.571 439.207L400.91 438.888L401.252 439.203C408.972 446.311 422.382 450.739 432.44 449.5C433.087 449.432 433.764 449.325 434.517 449.172C435.804 448.914 437.064 448.537 438.281 448.044C439.481 447.56 440.478 446.676 441.101 445.542C441.724 444.408 441.936 443.093 441.7 441.82C441.427 440.702 440.835 439.687 439.996 438.898C439.158 438.109 438.108 437.581 436.975 437.377C435.851 437.253 434.719 437.213 433.588 437.255C432.879 437.265 432.158 437.287 431.481 437.308C430.559 437.342 429.784 437.35 429.181 437.33C422.221 437.012 415.494 434.731 409.777 430.749L409.29 430.424L409.687 429.993C411.221 428.335 412.719 426.625 413.982 425.17C417.865 420.649 421.733 415.738 424.593 411.697L424.858 411.324L425.254 411.554C431.373 415.118 447.263 417.947 458.233 414.264C460.208 413.632 462.069 412.688 463.746 411.469C464.783 410.695 465.522 409.587 465.837 408.332C466.153 407.078 466.026 405.752 465.478 404.58C464.934 403.566 464.106 402.734 463.096 402.184C462.085 401.635 460.936 401.392 459.79 401.487C458.451 401.683 457.131 401.987 455.842 402.398L455.237 402.577C454.112 402.908 453.049 403.221 452.227 403.398C445.348 404.805 438.212 404.261 431.626 401.829L431.041 401.626L431.362 401.096C436.398 392.917 440.704 384.309 444.23 375.373C457.261 341.491 465.441 303.616 464.124 283.268L465.122 283.204C466.448 303.68 458.241 341.729 445.164 375.732C441.694 384.531 437.471 393.012 432.54 401.083C438.789 403.29 445.522 403.753 452.014 402.422C452.802 402.252 453.847 401.943 454.954 401.617L455.564 401.438C456.912 401.008 458.294 400.691 459.695 400.491C461.048 400.39 462.401 400.684 463.589 401.338C464.778 401.992 465.751 402.976 466.391 404.173C467.034 405.551 467.182 407.109 466.809 408.584C466.437 410.059 465.567 411.36 464.346 412.267C462.584 413.552 460.628 414.546 458.551 415.212C447.382 418.961 431.82 416.277 425.148 412.642C422.298 416.636 418.526 421.415 414.739 425.824C413.579 427.16 412.223 428.709 410.821 430.239C416.275 433.926 422.642 436.034 429.219 436.33C429.796 436.352 430.545 436.343 431.447 436.308C432.132 436.287 432.858 436.265 433.573 436.255C434.761 436.211 435.951 436.256 437.132 436.389C438.469 436.636 439.705 437.265 440.691 438.2C441.677 439.136 442.37 440.337 442.686 441.659C442.962 443.155 442.711 444.701 441.977 446.033C441.242 447.366 440.07 448.403 438.658 448.97C437.384 449.486 436.064 449.882 434.715 450.152C433.931 450.311 433.223 450.424 432.553 450.493C422.391 451.747 408.884 447.354 400.918 440.251C374.657 464.757 343.317 478.595 302.336 483.786C296.027 484.384 289.691 484.639 283.355 484.55C271.019 484.55 256.939 483.961 249.912 483.063C207.776 477.633 173.895 449.996 156.957 407.239C156.431 405.917 155.902 404.505 155.346 402.938C149.07 408.505 134.448 415.056 122.854 413.008C120.895 412.688 118.995 412.072 117.221 411.18C115.051 410.074 111.19 406.713 112.11 401.899C112.578 399.397 115.328 397.024 118.241 396.609C119.923 396.501 121.612 396.572 123.279 396.823C124.08 396.911 124.876 397.012 125.6 397.103C126.38 397.202 127.076 397.29 127.606 397.34C136.233 398.191 145.895 394.915 151.796 391.242C150.313 385.419 149.225 379.503 148.539 373.533C141.169 376.66 126.674 378.655 117.274 373.277C115.782 372.436 114.421 371.381 113.233 370.146C112.053 368.896 108.457 364.489 111.661 360.187C112.454 359.191 113.472 358.397 114.633 357.873C115.793 357.348 117.061 357.108 118.333 357.172C120.501 357.367 125.444 359.729 128.198 361.121L128.323 361.183C133.1 363.552 139.472 363.755 147.786 361.806C147.637 354.448 148.416 347.101 150.105 339.938C150.877 336.803 151.811 333.71 152.902 330.672C150.436 329.474 148.145 327.946 146.092 326.13C141.027 326.939 136.321 325.053 134.059 321.276C132.357 318.426 131.972 314.508 132.976 310.243C133.042 309.959 133.164 309.691 133.336 309.455C133.508 309.22 133.725 309.021 133.975 308.872C134.226 308.723 134.504 308.625 134.792 308.586C135.081 308.546 135.375 308.565 135.656 308.642C135.914 308.689 136.16 308.789 136.377 308.936C136.594 309.082 136.779 309.272 136.918 309.494C137.058 309.716 137.151 309.964 137.189 310.223C137.228 310.482 137.213 310.747 137.144 311C136.394 314.176 136.494 316.749 137.44 318.649C137.945 319.64 138.707 320.477 139.645 321.075C140.583 321.673 141.664 322.009 142.776 322.049C142.042 320.794 141.605 319.387 141.5 317.937C141.395 316.488 141.624 315.033 142.169 313.685C142.738 312.325 143.697 311.163 144.926 310.348C146.155 309.534 147.598 309.102 149.073 309.108C150.47 309.039 151.856 309.386 153.055 310.107C154.254 310.827 155.212 311.888 155.806 313.154C157.83 317.698 154.892 322.193 150.806 324.505C151.961 325.311 153.168 326.039 154.419 326.684C157.077 320.156 160.329 313.885 164.133 307.951C177.801 286.578 198.921 272.6 210.294 266.171C230.68 256.397 249.915 249.785 274.531 244.09C272.639 238.822 271.571 233.295 271.362 227.701C270.289 211.529 279.335 191.129 288.332 181.503C291.235 178.389 295.535 174.283 299.545 174.283C299.616 174.283 299.685 174.284 299.754 174.287C302.365 174.388 303.371 177.457 304.104 179.698C304.163 179.877 304.227 180.072 304.294 180.267C304.734 177.273 305.468 174.33 306.486 171.48C309.73 164.694 314.692 163.276 318.254 164.213C323.781 165.666 325.246 175.363 325.797 179.014C325.856 179.403 325.905 179.726 325.947 179.966C327.699 189.712 330.752 199.178 335.024 208.111C336.4 210.97 338.353 213.514 340.759 215.583C343.165 217.651 345.973 219.2 349.007 220.131C352.04 221.063 355.233 221.357 358.386 220.995C361.538 220.634 364.582 219.624 367.326 218.03C377.826 211.928 385.833 204.599 390.48 196.837L391.355 197.32L389.025 200.816Z" fill="black"/>
<path d="M323.926 174.5C321.376 180.787 320.722 189.445 323.775 198.755C326.698 207.671 334.66 216.271 342.491 217.553C338.883 214.838 335.985 211.293 334.042 207.217C330.883 200.083 328.351 192.687 326.477 185.113C325.467 180.218 323.926 174.5 323.926 174.5Z" fill="black"/>
<path d="M353.82 412.542C353.765 412.937 353.632 413.317 353.429 413.66C353.225 414.003 352.955 414.301 352.635 414.539C352.315 414.776 351.951 414.947 351.564 415.042C351.176 415.137 350.774 415.154 350.381 415.093L344.95 414.493C344.246 414.383 343.605 414.025 343.141 413.485C342.677 412.944 342.421 412.255 342.42 411.542C342.24 385.242 338.53 358.602 327.49 334.762C321.25 321.272 313.321 307.123 302.431 297.033C291.27 287.073 269.331 271.573 225.99 280.803C208.06 284.623 189.5 292.732 167.7 289.102C151.061 286.322 133.44 275.523 127.831 251.092C126.422 245.724 125.535 240.232 125.181 234.693C137.681 235.513 157.19 232.673 168.851 229.663C176.271 227.743 187.531 222.542 193.76 215.312C214.78 217.533 235 221.542 255.71 226.292C268.621 229.262 281.791 232.323 293.131 239.183C304.851 246.263 317.65 256.982 326.141 267.722C359.431 311.102 361.44 358.013 353.82 412.542Z" fill="black"/>
<path d="M84.677 91.3981C84.4422 91.3303 84.1957 91.3126 83.9536 91.346C83.7114 91.3795 83.479 91.4635 83.2714 91.5924C83.0637 91.7214 82.8855 91.8926 82.7482 92.0948C82.6108 92.297 82.5175 92.5258 82.4742 92.7664C76.789 124.785 76.9489 159.211 84.0327 190.892C86.4148 201.546 89.6407 212.314 96.2761 220.983C102.894 229.629 112.845 233.698 124.352 234.628C136.804 235.635 156.926 232.742 168.846 229.658C177.855 227.326 192.524 220.166 196.994 210.41C201.198 200.815 201.926 190.054 199.054 179.979C192.014 156.732 180.352 138.234 164.197 120.096C148.38 102.337 122.354 88.5495 98.5484 86.1568C98.1638 86.1187 97.7775 86.2112 97.4517 86.4192C97.126 86.6273 96.8797 86.9388 96.7525 87.3038C95.4541 91.0742 90.188 92.5187 87.5418 92.0623C86.5759 91.8909 85.6197 91.6692 84.677 91.3981Z" fill="white"/>
<path d="M129.827 235.328C127.861 235.328 126.007 235.264 124.311 235.126C111.694 234.107 102.128 229.451 95.8782 221.287C88.9534 212.239 85.7581 200.9 83.5442 191.001C76.6087 159.982 76.0677 125.982 81.9817 92.6792C82.0373 92.3698 82.1573 92.0755 82.3337 91.8153C82.5102 91.5551 82.7393 91.3349 83.0062 91.1688C83.2731 91.0027 83.5719 90.8945 83.8832 90.8511C84.1946 90.8077 84.5116 90.8302 84.8137 90.917C85.739 91.1842 86.6778 91.4021 87.6262 91.5698C89.9094 91.9638 95.0344 90.7563 96.2796 87.1406C96.4438 86.6694 96.7617 86.2671 97.1822 85.9984C97.6027 85.7297 98.1013 85.6102 98.5979 85.6592C121.982 88.0093 148.494 101.715 164.57 119.763C182.144 139.493 192.926 158.02 199.532 179.834C202.467 190.023 201.729 200.919 197.448 210.619C192.812 220.735 177.877 227.836 168.97 230.142C158.273 232.91 141.906 235.328 129.827 235.328ZM84.1947 91.831C83.9589 91.8309 83.7278 91.8968 83.5277 92.0215C83.3805 92.1126 83.2543 92.234 83.1576 92.3775C83.0608 92.521 82.9955 92.6834 82.9661 92.854C77.0755 126.028 77.6126 159.892 84.5208 190.784C86.7103 200.576 89.8655 211.786 96.6732 220.679C102.743 228.608 112.069 233.134 124.391 234.129C136.398 235.101 156.361 232.373 168.72 229.174C177.109 227.002 192.079 219.932 196.54 210.202C200.67 200.714 201.39 190.089 198.577 180.13C192.013 158.456 181.295 140.044 163.824 120.428C147.903 102.554 121.651 88.9809 98.4984 86.6543C98.2261 86.6289 97.9531 86.695 97.7225 86.842C97.4919 86.989 97.3168 87.2087 97.2249 87.4663C95.7786 91.6631 90.0931 93.0107 87.4564 92.5551C86.4731 92.3812 85.4998 92.1555 84.5404 91.8789C84.4279 91.847 84.3115 91.8309 84.1947 91.831Z" fill="black"/>
<path d="M112.241 39.884C112.461 40.714 112.601 41.324 112.631 41.484C113.701 46.924 114.251 52.254 109.151 55.664C104.871 58.534 94.3307 58.804 91.5507 62.024C89.4506 64.444 90.1007 70.634 90.6906 74.014C91.6954 78.9916 93.6658 83.7241 96.4906 87.944C94.8507 91.244 90.0406 92.494 87.5406 92.064C86.6571 91.9112 85.7824 91.7109 84.9205 91.464C83.5306 84.204 82.8707 76.844 81.4705 69.414C81.3206 68.2939 80.7805 65.574 80.7005 64.904C79.0606 51.484 77.8206 49.114 76.6905 38.644C75.5606 28.124 77.1106 19.474 82.3106 15.354C85.9905 12.434 93.1106 9.99401 102.121 19.244C105.929 23.2868 108.788 28.1274 110.491 33.414C110.491 33.414 113.211 33.464 114.141 33.564C116.44 33.804 117.4 34.794 117.431 36.384C117.461 38.7339 114.511 39.3639 112.241 39.884Z" fill="white"/>
<path d="M88.6033 92.6465C88.219 92.6486 87.8351 92.6183 87.4559 92.5557C86.5546 92.3997 85.6624 92.1955 84.783 91.9439L84.4871 91.8594L84.4295 91.5572C83.7264 87.8824 83.2 84.1162 82.6912 80.4742C82.1893 76.8863 81.6707 73.1763 80.9793 69.5059C80.8963 68.8882 80.7068 67.8477 80.5359 66.9034C80.3816 66.0537 80.2429 65.2804 80.2049 64.9624C79.3777 58.2032 78.6424 54.1919 77.9939 50.6529C77.3563 47.1797 76.7547 43.899 76.1932 38.6969C74.9539 27.1607 76.9617 18.9527 81.9998 14.961C84.823 12.7208 92.4715 8.61971 102.479 18.8941C106.252 22.9129 109.116 27.6969 110.875 32.921C111.659 32.9386 113.453 32.9864 114.194 33.066C116.636 33.3204 117.893 34.4332 117.93 36.3731C117.964 38.9429 115.121 39.7291 112.854 40.255C113.004 40.8438 113.097 41.2608 113.122 41.3902C114.197 46.8521 114.798 52.4888 109.429 56.0787C107.383 57.4503 104.008 58.2388 100.743 59.0015C97.0955 59.8536 93.323 60.7349 91.9295 62.3497C89.7918 64.8131 90.8172 71.8336 91.1824 73.9268C92.1745 78.842 94.1225 83.5145 96.9158 87.6788L97.0633 87.9156L96.9383 88.1656C95.4441 91.1709 91.4588 92.6465 88.6033 92.6465ZM85.3543 91.0645C86.117 91.2725 86.8963 91.4463 87.6248 91.5704C89.9988 91.9747 94.3162 90.7691 95.9148 87.962C93.1325 83.7623 91.1922 79.0621 90.2019 74.1226C89.7049 71.2754 88.8133 64.4146 91.1726 61.6954C92.7791 59.835 96.5369 58.9571 100.515 58.0279C103.692 57.2857 106.977 56.5181 108.872 55.2481C113.734 51.9971 113.192 46.9273 112.14 41.5796C112.11 41.419 111.972 40.8228 111.758 40.0108L111.626 39.5108L112.258 39.3663C114.35 38.8873 116.955 38.2916 116.93 36.3893C116.913 35.443 116.573 34.3194 114.089 34.0602C113.189 33.9635 110.509 33.9137 110.482 33.9132L110.101 33.9063L110.007 33.5377C108.331 28.3331 105.515 23.5685 101.762 19.5919C92.6619 10.2471 85.8631 13.1714 82.6209 15.7447C77.866 19.5127 75.9871 27.4121 77.1873 38.5899C77.7449 43.7549 78.3162 46.8677 78.9773 50.4722C79.6287 54.0254 80.3669 58.0523 81.197 64.8423C81.2341 65.1519 81.3709 65.9014 81.5203 66.7251C81.6941 67.6861 81.8855 68.7451 81.9666 69.3472C82.658 73.0142 83.1785 76.7364 83.6814 80.3355C84.1746 83.8648 84.6844 87.5108 85.3543 91.0645Z" fill="black"/>
<path d="M97.0205 30.9131C97.0118 30.0037 97.2883 29.1145 97.811 28.3703C98.3338 27.6261 99.0766 27.0644 99.9351 26.7642C100.843 26.4528 100.453 25.0034 99.5363 25.3178C98.3643 25.7108 97.3457 26.4627 96.6249 27.467C95.9041 28.4713 95.5177 29.677 95.5205 30.9131C95.5273 31.1075 95.6092 31.2917 95.7491 31.4269C95.8891 31.562 96.076 31.6376 96.2705 31.6376C96.4651 31.6376 96.652 31.562 96.7919 31.4269C96.9318 31.2917 97.0138 31.1075 97.0205 30.9131Z" fill="black"/>
<path d="M101.874 31.781C102.428 31.781 102.878 31.3316 102.878 30.7772C102.878 30.2228 102.428 29.7734 101.874 29.7734C101.32 29.7734 100.87 30.2228 100.87 30.7772C100.87 31.3316 101.32 31.781 101.874 31.781Z" fill="black"/>
<path d="M105.818 45.824C106.398 46.8052 107.242 47.6041 108.254 48.13C109.266 48.6559 110.404 48.8878 111.541 48.7993C112.178 48.7488 112.184 47.7483 111.541 47.7993C110.58 47.8867 109.613 47.7002 108.753 47.2613C107.893 46.8224 107.175 46.1491 106.681 45.3193C106.612 45.2095 106.503 45.131 106.377 45.1002C106.251 45.0694 106.118 45.0888 106.006 45.1543C105.894 45.2198 105.811 45.3262 105.776 45.4512C105.741 45.5761 105.756 45.7098 105.818 45.824Z" fill="black"/>
<path d="M82.2215 34.4371C83.6256 34.1525 82.3996 31.5026 82.1293 30.1493C81.2516 25.7536 83.171 22.7643 85.926 20.3648C88.1108 18.5469 90.8372 17.5056 93.6776 17.4042C96.2648 17.4849 98.8347 17.8576 101.338 18.5152C100.833 13.2598 99.1719 6.68179 94.6355 3.3847C91.6703 1.2296 88.7406 1.82085 87.1325 3.58128C86.1133 4.69712 85.9598 6.382 85.0278 7.57174C83.7498 9.20316 81.4395 9.46489 79.503 10.203C75.0827 11.8879 72.246 16.5738 71.9114 21.2924C71.605 26.342 72.9325 31.3561 75.6974 35.5926L82.2215 34.4371Z" fill="black"/>
<path d="M82.0821 33.9833C81.4171 33.4038 80.5617 33.09 79.6797 33.1019C78.7978 33.1138 77.9512 33.4506 77.3021 34.0479C76.6778 34.6719 76.2 35.4269 75.9033 36.2582C75.6065 37.0896 75.4983 37.9765 75.5864 38.8548C75.6421 40.5373 76.2887 42.1465 77.4127 43.3998C77.9795 44.0147 78.6897 44.4798 79.4799 44.7538C80.2701 45.0277 81.1157 45.102 81.9416 44.97C82.7629 44.8117 83.5128 44.3965 84.0829 43.7844C84.653 43.1723 85.0138 42.3948 85.1134 41.5643L82.0821 33.9833Z" fill="white"/>
<path d="M81.1085 45.5492C80.3453 45.5365 79.5925 45.37 78.8951 45.0596C78.1978 44.7493 77.5702 44.3015 77.0499 43.743C75.8413 42.4055 75.1458 40.6829 75.087 38.8812C74.9892 37.9272 75.1078 36.9634 75.4339 36.0615C75.76 35.1597 76.2854 34.343 76.9708 33.6722C77.7143 32.9851 78.6877 32.6005 79.7001 32.5938C80.7125 32.5872 81.6908 32.9589 82.4434 33.6361C82.5347 33.732 82.5842 33.8602 82.5811 33.9926C82.578 34.1249 82.5226 34.2507 82.427 34.3423C82.3314 34.4339 82.2034 34.4838 82.071 34.4813C81.9386 34.4787 81.8127 34.4237 81.7208 34.3284C81.1458 33.8415 80.4124 33.582 79.6592 33.5991C78.906 33.6162 78.1851 33.9087 77.6329 34.4212C77.0659 34.9959 76.6332 35.6889 76.3656 36.4505C76.098 37.2121 76.0022 38.0235 76.085 38.8265C76.1311 40.3911 76.7296 41.8889 77.7745 43.0545C78.284 43.6076 78.9218 44.0268 79.6317 44.2752C80.3415 44.5235 81.1016 44.5932 81.8448 44.4783C82.5596 44.3435 83.213 43.9851 83.7108 43.4547C84.2086 42.9244 84.525 42.2495 84.6143 41.5277C84.6248 41.3962 84.6869 41.2741 84.787 41.1881C84.8871 41.1022 85.017 41.0592 85.1487 41.0686C85.2803 41.078 85.4028 41.139 85.4897 41.2383C85.5765 41.3377 85.6206 41.4673 85.6123 41.599C85.5028 42.5383 85.0976 43.4186 84.4551 44.1126C83.8127 44.8065 82.9662 45.2783 82.0381 45.4598C81.7318 45.5196 81.4205 45.5495 81.1085 45.5492Z" fill="black"/>
<path d="M80.4334 36.1233C77.3749 35.7515 76.5316 40.2579 79.2734 41.29C79.8093 41.4917 80.0409 40.6329 79.5097 40.4329C77.6377 39.7283 78.4477 36.7707 80.4334 37.0121C80.9999 37.081 80.9949 36.1916 80.4334 36.1233Z" fill="black"/>
<path d="M343.587 413.633C340.386 419.391 339.338 426.101 340.632 432.561C340.666 432.774 340.744 432.978 340.863 433.159C341.028 433.316 341.224 433.436 341.44 433.511C341.655 433.585 341.884 433.613 342.11 433.591L346.018 433.757C346.206 433.765 346.394 433.734 346.569 433.668C346.745 433.601 346.906 433.499 347.041 433.368C347.176 433.238 347.284 433.081 347.357 432.908C347.43 432.734 347.467 432.548 347.465 432.36L347.451 430.465C347.445 429.605 347.518 428.592 348.244 428.133C349.376 427.417 350.74 428.788 351.066 430.087C351.391 431.386 351.393 432.93 352.436 433.77C353.339 434.318 354.412 434.511 355.449 434.311L369.959 433.289C370.724 433.236 373.167 433.261 373.469 432.88C374.371 431.747 374.524 427.942 371.845 426.053C371.029 425.512 370.103 425.156 369.135 425.01L358.164 423.022C356.173 422.661 353.805 421.972 353.281 420.017C352.901 418.598 353.275 415.816 352.093 414.316L343.587 413.633Z" fill="black"/>
<path d="M166.147 287.358C166.066 287.358 165.987 287.338 165.916 287.301C165.798 287.24 165.71 287.134 165.67 287.008C165.63 286.881 165.642 286.744 165.704 286.626C166.292 285.485 166.701 284.259 166.917 282.993C166.94 282.863 167.014 282.747 167.123 282.672C167.231 282.596 167.365 282.567 167.495 282.59C167.625 282.613 167.741 282.686 167.817 282.794C167.893 282.902 167.923 283.036 167.901 283.166C167.667 284.533 167.225 285.856 166.59 287.089C166.548 287.17 166.484 287.238 166.406 287.286C166.328 287.333 166.238 287.358 166.147 287.358ZM167.608 279.593C167.48 279.593 167.358 279.544 167.265 279.457C167.172 279.369 167.117 279.25 167.109 279.123C167.024 277.819 166.834 276.524 166.54 275.251C166.525 275.187 166.523 275.12 166.535 275.056C166.546 274.991 166.569 274.929 166.604 274.874C166.639 274.818 166.685 274.77 166.739 274.732C166.792 274.694 166.853 274.667 166.917 274.653C166.981 274.638 167.047 274.637 167.111 274.648C167.176 274.659 167.238 274.683 167.293 274.718C167.349 274.753 167.397 274.798 167.435 274.852C167.473 274.905 167.5 274.966 167.514 275.03C167.821 276.356 168.019 277.705 168.107 279.064C168.111 279.129 168.102 279.195 168.08 279.257C168.059 279.319 168.025 279.376 167.982 279.426C167.938 279.475 167.885 279.515 167.826 279.543C167.767 279.572 167.703 279.588 167.637 279.592L167.608 279.593ZM165.911 271.799C165.807 271.799 165.706 271.767 165.622 271.707C165.537 271.647 165.473 271.562 165.439 271.464C165.026 270.287 164.529 269.05 163.962 267.79C163.908 267.669 163.904 267.531 163.951 267.407C163.998 267.283 164.092 267.183 164.213 267.128C164.334 267.074 164.472 267.07 164.596 267.117C164.72 267.164 164.82 267.258 164.875 267.379C165.453 268.665 165.961 269.929 166.382 271.134C166.404 271.196 166.413 271.262 166.41 271.327C166.406 271.393 166.39 271.457 166.361 271.516C166.333 271.575 166.293 271.628 166.244 271.672C166.195 271.716 166.138 271.749 166.076 271.771C166.023 271.79 165.967 271.799 165.911 271.799ZM162.651 264.488C162.56 264.488 162.471 264.463 162.393 264.416C162.316 264.369 162.252 264.302 162.21 264.222C161.607 263.088 160.948 261.924 160.249 260.762C160.215 260.706 160.192 260.643 160.182 260.578C160.172 260.513 160.175 260.447 160.191 260.383C160.207 260.319 160.235 260.259 160.274 260.206C160.313 260.153 160.362 260.108 160.419 260.075C160.475 260.041 160.538 260.018 160.603 260.008C160.668 259.999 160.734 260.002 160.798 260.018C160.862 260.034 160.922 260.062 160.975 260.102C161.028 260.141 161.072 260.19 161.106 260.247C161.814 261.424 162.482 262.604 163.092 263.753C163.123 263.811 163.142 263.875 163.149 263.94C163.155 264.006 163.148 264.071 163.129 264.134C163.11 264.197 163.079 264.255 163.037 264.306C162.995 264.357 162.943 264.398 162.885 264.429C162.813 264.468 162.733 264.488 162.651 264.488ZM158.536 257.62C158.453 257.62 158.372 257.599 158.3 257.561C158.227 257.522 158.165 257.465 158.12 257.396C157.394 256.306 156.629 255.203 155.847 254.12C155.809 254.066 155.781 254.006 155.766 253.942C155.75 253.878 155.748 253.812 155.758 253.747C155.769 253.682 155.792 253.62 155.826 253.564C155.861 253.508 155.906 253.459 155.959 253.421C156.012 253.382 156.073 253.355 156.137 253.339C156.201 253.324 156.267 253.322 156.332 253.332C156.397 253.343 156.459 253.366 156.515 253.401C156.571 253.435 156.619 253.48 156.658 253.534C157.448 254.628 158.22 255.741 158.952 256.843C159.002 256.918 159.031 257.006 159.035 257.096C159.039 257.186 159.019 257.276 158.976 257.356C158.933 257.435 158.87 257.502 158.792 257.549C158.715 257.595 158.626 257.62 158.536 257.62ZM129.332 256.962C129.202 256.962 129.077 256.912 128.984 256.821C128.89 256.73 128.836 256.607 128.832 256.477C128.828 256.347 128.875 256.221 128.963 256.125C129.051 256.029 129.173 255.971 129.302 255.963C130.615 255.858 131.92 255.68 133.212 255.43C133.343 255.406 133.477 255.435 133.586 255.51C133.695 255.585 133.77 255.7 133.794 255.83C133.818 255.961 133.79 256.095 133.715 256.204C133.641 256.314 133.526 256.389 133.396 256.414C132.062 256.673 130.715 256.855 129.361 256.961L129.332 256.962ZM137.206 255.523C137.085 255.523 136.968 255.479 136.876 255.4C136.785 255.32 136.726 255.21 136.71 255.09C136.693 254.97 136.721 254.848 136.788 254.747C136.855 254.646 136.956 254.573 137.073 254.541C138.361 254.185 139.627 253.773 140.835 253.318C140.959 253.271 141.097 253.276 141.217 253.331C141.338 253.385 141.432 253.486 141.479 253.609C141.525 253.733 141.521 253.871 141.467 253.991C141.413 254.112 141.313 254.206 141.189 254.253C139.952 254.72 138.657 255.141 137.338 255.505C137.295 255.517 137.25 255.523 137.206 255.523ZM144.675 252.681C144.563 252.681 144.454 252.643 144.366 252.573C144.277 252.504 144.215 252.406 144.189 252.297C144.163 252.188 144.175 252.073 144.222 251.971C144.269 251.869 144.349 251.786 144.45 251.735C145.623 251.145 146.76 250.483 147.852 249.754C147.907 249.717 147.968 249.692 148.032 249.679C148.096 249.666 148.163 249.666 148.227 249.679C148.291 249.691 148.353 249.717 148.407 249.753C148.462 249.789 148.509 249.836 148.545 249.891C148.582 249.945 148.607 250.006 148.62 250.071C148.633 250.135 148.633 250.201 148.621 250.266C148.608 250.33 148.583 250.391 148.546 250.446C148.51 250.5 148.463 250.547 148.409 250.584C147.283 251.337 146.111 252.019 144.901 252.627C144.831 252.663 144.754 252.681 144.675 252.681ZM153.843 251.123C153.767 251.123 153.693 251.106 153.624 251.073C153.556 251.039 153.496 250.991 153.45 250.931C152.325 249.493 151.483 248.5 151.157 248.121C151.082 248.099 151.014 248.058 150.961 248C150.915 247.96 150.877 247.909 150.85 247.853C150.824 247.797 150.81 247.736 150.809 247.673C150.807 247.611 150.819 247.55 150.843 247.492C150.867 247.435 150.903 247.383 150.948 247.34L151.282 247.71L150.997 247.296L151.373 246.953L151.759 247.289C151.769 247.3 152.767 248.435 154.237 250.315C154.295 250.389 154.33 250.477 154.34 250.57C154.35 250.664 154.334 250.758 154.293 250.842C154.252 250.926 154.188 250.997 154.108 251.047C154.029 251.097 153.937 251.123 153.843 251.123Z" fill="white"/>
<path d="M348.938 411.556C348.904 411.556 348.87 411.553 348.837 411.545C348.772 411.532 348.711 411.506 348.657 411.469C348.603 411.433 348.556 411.385 348.52 411.33C348.484 411.275 348.459 411.214 348.447 411.15C348.435 411.085 348.435 411.019 348.449 410.954C348.47 410.847 348.492 410.733 348.512 410.613C348.523 410.548 348.547 410.486 348.582 410.43C348.617 410.374 348.662 410.326 348.716 410.287C348.769 410.249 348.83 410.222 348.894 410.207C348.958 410.193 349.025 410.191 349.09 410.202C349.155 410.213 349.217 410.237 349.272 410.272C349.328 410.307 349.376 410.353 349.414 410.406C349.452 410.46 349.479 410.521 349.494 410.585C349.508 410.649 349.51 410.716 349.499 410.781C349.476 410.912 349.453 411.038 349.427 411.158C349.404 411.27 349.343 411.371 349.254 411.444C349.164 411.516 349.053 411.556 348.938 411.556ZM349.406 407.218C349.396 407.218 349.385 407.218 349.375 407.217C349.309 407.213 349.245 407.196 349.186 407.167C349.127 407.138 349.074 407.098 349.031 407.049C348.987 407 348.954 406.942 348.933 406.88C348.912 406.818 348.903 406.752 348.907 406.687C348.978 405.54 349.035 404.202 349.075 402.707C349.078 402.577 349.133 402.453 349.226 402.363C349.319 402.272 349.445 402.221 349.575 402.221H349.589C349.654 402.223 349.719 402.237 349.779 402.264C349.839 402.291 349.893 402.329 349.938 402.377C349.983 402.425 350.019 402.481 350.042 402.542C350.066 402.604 350.077 402.669 350.075 402.735C350.034 404.24 349.976 405.59 349.905 406.749C349.897 406.876 349.841 406.995 349.748 407.083C349.656 407.17 349.533 407.218 349.406 407.218ZM349.644 399.221H349.64C349.575 399.221 349.51 399.207 349.449 399.182C349.389 399.156 349.334 399.119 349.288 399.072C349.242 399.025 349.205 398.97 349.181 398.909C349.156 398.848 349.144 398.783 349.144 398.717C349.15 397.965 349.153 397.193 349.153 396.4L349.148 394.723C349.147 394.59 349.199 394.463 349.293 394.369C349.386 394.274 349.513 394.221 349.645 394.22H349.648C349.78 394.22 349.907 394.272 350.001 394.365C350.094 394.459 350.147 394.585 350.148 394.717L350.153 396.4C350.153 397.195 350.15 397.97 350.144 398.725C350.143 398.857 350.09 398.983 349.996 399.076C349.903 399.169 349.776 399.221 349.644 399.221ZM349.605 391.216C349.474 391.216 349.348 391.165 349.254 391.073C349.161 390.98 349.107 390.855 349.105 390.724C349.085 389.422 349.057 388.086 349.023 386.727C349.021 386.661 349.033 386.596 349.056 386.535C349.08 386.473 349.115 386.417 349.16 386.37C349.206 386.322 349.26 386.284 349.32 386.257C349.38 386.23 349.445 386.216 349.51 386.214H349.523C349.654 386.214 349.779 386.265 349.872 386.356C349.966 386.447 350.02 386.571 350.023 386.702C350.057 388.065 350.085 389.403 350.105 390.708C350.107 390.841 350.056 390.969 349.964 391.064C349.872 391.159 349.745 391.214 349.613 391.216H349.605ZM349.409 383.212C349.279 383.212 349.154 383.162 349.061 383.072C348.968 382.981 348.913 382.859 348.909 382.729C348.865 381.41 348.815 380.078 348.76 378.733C348.755 378.6 348.803 378.471 348.893 378.374C348.983 378.276 349.107 378.218 349.24 378.212C349.371 378.211 349.499 378.26 349.595 378.349C349.692 378.438 349.751 378.561 349.76 378.692C349.815 380.037 349.865 381.375 349.909 382.696C349.913 382.828 349.865 382.957 349.774 383.054C349.683 383.151 349.558 383.208 349.425 383.212H349.409ZM349.082 375.213C348.953 375.213 348.83 375.164 348.737 375.075C348.644 374.987 348.589 374.866 348.583 374.738C348.517 373.406 348.447 372.074 348.372 370.744C348.364 370.611 348.41 370.481 348.498 370.382C348.586 370.284 348.71 370.224 348.842 370.216C348.909 370.209 348.976 370.216 349.039 370.236C349.103 370.256 349.161 370.29 349.211 370.334C349.26 370.379 349.3 370.433 349.328 370.494C349.355 370.554 349.369 370.62 349.37 370.687C349.445 372.018 349.515 373.355 349.581 374.689C349.584 374.754 349.574 374.82 349.552 374.882C349.53 374.944 349.496 375.001 349.452 375.049C349.408 375.098 349.355 375.137 349.295 375.165C349.236 375.193 349.172 375.209 349.106 375.212L349.082 375.213ZM348.627 367.219C348.5 367.219 348.377 367.171 348.285 367.084C348.192 366.997 348.136 366.878 348.128 366.751C348.04 365.41 347.947 364.078 347.849 362.763C347.841 362.631 347.885 362.502 347.971 362.402C348.058 362.303 348.18 362.241 348.312 362.232C348.443 362.222 348.573 362.264 348.673 362.35C348.774 362.436 348.836 362.557 348.847 362.689C348.945 364.007 349.038 365.34 349.126 366.687C349.134 366.819 349.09 366.949 349.002 367.049C348.915 367.149 348.791 367.21 348.659 367.218C348.648 367.219 348.637 367.219 348.627 367.219ZM348.031 359.235C347.906 359.235 347.785 359.188 347.693 359.103C347.601 359.018 347.544 358.902 347.534 358.778C347.418 357.42 347.296 356.094 347.168 354.797C347.155 354.665 347.195 354.534 347.279 354.431C347.363 354.328 347.485 354.264 347.617 354.25C347.748 354.241 347.878 354.282 347.98 354.365C348.082 354.449 348.148 354.569 348.164 354.7C348.292 355.997 348.414 357.328 348.53 358.692C348.541 358.824 348.5 358.955 348.414 359.056C348.329 359.158 348.207 359.221 348.075 359.233C348.06 359.234 348.046 359.235 348.031 359.235ZM347.24 351.268C347.117 351.268 346.999 351.222 346.908 351.141C346.816 351.059 346.758 350.946 346.744 350.825C346.587 349.443 346.42 348.119 346.247 346.864C346.238 346.799 346.242 346.732 346.258 346.669C346.275 346.605 346.304 346.546 346.343 346.493C346.383 346.441 346.432 346.397 346.489 346.364C346.546 346.331 346.608 346.309 346.673 346.3C346.804 346.284 346.937 346.319 347.042 346.399C347.147 346.479 347.217 346.596 347.237 346.727C347.412 347.99 347.579 349.322 347.738 350.711C347.753 350.843 347.715 350.976 347.632 351.079C347.55 351.183 347.429 351.25 347.298 351.265C347.278 351.267 347.259 351.268 347.24 351.268ZM346.13 343.338C346.013 343.338 345.899 343.297 345.809 343.221C345.719 343.145 345.659 343.04 345.639 342.924C345.398 341.542 345.149 340.312 344.898 339.269L344.858 339.104C344.825 338.972 344.843 338.832 344.91 338.713C344.977 338.594 345.087 338.505 345.217 338.465C345.278 338.447 345.342 338.441 345.406 338.448C345.469 338.454 345.53 338.474 345.586 338.505C345.641 338.536 345.69 338.578 345.729 338.629C345.768 338.679 345.796 338.737 345.812 338.798L345.83 338.869L345.869 339.029C346.127 340.099 346.38 341.35 346.624 342.752C346.635 342.817 346.634 342.883 346.619 342.947C346.605 343.011 346.578 343.072 346.541 343.126C346.503 343.179 346.455 343.225 346.399 343.26C346.344 343.295 346.282 343.319 346.217 343.33C346.189 343.336 346.16 343.339 346.13 343.338ZM344.321 335.532C344.211 335.532 344.105 335.496 344.018 335.429C343.931 335.363 343.868 335.27 343.839 335.164C343.519 334.001 343.148 332.716 342.722 331.326C342.703 331.263 342.696 331.196 342.702 331.131C342.708 331.065 342.727 331.001 342.758 330.943C342.788 330.885 342.83 330.833 342.881 330.791C342.932 330.749 342.991 330.718 343.054 330.698C343.117 330.679 343.183 330.672 343.248 330.679C343.314 330.685 343.378 330.704 343.436 330.735C343.494 330.766 343.545 330.809 343.587 330.86C343.629 330.911 343.66 330.969 343.679 331.033C344.107 332.433 344.48 333.728 344.803 334.899C344.821 334.962 344.826 335.028 344.817 335.094C344.809 335.159 344.788 335.222 344.756 335.279C344.724 335.336 344.68 335.386 344.628 335.426C344.576 335.467 344.517 335.497 344.454 335.514C344.41 335.526 344.366 335.531 344.321 335.532ZM341.975 327.861C341.87 327.861 341.768 327.828 341.683 327.767C341.598 327.706 341.535 327.619 341.502 327.52C341.097 326.315 340.657 325.055 340.18 323.75C340.158 323.689 340.148 323.623 340.15 323.558C340.153 323.492 340.169 323.427 340.196 323.368C340.224 323.308 340.263 323.255 340.311 323.21C340.36 323.166 340.416 323.131 340.478 323.109C340.54 323.086 340.605 323.076 340.671 323.079C340.737 323.081 340.801 323.097 340.861 323.125C340.92 323.152 340.974 323.192 341.018 323.24C341.063 323.288 341.097 323.345 341.12 323.407C341.6 324.721 342.043 325.986 342.449 327.202C342.47 327.264 342.478 327.329 342.474 327.395C342.469 327.46 342.452 327.524 342.423 327.583C342.394 327.642 342.353 327.694 342.304 327.737C342.254 327.781 342.197 327.813 342.134 327.834C342.083 327.852 342.029 327.861 341.975 327.861ZM339.225 320.332C339.125 320.332 339.027 320.302 338.944 320.246C338.861 320.189 338.797 320.109 338.76 320.016C338.285 318.812 337.779 317.581 337.242 316.324C337.19 316.202 337.188 316.064 337.238 315.941C337.287 315.818 337.383 315.719 337.505 315.667C337.627 315.615 337.765 315.614 337.888 315.663C338.011 315.713 338.11 315.809 338.162 315.931C338.702 317.195 339.211 318.437 339.69 319.649C339.714 319.71 339.726 319.775 339.725 319.841C339.724 319.906 339.71 319.971 339.684 320.031C339.658 320.092 339.62 320.146 339.573 320.192C339.526 320.237 339.47 320.273 339.409 320.297C339.35 320.321 339.288 320.333 339.225 320.332ZM336.078 312.965C335.982 312.965 335.889 312.938 335.808 312.886C335.728 312.835 335.664 312.762 335.624 312.675C335.076 311.489 334.502 310.288 333.901 309.075C333.872 309.016 333.854 308.952 333.85 308.886C333.845 308.82 333.854 308.754 333.874 308.692C333.895 308.63 333.928 308.572 333.972 308.522C334.015 308.473 334.068 308.432 334.127 308.403C334.185 308.374 334.25 308.357 334.315 308.352C334.381 308.348 334.447 308.356 334.509 308.378C334.571 308.399 334.629 308.432 334.678 308.475C334.728 308.519 334.768 308.571 334.797 308.63C335.403 309.851 335.981 311.059 336.532 312.255C336.567 312.331 336.583 312.415 336.577 312.499C336.571 312.583 336.545 312.664 336.5 312.735C336.454 312.806 336.392 312.864 336.318 312.904C336.244 312.944 336.162 312.965 336.078 312.965ZM332.516 305.791C332.426 305.791 332.337 305.767 332.259 305.72C332.181 305.673 332.118 305.607 332.075 305.527C331.457 304.37 330.812 303.207 330.141 302.038C330.075 301.923 330.058 301.787 330.092 301.659C330.127 301.531 330.211 301.422 330.326 301.356C330.441 301.29 330.577 301.272 330.705 301.307C330.833 301.341 330.942 301.425 331.008 301.54C331.684 302.715 332.334 303.887 332.958 305.056C333.02 305.173 333.033 305.31 332.995 305.437C332.956 305.564 332.869 305.67 332.752 305.733C332.679 305.772 332.598 305.792 332.516 305.791ZM328.522 298.853C328.437 298.853 328.353 298.831 328.279 298.79C328.205 298.749 328.142 298.689 328.097 298.617C327.389 297.476 326.664 296.348 325.939 295.265C325.902 295.21 325.876 295.149 325.863 295.084C325.85 295.02 325.849 294.953 325.862 294.888C325.874 294.823 325.9 294.762 325.936 294.707C325.973 294.652 326.02 294.604 326.075 294.568C326.13 294.531 326.191 294.506 326.256 294.493C326.321 294.48 326.387 294.48 326.452 294.493C326.517 294.506 326.578 294.532 326.633 294.569C326.688 294.606 326.735 294.653 326.771 294.708C327.501 295.801 328.233 296.939 328.947 298.089C328.994 298.165 329.02 298.252 329.022 298.341C329.024 298.43 329.002 298.518 328.959 298.596C328.916 298.674 328.852 298.739 328.775 298.784C328.699 298.829 328.611 298.853 328.522 298.853ZM324.072 292.201C323.993 292.2 323.915 292.182 323.844 292.146C323.774 292.11 323.713 292.058 323.667 291.994C322.883 290.909 322.079 289.837 321.274 288.808C321.233 288.756 321.203 288.697 321.185 288.634C321.168 288.571 321.162 288.504 321.17 288.439C321.178 288.374 321.199 288.311 321.231 288.253C321.264 288.196 321.307 288.146 321.359 288.105C321.41 288.065 321.47 288.035 321.533 288.017C321.597 288 321.663 287.995 321.728 288.003C321.793 288.011 321.856 288.032 321.914 288.065C321.971 288.097 322.021 288.141 322.061 288.193C322.874 289.232 323.687 290.313 324.477 291.408C324.531 291.482 324.563 291.57 324.571 291.662C324.578 291.754 324.559 291.846 324.517 291.928C324.475 292.01 324.412 292.079 324.333 292.127C324.254 292.175 324.164 292.201 324.072 292.201ZM319.14 285.897C319.068 285.897 318.996 285.881 318.93 285.851C318.864 285.82 318.806 285.776 318.759 285.72C317.895 284.703 317.007 283.701 316.122 282.74C316.077 282.691 316.043 282.635 316.02 282.573C315.997 282.512 315.987 282.446 315.99 282.381C315.992 282.315 316.008 282.251 316.035 282.191C316.063 282.132 316.102 282.078 316.15 282.034C316.198 281.989 316.255 281.954 316.316 281.932C316.378 281.909 316.443 281.899 316.509 281.901C316.574 281.904 316.639 281.92 316.698 281.947C316.758 281.975 316.812 282.014 316.856 282.062C317.753 283.033 318.649 284.045 319.521 285.074C319.583 285.146 319.622 285.235 319.635 285.33C319.648 285.424 319.633 285.52 319.593 285.607C319.553 285.693 319.489 285.767 319.409 285.818C319.329 285.869 319.236 285.897 319.14 285.897ZM313.714 280.021C313.582 280.021 313.455 279.969 313.361 279.876C312.415 278.937 311.443 278.017 310.474 277.141C310.376 277.052 310.318 276.928 310.311 276.796C310.305 276.664 310.351 276.534 310.44 276.436C310.528 276.338 310.652 276.279 310.784 276.272C310.916 276.265 311.046 276.311 311.144 276.399C312.125 277.285 313.108 278.216 314.066 279.165C314.137 279.235 314.185 279.324 314.204 279.422C314.224 279.519 314.214 279.62 314.177 279.711C314.139 279.803 314.075 279.881 313.992 279.937C313.91 279.992 313.813 280.021 313.714 280.021ZM307.781 274.66C307.665 274.66 307.553 274.62 307.464 274.546C306.438 273.704 305.384 272.882 304.33 272.103C304.223 272.024 304.153 271.906 304.133 271.775C304.114 271.644 304.147 271.511 304.226 271.404C304.305 271.298 304.422 271.227 304.553 271.207C304.684 271.187 304.818 271.22 304.924 271.298C305.993 272.088 307.06 272.921 308.098 273.773C308.178 273.838 308.236 273.927 308.263 274.026C308.291 274.125 308.287 274.231 308.252 274.328C308.217 274.425 308.153 274.509 308.069 274.568C307.985 274.628 307.884 274.66 307.781 274.66ZM301.355 269.906C301.257 269.906 301.161 269.877 301.079 269.823C299.968 269.087 298.836 268.378 297.713 267.715C297.598 267.648 297.516 267.538 297.482 267.409C297.449 267.281 297.468 267.145 297.536 267.031C297.603 266.916 297.713 266.834 297.841 266.8C297.97 266.767 298.106 266.787 298.22 266.854C299.358 267.526 300.505 268.243 301.631 268.989C301.721 269.048 301.789 269.135 301.826 269.236C301.862 269.337 301.865 269.447 301.834 269.55C301.803 269.653 301.74 269.743 301.654 269.807C301.567 269.871 301.463 269.906 301.355 269.906ZM294.47 265.846C294.39 265.846 294.311 265.827 294.24 265.789C293.074 265.184 291.874 264.601 290.671 264.058C290.55 264.003 290.455 263.903 290.408 263.779C290.362 263.654 290.366 263.517 290.421 263.396C290.475 263.275 290.576 263.181 290.7 263.134C290.824 263.087 290.962 263.091 291.083 263.146C292.301 263.697 293.519 264.287 294.701 264.903C294.8 264.954 294.879 265.038 294.925 265.14C294.972 265.242 294.982 265.356 294.956 265.465C294.929 265.573 294.867 265.67 294.779 265.739C294.691 265.808 294.582 265.846 294.47 265.846ZM287.192 262.556C287.13 262.556 287.069 262.545 287.011 262.523C285.773 262.043 284.516 261.595 283.274 261.191C283.212 261.17 283.154 261.138 283.104 261.095C283.054 261.053 283.013 261 282.983 260.942C282.953 260.883 282.935 260.819 282.93 260.754C282.925 260.688 282.933 260.622 282.953 260.56C282.974 260.497 283.006 260.439 283.049 260.39C283.092 260.34 283.144 260.299 283.203 260.269C283.261 260.239 283.325 260.221 283.391 260.216C283.456 260.211 283.522 260.219 283.585 260.24C284.842 260.65 286.117 261.104 287.373 261.589C287.482 261.631 287.572 261.71 287.629 261.812C287.686 261.914 287.706 262.033 287.684 262.148C287.663 262.263 287.602 262.366 287.512 262.441C287.422 262.515 287.309 262.556 287.192 262.556ZM279.6 260.079C279.557 260.079 279.513 260.074 279.471 260.063C278.2 259.723 276.901 259.412 275.612 259.14C275.483 259.112 275.369 259.034 275.297 258.923C275.225 258.812 275.2 258.677 275.228 258.547C275.255 258.418 275.333 258.304 275.444 258.232C275.554 258.16 275.689 258.134 275.819 258.161C277.126 258.437 278.441 258.752 279.729 259.097C279.846 259.128 279.948 259.201 280.016 259.301C280.083 259.402 280.112 259.524 280.096 259.645C280.08 259.765 280.021 259.875 279.93 259.955C279.839 260.035 279.722 260.08 279.6 260.079ZM230.046 258.838C229.322 258.837 228.606 258.833 227.898 258.824C227.765 258.823 227.639 258.77 227.545 258.676C227.452 258.581 227.4 258.454 227.401 258.321C227.402 258.189 227.455 258.062 227.55 257.968C227.644 257.875 227.771 257.823 227.904 257.824H227.91C229.212 257.84 230.541 257.842 231.898 257.828H231.903C232.036 257.827 232.163 257.879 232.257 257.973C232.351 258.066 232.405 258.193 232.405 258.326C232.406 258.458 232.354 258.586 232.261 258.68C232.167 258.774 232.04 258.827 231.908 258.828C231.281 258.834 230.66 258.838 230.046 258.838ZM235.903 258.742C235.772 258.742 235.646 258.691 235.552 258.599C235.458 258.507 235.405 258.381 235.403 258.25C235.401 258.119 235.45 257.992 235.541 257.897C235.632 257.802 235.756 257.747 235.887 257.743C237.191 257.701 238.519 257.644 239.873 257.573C240.005 257.567 240.133 257.614 240.231 257.702C240.329 257.791 240.388 257.915 240.395 258.046C240.402 258.178 240.356 258.307 240.268 258.406C240.18 258.504 240.057 258.564 239.925 258.572C238.565 258.643 237.229 258.699 235.919 258.742L235.903 258.742ZM223.907 258.724L223.888 258.724C222.521 258.672 221.186 258.604 219.882 258.518C219.817 258.514 219.752 258.498 219.692 258.469C219.633 258.44 219.58 258.4 219.536 258.35C219.492 258.301 219.459 258.243 219.437 258.181C219.416 258.118 219.407 258.052 219.411 257.986C219.415 257.921 219.433 257.856 219.462 257.797C219.491 257.738 219.532 257.685 219.582 257.642C219.632 257.598 219.69 257.565 219.752 257.544C219.815 257.523 219.881 257.515 219.947 257.52C221.243 257.605 222.569 257.673 223.925 257.725C224.056 257.729 224.18 257.785 224.27 257.88C224.36 257.976 224.41 258.102 224.407 258.233C224.405 258.364 224.351 258.489 224.257 258.581C224.164 258.673 224.038 258.724 223.907 258.724ZM271.789 258.425C271.762 258.425 271.736 258.423 271.71 258.418C270.416 258.214 269.091 258.038 267.775 257.896C267.709 257.89 267.645 257.87 267.587 257.839C267.529 257.808 267.477 257.765 267.435 257.714C267.393 257.663 267.362 257.604 267.343 257.54C267.325 257.477 267.319 257.41 267.326 257.344C267.333 257.279 267.353 257.215 267.385 257.157C267.417 257.099 267.46 257.048 267.512 257.007C267.563 256.966 267.623 256.935 267.687 256.917C267.75 256.899 267.817 256.894 267.882 256.902C269.215 257.045 270.555 257.224 271.866 257.431C271.99 257.451 272.102 257.516 272.18 257.615C272.258 257.714 272.296 257.838 272.287 257.964C272.277 258.089 272.22 258.206 272.128 258.292C272.036 258.377 271.914 258.425 271.789 258.425ZM243.889 258.324C243.76 258.324 243.635 258.274 243.542 258.184C243.449 258.093 243.395 257.971 243.39 257.841C243.386 257.712 243.432 257.586 243.518 257.49C243.605 257.393 243.726 257.335 243.855 257.326C245.16 257.232 246.485 257.126 247.832 257.005C247.964 256.993 248.095 257.034 248.197 257.119C248.299 257.204 248.363 257.326 248.375 257.458C248.387 257.59 248.346 257.722 248.261 257.824C248.176 257.926 248.054 257.989 247.922 258.001C246.568 258.122 245.236 258.23 243.925 258.323L243.889 258.324ZM215.93 258.2C215.914 258.2 215.898 258.199 215.882 258.198C214.516 258.069 213.187 257.921 211.894 257.756C211.763 257.739 211.643 257.671 211.562 257.566C211.481 257.461 211.445 257.328 211.462 257.196C211.478 257.065 211.547 256.945 211.652 256.864C211.757 256.783 211.89 256.747 212.021 256.764C213.303 256.928 214.622 257.074 215.976 257.203C216.104 257.214 216.223 257.275 216.307 257.372C216.391 257.469 216.435 257.595 216.429 257.723C216.423 257.852 216.368 257.973 216.275 258.062C216.182 258.15 216.059 258.2 215.93 258.2ZM251.862 257.656C251.732 257.656 251.608 257.606 251.515 257.516C251.422 257.425 251.367 257.303 251.363 257.173C251.358 257.044 251.404 256.918 251.491 256.822C251.578 256.725 251.699 256.667 251.828 256.658C253.17 256.562 254.52 256.493 255.842 256.453C255.974 256.452 256.101 256.502 256.197 256.592C256.293 256.682 256.35 256.806 256.357 256.938C256.361 257.071 256.312 257.199 256.221 257.296C256.13 257.392 256.004 257.449 255.872 257.453C254.564 257.492 253.227 257.56 251.898 257.655L251.862 257.656ZM263.847 257.566L263.818 257.565C262.513 257.488 261.178 257.439 259.849 257.421C259.717 257.42 259.59 257.366 259.497 257.272C259.404 257.178 259.352 257.05 259.353 256.917C259.354 256.785 259.407 256.658 259.502 256.565C259.596 256.472 259.723 256.42 259.856 256.421H259.863C261.208 256.439 262.558 256.489 263.877 256.567C264.006 256.575 264.128 256.633 264.216 256.729C264.303 256.825 264.35 256.951 264.346 257.081C264.343 257.211 264.288 257.334 264.195 257.425C264.102 257.515 263.977 257.566 263.847 257.566ZM208.005 257.185C207.978 257.186 207.951 257.183 207.924 257.179C206.598 256.963 205.269 256.72 203.974 256.456C203.91 256.443 203.848 256.418 203.794 256.381C203.739 256.344 203.692 256.297 203.656 256.242C203.62 256.188 203.594 256.126 203.582 256.062C203.569 255.997 203.569 255.931 203.582 255.866C203.596 255.802 203.621 255.741 203.658 255.686C203.695 255.632 203.742 255.585 203.797 255.549C203.852 255.512 203.913 255.487 203.978 255.475C204.043 255.463 204.109 255.463 204.173 255.476C205.457 255.737 206.772 255.978 208.085 256.192C208.208 256.212 208.32 256.278 208.398 256.377C208.475 256.476 208.513 256.6 208.503 256.725C208.493 256.85 208.436 256.967 208.344 257.052C208.252 257.138 208.131 257.185 208.005 257.185ZM200.175 255.588C200.135 255.588 200.095 255.583 200.055 255.573C198.742 255.247 197.437 254.891 196.177 254.515C196.114 254.496 196.056 254.465 196.005 254.424C195.954 254.382 195.911 254.331 195.88 254.273C195.849 254.216 195.829 254.152 195.823 254.087C195.816 254.021 195.822 253.955 195.841 253.892C195.86 253.829 195.891 253.771 195.933 253.72C195.974 253.669 196.025 253.626 196.083 253.595C196.141 253.564 196.205 253.545 196.27 253.538C196.335 253.532 196.402 253.538 196.464 253.557C197.709 253.929 198.998 254.281 200.296 254.602C200.414 254.632 200.518 254.704 200.587 254.804C200.656 254.905 200.686 255.027 200.672 255.148C200.657 255.27 200.598 255.381 200.507 255.462C200.415 255.543 200.298 255.588 200.175 255.588ZM192.523 253.295C192.466 253.295 192.409 253.285 192.355 253.266C191.074 252.809 189.812 252.319 188.605 251.808C188.544 251.783 188.489 251.746 188.443 251.699C188.396 251.653 188.36 251.597 188.335 251.536C188.31 251.475 188.297 251.41 188.298 251.344C188.298 251.279 188.311 251.213 188.337 251.153C188.363 251.092 188.4 251.037 188.447 250.991C188.494 250.945 188.549 250.908 188.61 250.884C188.671 250.859 188.737 250.847 188.802 250.847C188.868 250.848 188.933 250.862 188.994 250.888C190.184 251.39 191.427 251.873 192.691 252.324C192.802 252.363 192.895 252.441 192.955 252.543C193.014 252.644 193.036 252.764 193.016 252.88C192.995 252.996 192.935 253.101 192.845 253.177C192.755 253.253 192.641 253.295 192.523 253.295ZM185.171 250.178C185.094 250.178 185.017 250.16 184.948 250.125C183.728 249.515 182.538 248.866 181.409 248.196C181.295 248.129 181.212 248.018 181.179 247.89C181.146 247.761 181.166 247.625 181.234 247.511C181.301 247.397 181.411 247.314 181.54 247.282C181.668 247.249 181.804 247.268 181.919 247.336C183.027 247.994 184.197 248.631 185.395 249.23C185.496 249.281 185.577 249.364 185.624 249.466C185.672 249.568 185.684 249.683 185.658 249.792C185.632 249.902 185.57 250 185.482 250.07C185.394 250.14 185.284 250.178 185.171 250.178ZM178.309 246.095C178.206 246.095 178.105 246.063 178.02 246.003C176.901 245.211 175.827 244.379 174.827 243.53C174.726 243.444 174.663 243.322 174.652 243.19C174.641 243.058 174.683 242.927 174.769 242.826C174.854 242.724 174.977 242.661 175.109 242.651C175.241 242.64 175.372 242.682 175.473 242.767C176.452 243.598 177.503 244.412 178.598 245.187C178.685 245.248 178.75 245.336 178.783 245.436C178.817 245.537 178.818 245.646 178.786 245.747C178.753 245.848 178.69 245.936 178.604 245.999C178.519 246.061 178.415 246.095 178.309 246.095ZM172.234 240.915C172.167 240.915 172.1 240.902 172.038 240.876C171.976 240.849 171.92 240.811 171.874 240.763C170.935 239.79 170.051 238.765 169.226 237.694C169.186 237.642 169.157 237.582 169.14 237.519C169.123 237.455 169.119 237.389 169.127 237.324C169.136 237.259 169.157 237.196 169.19 237.14C169.223 237.083 169.266 237.033 169.318 236.993C169.371 236.953 169.43 236.924 169.493 236.907C169.557 236.89 169.623 236.885 169.688 236.894C169.753 236.903 169.816 236.924 169.873 236.957C169.929 236.99 169.979 237.033 170.019 237.085C170.821 238.127 171.681 239.123 172.594 240.068C172.662 240.139 172.708 240.228 172.726 240.325C172.743 240.421 172.732 240.521 172.694 240.611C172.656 240.701 172.592 240.778 172.51 240.832C172.428 240.886 172.332 240.915 172.234 240.915ZM167.398 234.566C167.31 234.566 167.224 234.543 167.147 234.499C167.071 234.455 167.008 234.391 166.964 234.315C166.251 233.131 165.677 231.87 165.252 230.555C165.216 230.427 165.233 230.291 165.298 230.175C165.363 230.06 165.472 229.975 165.599 229.94C165.727 229.905 165.864 229.921 165.979 229.987C166.094 230.052 166.179 230.16 166.214 230.288C166.621 231.521 167.164 232.705 167.832 233.818C167.875 233.894 167.898 233.98 167.898 234.067C167.898 234.155 167.875 234.241 167.831 234.317C167.787 234.393 167.724 234.456 167.648 234.5C167.572 234.543 167.486 234.566 167.398 234.566Z" fill="white"/>
<path d="M293.686 188.083C296.179 186.802 298.585 185.358 300.887 183.758C303.907 181.622 306.345 180.419 309.229 181.248C312.004 182.046 313.619 184.918 314.525 187.66C315.193 189.685 315.637 191.777 315.85 193.898C316.031 195.023 315.94 196.174 315.583 197.256C314.572 199.778 311.445 200.691 308.731 200.823C300.761 201.211 294.619 194.801 294.348 193.919L293.686 188.083Z" fill="white"/>
<path d="M308.027 201.34C300.25 201.34 294.252 195.307 293.87 194.066L293.148 187.788L293.467 187.634C295.935 186.363 298.317 184.933 300.598 183.35C303.767 181.11 306.341 179.897 309.366 180.768C311.831 181.477 313.778 183.805 314.999 187.503C315.678 189.563 316.13 191.691 316.347 193.848C316.539 195.053 316.436 196.287 316.046 197.443C314.746 200.687 310.514 201.237 308.755 201.323C308.511 201.334 308.268 201.34 308.027 201.34ZM294.837 193.797C295.296 194.76 301.139 200.697 308.706 200.324C310.272 200.247 314.033 199.777 315.118 197.07C315.443 196.063 315.523 194.993 315.352 193.948C315.143 191.863 314.706 189.807 314.05 187.817C313.274 185.467 311.784 182.504 309.09 181.729C306.438 180.965 304.178 182.045 301.176 184.167C298.948 185.713 296.625 187.118 294.222 188.374L294.837 193.797Z" fill="black"/>
<path d="M464.046 411.874C462.327 413.127 460.418 414.096 458.391 414.744C457.668 410.438 456.773 406.154 455.704 401.923C457.022 401.504 458.372 401.193 459.74 400.995C460.99 400.9 462.241 401.169 463.34 401.771C464.44 402.372 465.341 403.28 465.935 404.384C466.534 405.658 466.673 407.101 466.329 408.466C465.985 409.832 465.178 411.036 464.046 411.874Z" fill="black"/>
<path d="M438.47 448.512C437.224 449.017 435.935 449.403 434.617 449.667C433.926 449.807 433.225 449.926 432.502 450.002C432.394 445.59 432.049 441.188 431.466 436.814C432.146 436.792 432.869 436.771 433.581 436.76C434.741 436.714 435.903 436.757 437.056 436.889C438.29 437.115 439.433 437.694 440.345 438.556C441.257 439.418 441.899 440.526 442.193 441.746C442.453 443.13 442.224 444.562 441.544 445.797C440.865 447.031 439.778 447.991 438.47 448.512Z" fill="black"/>
<path d="M325.143 186.471C323.882 186.539 316.764 186.419 316.764 186.419C314.84 186.336 313.328 186.02 313.523 184.06C313.728 182.984 315.29 182.857 316.382 182.874C324.98 183.014 323.608 181.637 323.608 181.637C323.642 181.029 317.4 181.413 314.744 181.41C313.518 181.502 310.446 181.372 310.337 179.964C310.291 179.369 310.616 178.504 312.482 178.378C316.321 178.117 318.904 178.347 322.731 177.97C323.179 177.863 323.578 177.74 323.567 177.198C323.536 176.655 321.144 176.401 319.875 176.379C317.009 176.326 314.131 176.286 311.255 176.232C310.805 176.227 310.098 175.984 310.112 175.304C310.141 173.823 311.547 173.552 313.634 173.464C316.958 173.324 320.196 173.865 323.511 173.798C323.904 173.757 324.011 173.238 323.843 172.782C323.566 172.055 322.511 171.98 322.272 171.963C319.398 171.743 317.206 171.765 314.323 171.669C314.083 171.666 312.965 171.628 312.791 170.853C312.34 168.921 314.598 169.083 314.98 169.055C317.536 168.909 321.081 168.867 324.459 168.867C327.891 168.867 329.183 171.437 329.95 174.018C330.643 177.618 330.054 181.347 328.286 184.558C327.96 185.111 327.502 185.575 326.954 185.909C326.406 186.243 325.783 186.436 325.143 186.471Z" fill="white"/>
<path d="M323.569 186.993C321.11 186.993 316.98 186.923 316.756 186.92C315.277 186.856 314.167 186.661 313.515 185.908C313.305 185.643 313.153 185.337 313.068 185.009C312.983 184.682 312.967 184.34 313.022 184.006C313.237 182.871 314.374 182.358 316.39 182.367C320.856 182.44 322.415 182.095 322.95 181.878C321.098 181.774 319.243 181.767 317.39 181.859C316.38 181.887 315.459 181.909 314.744 181.912C314.735 181.914 310.008 182.241 309.835 179.999C309.814 179.772 309.84 179.542 309.91 179.325C309.981 179.108 310.094 178.907 310.244 178.735C310.536 178.453 310.882 178.231 311.26 178.083C311.638 177.935 312.042 177.863 312.448 177.872C314.171 177.755 315.647 177.736 317.076 177.717C318.878 177.694 320.58 177.672 322.681 177.465C322.807 177.448 322.927 177.403 323.032 177.332C322.006 177.021 320.939 176.868 319.867 176.88L315.616 176.807C314.16 176.784 312.703 176.759 311.246 176.733C310.772 176.731 310.316 176.55 309.97 176.226C309.85 176.103 309.756 175.956 309.694 175.795C309.631 175.635 309.602 175.463 309.608 175.291C309.651 173.124 312.035 173.023 313.613 172.957C315.373 172.915 317.135 172.968 318.889 173.116C320.368 173.215 321.892 173.318 323.406 173.292C323.426 173.178 323.414 173.061 323.371 172.953C323.269 172.687 322.855 172.507 322.237 172.462C320.273 172.312 318.614 172.275 316.857 172.236C316.047 172.219 315.211 172.2 314.306 172.17C313.22 172.155 312.467 171.702 312.3 170.959C312.216 170.689 312.196 170.402 312.241 170.122C312.286 169.843 312.395 169.577 312.56 169.347C312.858 169.062 313.213 168.844 313.602 168.707C313.991 168.57 314.404 168.517 314.815 168.552L314.943 168.549C317.153 168.423 320.352 168.359 324.46 168.359C328.303 168.359 329.671 171.305 330.433 173.872C331.156 177.606 330.55 181.476 328.72 184.811C328.354 185.437 327.838 185.962 327.218 186.339C326.599 186.716 325.895 186.933 325.171 186.971C324.882 186.986 324.299 186.993 323.569 186.993ZM316.223 183.374C315.391 183.374 314.145 183.487 314.019 184.151C313.985 184.342 313.99 184.537 314.035 184.726C314.079 184.914 314.162 185.092 314.277 185.248C315.011 185.753 315.898 185.987 316.786 185.912C316.844 185.913 323.885 186.029 325.116 185.964C325.674 185.935 326.216 185.767 326.694 185.477C327.171 185.187 327.569 184.782 327.851 184.3C329.556 181.211 330.127 177.624 329.467 174.159C328.763 171.79 327.618 169.368 324.46 169.368C320.371 169.368 317.191 169.431 315.009 169.555C314.974 169.558 314.912 169.56 314.834 169.561C314.511 169.567 313.655 169.583 313.357 169.966C313.289 170.08 313.246 170.209 313.233 170.342C313.221 170.475 313.238 170.609 313.283 170.734C313.351 171.041 313.889 171.156 314.33 171.162C315.24 171.192 316.073 171.21 316.88 171.229C318.65 171.268 320.323 171.304 322.311 171.457C323.642 171.552 324.136 172.13 324.314 172.599C324.397 172.802 324.435 173.02 324.423 173.239C324.412 173.457 324.352 173.67 324.249 173.863C324.176 173.984 324.076 174.086 323.957 174.161C323.838 174.236 323.703 174.282 323.563 174.296C321.93 174.329 320.352 174.225 318.822 174.122C317.104 173.976 315.38 173.923 313.656 173.964C311.373 174.061 310.635 174.388 310.616 175.311C310.613 175.35 310.618 175.389 310.632 175.426C310.645 175.463 310.667 175.496 310.694 175.524C310.854 175.655 311.055 175.726 311.262 175.724C312.721 175.751 314.179 175.776 315.633 175.799L319.886 175.871C321.422 175.897 324.01 176.1 324.071 177.166C324.091 178.162 323.251 178.362 322.847 178.457C320.636 178.68 318.913 178.702 317.089 178.726C315.674 178.744 314.211 178.763 312.516 178.877C311.965 178.846 311.423 179.032 311.007 179.395C310.944 179.466 310.898 179.55 310.869 179.641C310.84 179.732 310.831 179.827 310.841 179.922C310.9 180.706 313.135 181.023 314.707 180.904C315.433 180.904 316.364 180.878 317.363 180.851C321.991 180.725 323.503 180.757 323.937 181.207L324.092 181.365L324.098 181.46C324.154 181.564 324.186 181.68 324.192 181.799C324.197 181.917 324.175 182.035 324.129 182.144C323.958 182.548 323.552 183.483 316.375 183.375C316.326 183.375 316.275 183.374 316.223 183.374Z" fill="black"/>
<path d="M95.8973 89.6222C108.185 94.7925 120.276 100.629 131.278 108.211C141.471 115.236 150.518 124.015 158.758 133.223C174.534 150.889 184.553 172.943 187.479 196.446C188.242 204.246 188.521 212.085 188.316 219.919C188.321 220.048 188.375 220.171 188.469 220.261C188.562 220.351 188.686 220.402 188.816 220.402C188.946 220.402 189.07 220.351 189.164 220.261C189.257 220.171 189.312 220.048 189.316 219.919C189.488 212.854 189.292 205.785 188.73 198.741C187.711 188.384 185.273 178.216 181.485 168.523C176.897 156.65 170.42 145.595 162.306 135.788C154.518 126.368 145.699 117.851 136.013 110.396C123.875 101.247 110.122 94.5316 96.1631 88.6579C95.5708 88.4086 95.3121 89.3759 95.8973 89.6222Z" fill="black"/>
<path d="M92.2607 92.0426C108.657 103.901 121.927 120.154 132.58 137.227C143.806 155.219 151.389 175.094 157.128 195.448C160.388 207.013 163.032 218.744 165.251 230.551C165.37 231.183 166.334 230.915 166.215 230.285C162.096 208.364 156.545 186.583 148.184 165.868C140.563 146.955 129.954 129.389 116.762 113.841C109.701 105.352 101.644 97.7435 92.7654 91.1792C92.2432 90.8015 91.7435 91.6686 92.2607 92.0426Z" fill="black"/>
<path d="M88.1117 92.7169C89.4437 133.479 96.3389 175.66 119.378 210.21C125.173 218.867 131.835 226.911 139.26 234.219C139.718 234.672 140.425 233.965 139.967 233.512C126.679 220.381 115.9 204.936 108.158 187.934C99.9572 169.95 95.0986 150.594 92.2998 131.076C90.5362 118.357 89.4719 105.552 89.1117 92.7169C89.0907 92.075 88.0906 92.0721 88.1117 92.7169Z" fill="black"/>
<path d="M117.453 124.57L154.224 149.154C178.202 165.184 202.598 179.163 230.944 184.493C247.58 187.621 272.019 187.459 290.974 186.321C291.681 186.279 292.376 186.513 292.914 186.974C293.452 187.435 293.789 188.086 293.856 188.792L294.347 193.917C294.408 194.566 294.236 195.215 293.861 195.749C293.487 196.283 292.935 196.666 292.304 196.829C271.843 202.154 278.174 200.85 256.532 204.318C243.149 206.463 225.56 206.798 212.199 204.52C200.86 202.587 178.601 193.654 168.315 188.506C143.448 176.062 124.882 167.425 100.914 150.974" fill="white"/>
<path d="M233.045 206.587C226.037 206.637 219.037 206.11 212.115 205.013C200.902 203.102 178.918 194.371 168.092 188.954C165.203 187.508 162.394 186.108 159.664 184.753C138.534 174.246 121.844 165.946 100.631 151.386C100.522 151.311 100.447 151.196 100.422 151.065C100.398 150.935 100.427 150.8 100.502 150.691C100.577 150.582 100.693 150.507 100.823 150.483C100.953 150.458 101.088 150.487 101.197 150.562C122.352 165.082 139.015 173.368 160.109 183.858C162.847 185.219 165.657 186.62 168.539 188.059C179.31 193.449 201.161 202.131 212.283 204.027C224.912 206.18 242.249 206.101 256.453 203.825C259.189 203.386 261.478 203.024 263.431 202.715C274.738 200.926 274.738 200.926 285.013 198.223C286.977 197.706 289.315 197.091 292.178 196.346C292.695 196.214 293.148 195.902 293.455 195.465C293.761 195.028 293.901 194.496 293.85 193.964L293.357 188.839C293.307 188.262 293.032 187.728 292.592 187.35C292.152 186.973 291.582 186.783 291.004 186.82C279.518 187.51 250.668 188.711 230.852 184.984C201.587 179.482 176.595 164.711 153.945 149.569L117.175 124.986C117.12 124.949 117.073 124.902 117.037 124.848C117.001 124.793 116.975 124.732 116.962 124.667C116.95 124.603 116.95 124.537 116.963 124.472C116.976 124.408 117.001 124.347 117.038 124.292C117.074 124.238 117.121 124.191 117.176 124.154C117.23 124.118 117.292 124.093 117.356 124.08C117.421 124.067 117.487 124.067 117.551 124.08C117.616 124.093 117.677 124.118 117.731 124.155L154.502 148.738C177.062 163.821 201.948 178.532 231.037 184.002C250.745 187.708 279.497 186.509 290.943 185.822C291.781 185.764 292.609 186.038 293.247 186.585C293.885 187.131 294.282 187.907 294.353 188.744L294.846 193.869C294.921 194.637 294.718 195.407 294.275 196.039C293.832 196.67 293.177 197.123 292.43 197.314C289.568 198.058 287.23 198.673 285.268 199.19C274.943 201.906 274.943 201.906 263.587 203.703C261.635 204.012 259.347 204.374 256.611 204.812C248.814 206.013 240.935 206.607 233.045 206.587Z" fill="black"/>
<path d="M31.3812 333.428C30.9954 333.428 30.6175 333.413 30.2474 333.382C26.9593 333.108 23.929 331.715 20.9984 330.367C19.5541 329.703 18.0619 329.016 16.5658 328.479C12.1214 326.881 6.48177 326.926 3.91147 330.628C3.83585 330.737 3.72 330.811 3.58942 330.835C3.45884 330.859 3.32423 330.829 3.21519 330.754C3.10615 330.678 3.03162 330.562 3.008 330.432C2.98437 330.301 3.01359 330.166 3.08921 330.057C5.96421 325.92 12.098 325.81 16.9037 327.538C18.4398 328.091 19.9525 328.786 21.4164 329.459C24.3998 330.83 27.2171 332.126 30.3304 332.386C35.2191 332.794 40.1849 330.525 42.1771 326.996C42.2094 326.939 42.2527 326.888 42.3044 326.848C42.3562 326.807 42.4154 326.778 42.4787 326.76C42.542 326.742 42.6081 326.737 42.6733 326.745C42.7385 326.753 42.8015 326.774 42.8587 326.806C42.9159 326.839 42.9662 326.882 43.0067 326.934C43.0472 326.985 43.077 327.045 43.0946 327.108C43.1122 327.171 43.1172 327.237 43.1092 327.303C43.1012 327.368 43.0805 327.431 43.0482 327.488C40.7865 331.495 35.68 333.428 31.3812 333.428Z" fill="black"/>
<path d="M107.901 497.152C106.832 497.153 105.765 497.06 104.712 496.874C102.27 496.337 99.9039 495.499 97.6674 494.381C96.1622 493.669 94.6177 493.043 93.0414 492.506C89.2768 491.305 84.477 491.509 82.2524 494.674C82.2145 494.728 82.1665 494.773 82.111 494.809C82.0555 494.844 81.9936 494.868 81.9288 494.879C81.8641 494.89 81.7977 494.889 81.7336 494.874C81.6695 494.86 81.6088 494.833 81.5551 494.795C81.5014 494.757 81.4556 494.709 81.4205 494.654C81.3853 494.598 81.3614 494.536 81.3502 494.472C81.3389 494.407 81.3405 494.34 81.3549 494.276C81.3693 494.212 81.3962 494.152 81.434 494.098C83.9506 490.519 89.228 490.241 93.3461 491.553C94.9581 492.102 96.5378 492.742 98.0776 493.469C100.24 494.551 102.526 495.364 104.886 495.89C109.609 496.726 116.143 495.752 119.02 490.245C119.081 490.128 119.187 490.039 119.313 490C119.44 489.96 119.577 489.972 119.695 490.033C119.812 490.095 119.901 490.2 119.94 490.327C119.98 490.453 119.968 490.591 119.907 490.708C117.399 495.509 112.393 497.152 107.901 497.152Z" fill="black"/>
<path d="M366.047 117.283C365.908 117.283 365.771 117.28 365.633 117.274C363.182 117.097 360.791 116.428 358.604 115.306C357.767 114.941 356.903 114.563 355.942 114.201C351.882 112.674 348.235 113.275 345.929 115.85C345.886 115.899 345.833 115.939 345.773 115.968C345.714 115.996 345.65 116.013 345.584 116.017C345.519 116.02 345.453 116.011 345.391 115.989C345.329 115.967 345.272 115.934 345.223 115.89C345.174 115.846 345.134 115.793 345.106 115.734C345.077 115.674 345.061 115.61 345.057 115.544C345.054 115.479 345.063 115.413 345.085 115.351C345.107 115.289 345.141 115.232 345.185 115.183C347.781 112.285 351.831 111.585 356.294 113.265C357.279 113.636 358.156 114.019 359.004 114.39C361.081 115.458 363.35 116.098 365.678 116.275C369.258 116.436 373.83 114.179 374.696 110.687C374.711 110.623 374.739 110.563 374.778 110.51C374.817 110.456 374.866 110.411 374.922 110.377C374.979 110.343 375.041 110.32 375.106 110.31C375.172 110.3 375.238 110.304 375.302 110.319C375.366 110.335 375.426 110.363 375.479 110.403C375.532 110.442 375.577 110.491 375.611 110.548C375.645 110.604 375.667 110.667 375.676 110.732C375.686 110.797 375.683 110.863 375.667 110.927C374.704 114.812 370.007 117.283 366.047 117.283Z" fill="black"/>
<path d="M280.175 92.711C280.108 92.711 280.041 92.7095 279.974 92.7066C278.469 92.5358 277.017 92.0516 275.71 91.2852C274.872 90.8354 273.995 90.4632 273.088 90.1734C271.992 89.7967 270.809 89.7448 269.683 90.0239C268.558 90.303 267.537 90.9012 266.743 91.7466C266.654 91.8449 266.53 91.9038 266.397 91.9105C266.265 91.9172 266.135 91.8711 266.037 91.7824C265.939 91.6936 265.88 91.5694 265.873 91.4371C265.866 91.3048 265.912 91.1752 266.001 91.0767C266.917 90.0894 268.1 89.3881 269.406 89.0572C270.712 88.7263 272.086 88.7799 273.362 89.2115C274.327 89.5181 275.262 89.9123 276.155 90.3892C277.338 91.0907 278.654 91.5396 280.019 91.7076C282.224 91.8116 284.49 89.9048 284.734 88.3375C284.754 88.2064 284.826 88.0888 284.933 88.0105C285.04 87.9322 285.174 87.8996 285.305 87.92C285.436 87.9403 285.553 88.0119 285.632 88.1189C285.71 88.226 285.743 88.3597 285.722 88.4908C285.383 90.6734 282.674 92.711 280.175 92.711Z" fill="black"/>
<path d="M67.7072 461.943C64.4129 461.93 61.1484 461.318 58.0735 460.135C54.8325 458.783 51.7086 457.166 48.7336 455.3C45.5924 453.309 42.2685 451.622 38.8069 450.261C33.8647 448.617 28.5735 448.319 23.4779 449.398C18.3823 450.478 13.6664 452.896 9.81565 456.403C9.76768 456.448 9.71135 456.483 9.64986 456.506C9.58837 456.529 9.52293 456.54 9.45728 456.538C9.39162 456.535 9.32704 456.52 9.26722 456.493C9.2074 456.466 9.1535 456.427 9.10862 456.38C9.06373 456.332 9.02873 456.275 9.00562 456.214C8.98251 456.152 8.97173 456.087 8.97391 456.021C8.97608 455.955 8.99117 455.891 9.01831 455.831C9.04544 455.771 9.08409 455.717 9.13206 455.672C13.1175 452.043 17.9979 449.541 23.2713 448.424C28.5446 447.307 34.0203 447.615 39.135 449.317C42.6598 450.697 46.0441 452.412 49.2414 454.438C52.1675 456.275 55.2397 457.867 58.427 459.2C68.3342 462.955 78.6975 460.548 86.1565 452.761C86.2483 452.666 86.3741 452.611 86.5065 452.608C86.6388 452.605 86.7668 452.655 86.8625 452.747C86.9581 452.838 87.0136 452.964 87.0167 453.096C87.0198 453.229 86.9704 453.357 86.8791 453.453C84.4339 456.104 81.4709 458.225 78.1733 459.685C74.8757 461.146 71.3136 461.914 67.7072 461.943Z" fill="black"/>
</g>
<defs>
<clipPath id="clip0_2614_3220">
<rect width="464.36" height="495.153" fill="white" transform="translate(3 2)"/>
</clipPath>
</defs>
</svg>
